%TF.GenerationSoftware,KiCad,Pcbnew,7.0.9*%
%TF.CreationDate,2024-04-21T12:45:51+02:00*%
%TF.ProjectId,C_-836,43c52d38-3336-42e6-9b69-6361645f7063,rev?*%
%TF.SameCoordinates,Original*%
%TF.FileFunction,Copper,L1,Top*%
%TF.FilePolarity,Positive*%
%FSLAX46Y46*%
G04 Gerber Fmt 4.6, Leading zero omitted, Abs format (unit mm)*
G04 Created by KiCad (PCBNEW 7.0.9) date 2024-04-21 12:45:51*
%MOMM*%
%LPD*%
G01*
G04 APERTURE LIST*
G04 Aperture macros list*
%AMRoundRect*
0 Rectangle with rounded corners*
0 $1 Rounding radius*
0 $2 $3 $4 $5 $6 $7 $8 $9 X,Y pos of 4 corners*
0 Add a 4 corners polygon primitive as box body*
4,1,4,$2,$3,$4,$5,$6,$7,$8,$9,$2,$3,0*
0 Add four circle primitives for the rounded corners*
1,1,$1+$1,$2,$3*
1,1,$1+$1,$4,$5*
1,1,$1+$1,$6,$7*
1,1,$1+$1,$8,$9*
0 Add four rect primitives between the rounded corners*
20,1,$1+$1,$2,$3,$4,$5,0*
20,1,$1+$1,$4,$5,$6,$7,0*
20,1,$1+$1,$6,$7,$8,$9,0*
20,1,$1+$1,$8,$9,$2,$3,0*%
G04 Aperture macros list end*
%TA.AperFunction,ComponentPad*%
%ADD10R,1.600000X1.600000*%
%TD*%
%TA.AperFunction,ComponentPad*%
%ADD11O,1.600000X1.600000*%
%TD*%
%TA.AperFunction,ComponentPad*%
%ADD12RoundRect,0.249999X0.525001X-0.525001X0.525001X0.525001X-0.525001X0.525001X-0.525001X-0.525001X0*%
%TD*%
%TA.AperFunction,ComponentPad*%
%ADD13C,1.550000*%
%TD*%
%TA.AperFunction,ViaPad*%
%ADD14C,0.800000*%
%TD*%
%TA.AperFunction,Conductor*%
%ADD15C,0.250000*%
%TD*%
%TA.AperFunction,Conductor*%
%ADD16C,1.000000*%
%TD*%
G04 APERTURE END LIST*
D10*
%TO.P,IC8,1,A15*%
%TO.N,/A15*%
X91186000Y-56489600D03*
D11*
%TO.P,IC8,2,A12*%
%TO.N,/A12*%
X93726000Y-56489600D03*
%TO.P,IC8,3,A7*%
%TO.N,/A7*%
X96266000Y-56489600D03*
%TO.P,IC8,4,A6*%
%TO.N,/A6*%
X98806000Y-56489600D03*
%TO.P,IC8,5,A5*%
%TO.N,/A5*%
X101346000Y-56489600D03*
%TO.P,IC8,6,A4*%
%TO.N,/A4*%
X103886000Y-56489600D03*
%TO.P,IC8,7,A3*%
%TO.N,/A3*%
X106426000Y-56489600D03*
%TO.P,IC8,8,A2*%
%TO.N,/A2*%
X108966000Y-56489600D03*
%TO.P,IC8,9,A1*%
%TO.N,/A1*%
X111506000Y-56489600D03*
%TO.P,IC8,10,A0*%
%TO.N,/A0*%
X114046000Y-56489600D03*
%TO.P,IC8,11,D0*%
%TO.N,/D0*%
X116586000Y-56489600D03*
%TO.P,IC8,12,D1*%
%TO.N,/D1*%
X119126000Y-56489600D03*
%TO.P,IC8,13,D2*%
%TO.N,/D2*%
X121666000Y-56489600D03*
%TO.P,IC8,14,GND*%
%TO.N,GND*%
X124206000Y-56489600D03*
%TO.P,IC8,15,D3*%
%TO.N,/D3*%
X124206000Y-41249600D03*
%TO.P,IC8,16,D4*%
%TO.N,/D4*%
X121666000Y-41249600D03*
%TO.P,IC8,17,D5*%
%TO.N,/D5*%
X119126000Y-41249600D03*
%TO.P,IC8,18,D6*%
%TO.N,/D6*%
X116586000Y-41249600D03*
%TO.P,IC8,19,D7*%
%TO.N,/D7*%
X114046000Y-41249600D03*
%TO.P,IC8,20,~{CE}*%
%TO.N,Net-(IC4-O3)*%
X111506000Y-41249600D03*
%TO.P,IC8,21,A10*%
%TO.N,/A10*%
X108966000Y-41249600D03*
%TO.P,IC8,22,~{OE}*%
%TO.N,Net-(IC4-O3)*%
X106426000Y-41249600D03*
%TO.P,IC8,23,A11*%
%TO.N,/A11*%
X103886000Y-41249600D03*
%TO.P,IC8,24,A9*%
%TO.N,/A9*%
X101346000Y-41249600D03*
%TO.P,IC8,25,A8*%
%TO.N,/A8*%
X98806000Y-41249600D03*
%TO.P,IC8,26,A13*%
%TO.N,/A13*%
X96266000Y-41249600D03*
%TO.P,IC8,27,A14*%
%TO.N,/A14*%
X93726000Y-41249600D03*
%TO.P,IC8,28,VCC*%
%TO.N,+5V*%
X91186000Y-41249600D03*
%TD*%
D10*
%TO.P,IC11,1,A7*%
%TO.N,/BA7*%
X91033600Y-126644400D03*
D11*
%TO.P,IC11,2,A6*%
%TO.N,/BA6*%
X91033600Y-124104400D03*
%TO.P,IC11,3,A5*%
%TO.N,/BA5*%
X91033600Y-121564400D03*
%TO.P,IC11,4,A4*%
%TO.N,/BA4*%
X91033600Y-119024400D03*
%TO.P,IC11,5,A3*%
%TO.N,/BA3*%
X91033600Y-116484400D03*
%TO.P,IC11,6,A2*%
%TO.N,/BA2*%
X91033600Y-113944400D03*
%TO.P,IC11,7,A1*%
%TO.N,/BA1*%
X91033600Y-111404400D03*
%TO.P,IC11,8,A0*%
%TO.N,/BA0*%
X91033600Y-108864400D03*
%TO.P,IC11,9,Q0*%
%TO.N,/BD0*%
X91033600Y-106324400D03*
%TO.P,IC11,10,Q1*%
%TO.N,/BD1*%
X91033600Y-103784400D03*
%TO.P,IC11,11,Q2*%
%TO.N,/BD2*%
X91033600Y-101244400D03*
%TO.P,IC11,12,GND*%
%TO.N,GND*%
X91033600Y-98704400D03*
%TO.P,IC11,13,Q3*%
%TO.N,/BD3*%
X75793600Y-98704400D03*
%TO.P,IC11,14,Q4*%
%TO.N,/BD4*%
X75793600Y-101244400D03*
%TO.P,IC11,15,Q5*%
%TO.N,/BD5*%
X75793600Y-103784400D03*
%TO.P,IC11,16,Q6*%
%TO.N,/BD6*%
X75793600Y-106324400D03*
%TO.P,IC11,17,Q7*%
%TO.N,/BD7*%
X75793600Y-108864400D03*
%TO.P,IC11,18,~{CS}*%
%TO.N,E400*%
X75793600Y-111404400D03*
%TO.P,IC11,19,A10*%
%TO.N,GND*%
X75793600Y-113944400D03*
%TO.P,IC11,20,~{OE}*%
%TO.N,E400*%
X75793600Y-116484400D03*
%TO.P,IC11,21,~{WR}*%
%TO.N,R{slash}~{W}*%
X75793600Y-119024400D03*
%TO.P,IC11,22,A9*%
%TO.N,/BA9*%
X75793600Y-121564400D03*
%TO.P,IC11,23,A8*%
%TO.N,/BA8*%
X75793600Y-124104400D03*
%TO.P,IC11,24,Vcc*%
%TO.N,+5V*%
X75793600Y-126644400D03*
%TD*%
D10*
%TO.P,IC1,1,OEa*%
%TO.N,Net-(IC1-OEa)*%
X62636400Y-48920400D03*
D11*
%TO.P,IC1,2,I0a*%
%TO.N,/D0*%
X65176400Y-48920400D03*
%TO.P,IC1,3,O3b*%
%TO.N,/BD5*%
X67716400Y-48920400D03*
%TO.P,IC1,4,I1a*%
%TO.N,/D1*%
X70256400Y-48920400D03*
%TO.P,IC1,5,O2b*%
%TO.N,/BD6*%
X72796400Y-48920400D03*
%TO.P,IC1,6,I2a*%
%TO.N,/D3*%
X75336400Y-48920400D03*
%TO.P,IC1,7,O1b*%
%TO.N,/BD7*%
X77876400Y-48920400D03*
%TO.P,IC1,8,I3a*%
%TO.N,/D2*%
X80416400Y-48920400D03*
%TO.P,IC1,9,O0b*%
%TO.N,/BD4*%
X82956400Y-48920400D03*
%TO.P,IC1,10,GND*%
%TO.N,GND*%
X85496400Y-48920400D03*
%TO.P,IC1,11,I0b*%
%TO.N,/D4*%
X85496400Y-41300400D03*
%TO.P,IC1,12,O3a*%
%TO.N,/BD2*%
X82956400Y-41300400D03*
%TO.P,IC1,13,I1b*%
%TO.N,/D7*%
X80416400Y-41300400D03*
%TO.P,IC1,14,O2a*%
%TO.N,/BD3*%
X77876400Y-41300400D03*
%TO.P,IC1,15,I2b*%
%TO.N,/D6*%
X75336400Y-41300400D03*
%TO.P,IC1,16,O1a*%
%TO.N,/BD1*%
X72796400Y-41300400D03*
%TO.P,IC1,17,I3b*%
%TO.N,/D5*%
X70256400Y-41300400D03*
%TO.P,IC1,18,O0a*%
%TO.N,/BD0*%
X67716400Y-41300400D03*
%TO.P,IC1,19,OEb*%
%TO.N,Net-(IC1-OEa)*%
X65176400Y-41300400D03*
%TO.P,IC1,20,VCC*%
%TO.N,+5V*%
X62636400Y-41300400D03*
%TD*%
D10*
%TO.P,IC2,1,OE*%
%TO.N,GND*%
X62636400Y-66700400D03*
D11*
%TO.P,IC2,2,O0*%
%TO.N,/A0*%
X65176400Y-66700400D03*
%TO.P,IC2,3,D0*%
%TO.N,/BD0*%
X67716400Y-66700400D03*
%TO.P,IC2,4,D1*%
%TO.N,/BD1*%
X70256400Y-66700400D03*
%TO.P,IC2,5,O1*%
%TO.N,/A1*%
X72796400Y-66700400D03*
%TO.P,IC2,6,O2*%
%TO.N,/A3*%
X75336400Y-66700400D03*
%TO.P,IC2,7,D2*%
%TO.N,/BD3*%
X77876400Y-66700400D03*
%TO.P,IC2,8,D3*%
%TO.N,/BD2*%
X80416400Y-66700400D03*
%TO.P,IC2,9,O3*%
%TO.N,/A2*%
X82956400Y-66700400D03*
%TO.P,IC2,10,GND*%
%TO.N,GND*%
X85496400Y-66700400D03*
%TO.P,IC2,11,Cp*%
%TO.N,Net-(IC2-Cp)*%
X85496400Y-59080400D03*
%TO.P,IC2,12,O4*%
%TO.N,/A4*%
X82956400Y-59080400D03*
%TO.P,IC2,13,D4*%
%TO.N,/BD4*%
X80416400Y-59080400D03*
%TO.P,IC2,14,D5*%
%TO.N,/BD7*%
X77876400Y-59080400D03*
%TO.P,IC2,15,O5*%
%TO.N,/A7*%
X75336400Y-59080400D03*
%TO.P,IC2,16,O6*%
%TO.N,/A6*%
X72796400Y-59080400D03*
%TO.P,IC2,17,D6*%
%TO.N,/BD6*%
X70256400Y-59080400D03*
%TO.P,IC2,18,D7*%
%TO.N,/BD5*%
X67716400Y-59080400D03*
%TO.P,IC2,19,O7*%
%TO.N,/A5*%
X65176400Y-59080400D03*
%TO.P,IC2,20,VCC*%
%TO.N,+5V*%
X62636400Y-59080400D03*
%TD*%
D12*
%TO.P,P1,a1,GND*%
%TO.N,GND*%
X49885600Y-125120400D03*
D13*
%TO.P,P1,a2,GND*%
X49885600Y-122580400D03*
%TO.P,P1,a3,GND*%
X49885600Y-120040400D03*
%TO.P,P1,a4,-12V*%
%TO.N,unconnected-(P1--12V-Pada4)*%
X49885600Y-117500400D03*
%TO.P,P1,a5,+12V*%
%TO.N,unconnected-(P1-+12V-Pada5)*%
X49885600Y-114960400D03*
%TO.P,P1,a6,---*%
%TO.N,unconnected-(P1-----Pada6)*%
X49885600Y-112420400D03*
%TO.P,P1,a7,----*%
%TO.N,unconnected-(P1------Pada7)*%
X49885600Y-109880400D03*
%TO.P,P1,a8,BA*%
%TO.N,unconnected-(P1-BA-Pada8)*%
X49885600Y-107340400D03*
%TO.P,P1,a9,----*%
%TO.N,unconnected-(P1------Pada9)*%
X49885600Y-104800400D03*
%TO.P,P1,a10,E400*%
%TO.N,E400*%
X49885600Y-102260400D03*
%TO.P,P1,a11,A14*%
%TO.N,/BA14*%
X49885600Y-99720400D03*
%TO.P,P1,a12,A12*%
%TO.N,/BA12*%
X49885600Y-97180400D03*
%TO.P,P1,a13,A10*%
%TO.N,/BA10*%
X49885600Y-94640400D03*
%TO.P,P1,a14,A8*%
%TO.N,/BA8*%
X49885600Y-92100400D03*
%TO.P,P1,a15,A6*%
%TO.N,/BA6*%
X49885600Y-89560400D03*
%TO.P,P1,a16,A4*%
%TO.N,/BA4*%
X49885600Y-87020400D03*
%TO.P,P1,a17,A2*%
%TO.N,/BA2*%
X49885600Y-84480400D03*
%TO.P,P1,a18,A0*%
%TO.N,/BA0*%
X49885600Y-81940400D03*
%TO.P,P1,a19,I/O-Select*%
%TO.N,I{slash}O*%
X49885600Y-79400400D03*
%TO.P,P1,a20,RESET*%
%TO.N,unconnected-(P1-RESET-Pada20)*%
X49885600Y-76860400D03*
%TO.P,P1,a21,IRQ*%
%TO.N,unconnected-(P1-IRQ-Pada21)*%
X49885600Y-74320400D03*
%TO.P,P1,a22,GND*%
%TO.N,GND*%
X49885600Y-71780400D03*
%TO.P,P1,a23,GND*%
X49885600Y-69240400D03*
%TO.P,P1,a24,GND*%
X49885600Y-66700400D03*
%TO.P,P1,a25,GND*%
X49885600Y-64160400D03*
%TO.P,P1,a26,GND*%
X49885600Y-61620400D03*
%TO.P,P1,a27,GND*%
X49885600Y-59080400D03*
%TO.P,P1,a28,GND*%
X49885600Y-56540400D03*
%TO.P,P1,a29,GND*%
X49885600Y-54000400D03*
%TO.P,P1,a30,+5V*%
%TO.N,+5V*%
X49885600Y-51460400D03*
%TO.P,P1,a31,+5V*%
X49885600Y-48920400D03*
%TO.P,P1,a32,+5V*%
X49885600Y-46380400D03*
%TO.P,P1,c1,GNC*%
%TO.N,GND*%
X54965600Y-125120400D03*
%TO.P,P1,c2,GND*%
X54965600Y-122580400D03*
%TO.P,P1,c3,GND*%
X54965600Y-120040400D03*
%TO.P,P1,c4,-12V*%
%TO.N,unconnected-(P1--12V-Padc4)*%
X54965600Y-117500400D03*
%TO.P,P1,c5,+12V*%
%TO.N,unconnected-(P1-+12V-Padc5)*%
X54965600Y-114960400D03*
%TO.P,P1,c6,EXT-RESET*%
%TO.N,unconnected-(P1-EXT-RESET-Padc6)*%
X54965600Y-112420400D03*
%TO.P,P1,c7,----*%
%TO.N,unconnected-(P1------Padc7)*%
X54965600Y-109880400D03*
%TO.P,P1,c8,HALT*%
%TO.N,unconnected-(P1-HALT-Padc8)*%
X54965600Y-107340400D03*
%TO.P,P1,c9,----*%
%TO.N,unconnected-(P1------Padc9)*%
X54965600Y-104800400D03*
%TO.P,P1,c10,E800*%
%TO.N,unconnected-(P1-E800-Padc10)*%
X54965600Y-102260400D03*
%TO.P,P1,c11,A15*%
%TO.N,/BA15*%
X54965600Y-99720400D03*
%TO.P,P1,c12,A13*%
%TO.N,/BA13*%
X54965600Y-97180400D03*
%TO.P,P1,c13,A11*%
%TO.N,/BA11*%
X54965600Y-94640400D03*
%TO.P,P1,c14,A9*%
%TO.N,/BA9*%
X54965600Y-92100400D03*
%TO.P,P1,c15,A7*%
%TO.N,/BA7*%
X54965600Y-89560400D03*
%TO.P,P1,c16,A5*%
%TO.N,/BA5*%
X54965600Y-87020400D03*
%TO.P,P1,c17,A3*%
%TO.N,/BA3*%
X54965600Y-84480400D03*
%TO.P,P1,c18,A1*%
%TO.N,/BA1*%
X54965600Y-81940400D03*
%TO.P,P1,c19,R/W*%
%TO.N,R{slash}~{W}*%
X54965600Y-79400400D03*
%TO.P,P1,c20,E*%
%TO.N,E*%
X54965600Y-76860400D03*
%TO.P,P1,c21,GND*%
%TO.N,GND*%
X54965600Y-74320400D03*
%TO.P,P1,c22,D0*%
%TO.N,/BD0*%
X54965600Y-71780400D03*
%TO.P,P1,c23,D1*%
%TO.N,/BD1*%
X54965600Y-69240400D03*
%TO.P,P1,c24,D2*%
%TO.N,/BD2*%
X54965600Y-66700400D03*
%TO.P,P1,c25,D3*%
%TO.N,/BD3*%
X54965600Y-64160400D03*
%TO.P,P1,c26,D4*%
%TO.N,/BD4*%
X54965600Y-61620400D03*
%TO.P,P1,c27,D5*%
%TO.N,/BD5*%
X54965600Y-59080400D03*
%TO.P,P1,c28,D6*%
%TO.N,/BD6*%
X54965600Y-56540400D03*
%TO.P,P1,c29,D7*%
%TO.N,/BD7*%
X54965600Y-54000400D03*
%TO.P,P1,c30,+5V*%
%TO.N,+5V*%
X54965600Y-51460400D03*
%TO.P,P1,c31,+5V*%
X54965600Y-48920400D03*
%TO.P,P1,c32,+5V*%
X54965600Y-46380400D03*
%TD*%
D10*
%TO.P,IC7,1*%
%TO.N,+5V*%
X110591600Y-108859400D03*
D11*
%TO.P,IC7,2*%
%TO.N,Net-(IC4-O3)*%
X110591600Y-111399400D03*
%TO.P,IC7,3*%
%TO.N,N/C*%
X110591600Y-113939400D03*
%TO.P,IC7,4*%
%TO.N,Net-(IC4-O4)*%
X110591600Y-116479400D03*
%TO.P,IC7,5*%
%TO.N,Net-(IC10-~{CE})*%
X110591600Y-119019400D03*
%TO.P,IC7,6*%
%TO.N,Net-(IC6-E2)*%
X110591600Y-121559400D03*
%TO.P,IC7,7,GND*%
%TO.N,GND*%
X110591600Y-124099400D03*
%TO.P,IC7,8*%
%TO.N,unconnected-(IC7-Pad8)*%
X118211600Y-124099400D03*
%TO.P,IC7,9*%
%TO.N,GND*%
X118211600Y-121559400D03*
%TO.P,IC7,10*%
X118211600Y-119019400D03*
%TO.P,IC7,11*%
%TO.N,N/C*%
X118211600Y-116479400D03*
%TO.P,IC7,12*%
%TO.N,GND*%
X118211600Y-113939400D03*
%TO.P,IC7,13*%
X118211600Y-111399400D03*
%TO.P,IC7,14,VCC*%
%TO.N,+5V*%
X118211600Y-108859400D03*
%TD*%
D10*
%TO.P,IC10,1,A15*%
%TO.N,/A15*%
X91186000Y-93903800D03*
D11*
%TO.P,IC10,2,A12*%
%TO.N,/A12*%
X93726000Y-93903800D03*
%TO.P,IC10,3,A7*%
%TO.N,/A7*%
X96266000Y-93903800D03*
%TO.P,IC10,4,A6*%
%TO.N,/A6*%
X98806000Y-93903800D03*
%TO.P,IC10,5,A5*%
%TO.N,/A5*%
X101346000Y-93903800D03*
%TO.P,IC10,6,A4*%
%TO.N,/A4*%
X103886000Y-93903800D03*
%TO.P,IC10,7,A3*%
%TO.N,/A3*%
X106426000Y-93903800D03*
%TO.P,IC10,8,A2*%
%TO.N,/A2*%
X108966000Y-93903800D03*
%TO.P,IC10,9,A1*%
%TO.N,/A1*%
X111506000Y-93903800D03*
%TO.P,IC10,10,A0*%
%TO.N,/A0*%
X114046000Y-93903800D03*
%TO.P,IC10,11,D0*%
%TO.N,/D0*%
X116586000Y-93903800D03*
%TO.P,IC10,12,D1*%
%TO.N,/D1*%
X119126000Y-93903800D03*
%TO.P,IC10,13,D2*%
%TO.N,/D2*%
X121666000Y-93903800D03*
%TO.P,IC10,14,GND*%
%TO.N,GND*%
X124206000Y-93903800D03*
%TO.P,IC10,15,D3*%
%TO.N,/D3*%
X124206000Y-78663800D03*
%TO.P,IC10,16,D4*%
%TO.N,/D4*%
X121666000Y-78663800D03*
%TO.P,IC10,17,D5*%
%TO.N,/D5*%
X119126000Y-78663800D03*
%TO.P,IC10,18,D6*%
%TO.N,/D6*%
X116586000Y-78663800D03*
%TO.P,IC10,19,D7*%
%TO.N,/D7*%
X114046000Y-78663800D03*
%TO.P,IC10,20,~{CE}*%
%TO.N,Net-(IC10-~{CE})*%
X111506000Y-78663800D03*
%TO.P,IC10,21,A10*%
%TO.N,/A10*%
X108966000Y-78663800D03*
%TO.P,IC10,22,~{OE}*%
%TO.N,Net-(IC10-~{CE})*%
X106426000Y-78663800D03*
%TO.P,IC10,23,A11*%
%TO.N,/A11*%
X103886000Y-78663800D03*
%TO.P,IC10,24,A9*%
%TO.N,/A9*%
X101346000Y-78663800D03*
%TO.P,IC10,25,A8*%
%TO.N,/A8*%
X98806000Y-78663800D03*
%TO.P,IC10,26,A13*%
%TO.N,/A13*%
X96266000Y-78663800D03*
%TO.P,IC10,27,A14*%
%TO.N,/A14*%
X93726000Y-78663800D03*
%TO.P,IC10,28,VCC*%
%TO.N,+5V*%
X91186000Y-78663800D03*
%TD*%
D10*
%TO.P,IC3,1,OE*%
%TO.N,GND*%
X62636400Y-81940400D03*
D11*
%TO.P,IC3,2,O0*%
%TO.N,/A8*%
X65176400Y-81940400D03*
%TO.P,IC3,3,D0*%
%TO.N,/BD0*%
X67716400Y-81940400D03*
%TO.P,IC3,4,D1*%
%TO.N,/BD1*%
X70256400Y-81940400D03*
%TO.P,IC3,5,O1*%
%TO.N,/A9*%
X72796400Y-81940400D03*
%TO.P,IC3,6,O2*%
%TO.N,/A11*%
X75336400Y-81940400D03*
%TO.P,IC3,7,D2*%
%TO.N,/BD3*%
X77876400Y-81940400D03*
%TO.P,IC3,8,D3*%
%TO.N,/BD2*%
X80416400Y-81940400D03*
%TO.P,IC3,9,O3*%
%TO.N,/A10*%
X82956400Y-81940400D03*
%TO.P,IC3,10,GND*%
%TO.N,GND*%
X85496400Y-81940400D03*
%TO.P,IC3,11,Cp*%
%TO.N,Net-(IC3-Cp)*%
X85496400Y-74320400D03*
%TO.P,IC3,12,O4*%
%TO.N,/A12*%
X82956400Y-74320400D03*
%TO.P,IC3,13,D4*%
%TO.N,/BD4*%
X80416400Y-74320400D03*
%TO.P,IC3,14,D5*%
%TO.N,/BD7*%
X77876400Y-74320400D03*
%TO.P,IC3,15,O5*%
%TO.N,/A15*%
X75336400Y-74320400D03*
%TO.P,IC3,16,O6*%
%TO.N,/A14*%
X72796400Y-74320400D03*
%TO.P,IC3,17,D6*%
%TO.N,/BD6*%
X70256400Y-74320400D03*
%TO.P,IC3,18,D7*%
%TO.N,/BD5*%
X67716400Y-74320400D03*
%TO.P,IC3,19,O7*%
%TO.N,/A13*%
X65176400Y-74320400D03*
%TO.P,IC3,20,VCC*%
%TO.N,+5V*%
X62636400Y-74320400D03*
%TD*%
D10*
%TO.P,IC9,1,A15*%
%TO.N,/A15*%
X91186000Y-75184000D03*
D11*
%TO.P,IC9,2,A12*%
%TO.N,/A12*%
X93726000Y-75184000D03*
%TO.P,IC9,3,A7*%
%TO.N,/A7*%
X96266000Y-75184000D03*
%TO.P,IC9,4,A6*%
%TO.N,/A6*%
X98806000Y-75184000D03*
%TO.P,IC9,5,A5*%
%TO.N,/A5*%
X101346000Y-75184000D03*
%TO.P,IC9,6,A4*%
%TO.N,/A4*%
X103886000Y-75184000D03*
%TO.P,IC9,7,A3*%
%TO.N,/A3*%
X106426000Y-75184000D03*
%TO.P,IC9,8,A2*%
%TO.N,/A2*%
X108966000Y-75184000D03*
%TO.P,IC9,9,A1*%
%TO.N,/A1*%
X111506000Y-75184000D03*
%TO.P,IC9,10,A0*%
%TO.N,/A0*%
X114046000Y-75184000D03*
%TO.P,IC9,11,D0*%
%TO.N,/D0*%
X116586000Y-75184000D03*
%TO.P,IC9,12,D1*%
%TO.N,/D1*%
X119126000Y-75184000D03*
%TO.P,IC9,13,D2*%
%TO.N,/D2*%
X121666000Y-75184000D03*
%TO.P,IC9,14,GND*%
%TO.N,GND*%
X124206000Y-75184000D03*
%TO.P,IC9,15,D3*%
%TO.N,/D3*%
X124206000Y-59944000D03*
%TO.P,IC9,16,D4*%
%TO.N,/D4*%
X121666000Y-59944000D03*
%TO.P,IC9,17,D5*%
%TO.N,/D5*%
X119126000Y-59944000D03*
%TO.P,IC9,18,D6*%
%TO.N,/D6*%
X116586000Y-59944000D03*
%TO.P,IC9,19,D7*%
%TO.N,/D7*%
X114046000Y-59944000D03*
%TO.P,IC9,20,~{CE}*%
%TO.N,Net-(IC4-O4)*%
X111506000Y-59944000D03*
%TO.P,IC9,21,A10*%
%TO.N,/A10*%
X108966000Y-59944000D03*
%TO.P,IC9,22,~{OE}*%
%TO.N,Net-(IC4-O4)*%
X106426000Y-59944000D03*
%TO.P,IC9,23,A11*%
%TO.N,/A11*%
X103886000Y-59944000D03*
%TO.P,IC9,24,A9*%
%TO.N,/A9*%
X101346000Y-59944000D03*
%TO.P,IC9,25,A8*%
%TO.N,/A8*%
X98806000Y-59944000D03*
%TO.P,IC9,26,A13*%
%TO.N,/A13*%
X96266000Y-59944000D03*
%TO.P,IC9,27,A14*%
%TO.N,/A14*%
X93726000Y-59944000D03*
%TO.P,IC9,28,VCC*%
%TO.N,+5V*%
X91186000Y-59944000D03*
%TD*%
D10*
%TO.P,IC6,1,A0*%
%TO.N,/BA0*%
X62534800Y-93218000D03*
D11*
%TO.P,IC6,2,A1*%
%TO.N,R{slash}~{W}*%
X65074800Y-93218000D03*
%TO.P,IC6,3,A2*%
%TO.N,GND*%
X67614800Y-93218000D03*
%TO.P,IC6,4,E1*%
X70154800Y-93218000D03*
%TO.P,IC6,5,E2*%
%TO.N,Net-(IC6-E2)*%
X72694800Y-93218000D03*
%TO.P,IC6,6,E3*%
%TO.N,E*%
X75234800Y-93218000D03*
%TO.P,IC6,7,O7*%
%TO.N,unconnected-(IC6-O7-Pad7)*%
X77774800Y-93218000D03*
%TO.P,IC6,8,GND*%
%TO.N,GND*%
X80314800Y-93218000D03*
%TO.P,IC6,9,O6*%
%TO.N,unconnected-(IC6-O6-Pad9)*%
X80314800Y-85598000D03*
%TO.P,IC6,10,O5*%
%TO.N,unconnected-(IC6-O5-Pad10)*%
X77774800Y-85598000D03*
%TO.P,IC6,11,O4*%
%TO.N,unconnected-(IC6-O4-Pad11)*%
X75234800Y-85598000D03*
%TO.P,IC6,12,O3*%
%TO.N,unconnected-(IC6-O3-Pad12)*%
X72694800Y-85598000D03*
%TO.P,IC6,13,O2*%
%TO.N,Net-(IC1-OEa)*%
X70154800Y-85598000D03*
%TO.P,IC6,14,O1*%
%TO.N,Net-(IC2-Cp)*%
X67614800Y-85598000D03*
%TO.P,IC6,15,O0*%
%TO.N,Net-(IC3-Cp)*%
X65074800Y-85598000D03*
%TO.P,IC6,16,VCC*%
%TO.N,+5V*%
X62534800Y-85598000D03*
%TD*%
D10*
%TO.P,IC4,1,A0*%
%TO.N,/BA4*%
X97891600Y-108864400D03*
D11*
%TO.P,IC4,2,A1*%
%TO.N,/BA5*%
X97891600Y-111404400D03*
%TO.P,IC4,3,A2*%
%TO.N,/BA6*%
X97891600Y-113944400D03*
%TO.P,IC4,4,E1*%
%TO.N,I{slash}O*%
X97891600Y-116484400D03*
%TO.P,IC4,5,E2*%
%TO.N,GND*%
X97891600Y-119024400D03*
%TO.P,IC4,6,E3*%
%TO.N,/BA7*%
X97891600Y-121564400D03*
%TO.P,IC4,7,O7*%
%TO.N,unconnected-(IC4-O7-Pad7)*%
X97891600Y-124104400D03*
%TO.P,IC4,8,GND*%
%TO.N,GND*%
X97891600Y-126644400D03*
%TO.P,IC4,9,O6*%
%TO.N,unconnected-(IC4-O6-Pad9)*%
X105511600Y-126644400D03*
%TO.P,IC4,10,O5*%
%TO.N,Net-(IC10-~{CE})*%
X105511600Y-124104400D03*
%TO.P,IC4,11,O4*%
%TO.N,Net-(IC4-O4)*%
X105511600Y-121564400D03*
%TO.P,IC4,12,O3*%
%TO.N,Net-(IC4-O3)*%
X105511600Y-119024400D03*
%TO.P,IC4,13,O2*%
%TO.N,unconnected-(IC4-O2-Pad13)*%
X105511600Y-116484400D03*
%TO.P,IC4,14,O1*%
%TO.N,unconnected-(IC4-O1-Pad14)*%
X105511600Y-113944400D03*
%TO.P,IC4,15,O0*%
%TO.N,unconnected-(IC4-O0-Pad15)*%
X105511600Y-111404400D03*
%TO.P,IC4,16,VCC*%
%TO.N,+5V*%
X105511600Y-108864400D03*
%TD*%
D14*
%TO.N,Net-(IC1-OEa)*%
X57454800Y-52730400D03*
X56794400Y-75438000D03*
%TO.N,/BD5*%
X73964800Y-76301600D03*
X67716400Y-76301600D03*
%TO.N,/D3*%
X122936000Y-50139600D03*
%TO.N,/BD7*%
X81330800Y-98501200D03*
X77825600Y-98501200D03*
X77876400Y-52476400D03*
%TO.N,GND*%
X79806800Y-113944400D03*
%TO.N,/D4*%
X121666000Y-42926000D03*
%TO.N,/BD2*%
X84175600Y-94589600D03*
X81686400Y-56286400D03*
%TO.N,/D7*%
X112776000Y-44246800D03*
%TO.N,/BD1*%
X74066400Y-63754000D03*
X83159600Y-94589600D03*
X70256400Y-78130400D03*
%TO.N,/D5*%
X117856000Y-47752000D03*
%TO.N,/BD0*%
X66344800Y-96367600D03*
X58775600Y-71780400D03*
X67716400Y-78333600D03*
%TO.N,/A0*%
X115316000Y-71577200D03*
%TO.N,/A1*%
X112776000Y-69697600D03*
%TO.N,/A3*%
X107696000Y-68275200D03*
%TO.N,/A2*%
X110236000Y-65125600D03*
%TO.N,Net-(IC2-Cp)*%
X66446400Y-76250800D03*
X84226400Y-70053200D03*
%TO.N,/A4*%
X105156000Y-61722000D03*
%TO.N,/A12*%
X94996000Y-71983600D03*
%TO.N,/A15*%
X92456000Y-71170800D03*
%TO.N,/A14*%
X93726000Y-71018400D03*
%TO.N,/A13*%
X96266000Y-72948800D03*
%TO.N,Net-(IC4-O3)*%
X108153200Y-111404400D03*
X108762800Y-101955600D03*
%TO.N,/D6*%
X115316000Y-45720000D03*
%TO.N,I{slash}O*%
X61010800Y-116230400D03*
X81635600Y-117754400D03*
%TO.N,R{slash}~{W}*%
X52324000Y-108610400D03*
%TO.N,/BA5*%
X58267600Y-111150400D03*
%TO.N,/BA1*%
X70408800Y-102514400D03*
%TD*%
D15*
%TO.N,Net-(IC1-OEa)*%
X70104000Y-86817200D02*
X70104000Y-86918800D01*
X62636400Y-48920400D02*
X58420000Y-48920400D01*
X56794400Y-76149200D02*
X56794400Y-75438000D01*
X70154800Y-85598000D02*
X70154800Y-86817200D01*
X60909200Y-78486000D02*
X59893200Y-77470000D01*
X59893200Y-77470000D02*
X58115200Y-77470000D01*
X63804800Y-86563200D02*
X63804800Y-84531200D01*
X64516000Y-87274400D02*
X63804800Y-86563200D01*
X62636400Y-47142400D02*
X65176400Y-44602400D01*
X69748400Y-87274400D02*
X64516000Y-87274400D01*
X58420000Y-48920400D02*
X57454800Y-49885600D01*
X62636400Y-48920400D02*
X62636400Y-47142400D01*
X70154800Y-86817200D02*
X70104000Y-86817200D01*
X61562400Y-83769200D02*
X60909200Y-83116000D01*
X63042800Y-83769200D02*
X61562400Y-83769200D01*
X57454800Y-49885600D02*
X57454800Y-52730400D01*
X63804800Y-84531200D02*
X63042800Y-83769200D01*
X65176400Y-44602400D02*
X65176400Y-41300400D01*
X58115200Y-77470000D02*
X56794400Y-76149200D01*
X60909200Y-83116000D02*
X60909200Y-78486000D01*
X70104000Y-86918800D02*
X69748400Y-87274400D01*
%TO.N,/D0*%
X65176400Y-48920400D02*
X65176400Y-50546000D01*
X66192400Y-51562000D02*
X114858800Y-51562000D01*
X65176400Y-50546000D02*
X66192400Y-51562000D01*
X114858800Y-51562000D02*
X116586000Y-53289200D01*
X116586000Y-53289200D02*
X116586000Y-56489600D01*
%TO.N,/BD5*%
X66446400Y-39878000D02*
X66446400Y-47650400D01*
X56794400Y-59080400D02*
X57454800Y-58420000D01*
X58775600Y-61061600D02*
X67106800Y-61061600D01*
X56845200Y-55270400D02*
X53492400Y-55270400D01*
X65532000Y-38963600D02*
X66446400Y-39878000D01*
X57454800Y-58420000D02*
X57454800Y-55880000D01*
X73964800Y-76301600D02*
X67716400Y-76301600D01*
X54203600Y-38963600D02*
X65532000Y-38963600D01*
X67716400Y-60452000D02*
X67716400Y-59080400D01*
X53492400Y-55270400D02*
X52730400Y-54508400D01*
X52730400Y-40436800D02*
X54203600Y-38963600D01*
X54965600Y-59080400D02*
X56794400Y-59080400D01*
X66446400Y-47650400D02*
X67716400Y-48920400D01*
X67106800Y-61061600D02*
X67716400Y-60452000D01*
X52730400Y-54508400D02*
X52730400Y-40436800D01*
X56794400Y-59080400D02*
X58775600Y-61061600D01*
X57454800Y-55880000D02*
X56845200Y-55270400D01*
%TO.N,/D1*%
X118110000Y-51104800D02*
X119126000Y-52120800D01*
X70256400Y-50342800D02*
X71018400Y-51104800D01*
X70256400Y-48920400D02*
X70256400Y-50342800D01*
X71018400Y-51104800D02*
X118110000Y-51104800D01*
X119126000Y-52120800D02*
X119126000Y-56489600D01*
%TO.N,/BD6*%
X70256400Y-59080400D02*
X70256400Y-59639200D01*
X68384000Y-61511600D02*
X57650800Y-61511600D01*
X70256400Y-59639200D02*
X68384000Y-61511600D01*
X70205600Y-59029600D02*
X70256400Y-59080400D01*
X52933600Y-59690000D02*
X52933600Y-57048400D01*
X56489600Y-60350400D02*
X53594000Y-60350400D01*
X57650800Y-61511600D02*
X56489600Y-60350400D01*
X52933600Y-57048400D02*
X53441600Y-56540400D01*
X53441600Y-56540400D02*
X54965600Y-56540400D01*
X53594000Y-60350400D02*
X52933600Y-59690000D01*
%TO.N,/D3*%
X75336400Y-47244000D02*
X75895200Y-46685200D01*
X75895200Y-46685200D02*
X93624400Y-46685200D01*
X97078800Y-50139600D02*
X95141200Y-48202000D01*
X75336400Y-48920400D02*
X75336400Y-47244000D01*
X93624400Y-46685200D02*
X94919800Y-47980600D01*
X94919800Y-47980600D02*
X95141200Y-48202000D01*
X122936000Y-50139600D02*
X97078800Y-50139600D01*
X94919800Y-47980600D02*
X95199200Y-48260000D01*
%TO.N,/BD7*%
X64312800Y-54000400D02*
X65836800Y-52476400D01*
X65836800Y-52476400D02*
X77876400Y-52476400D01*
X54965600Y-54000400D02*
X64312800Y-54000400D01*
X77825600Y-98501200D02*
X81330800Y-98501200D01*
%TO.N,/D2*%
X93438004Y-47135200D02*
X81229200Y-47135200D01*
X80772000Y-47585200D02*
X80416400Y-47940800D01*
X96957604Y-50654800D02*
X93438004Y-47135200D01*
X80416400Y-47940800D02*
X80416400Y-48920400D01*
X80779200Y-47585200D02*
X80772000Y-47585200D01*
X121666000Y-51917600D02*
X120403200Y-50654800D01*
X81229200Y-47135200D02*
X80779200Y-47585200D01*
X120403200Y-50654800D02*
X96957604Y-50654800D01*
X121666000Y-56489600D02*
X121666000Y-51917600D01*
%TO.N,/BD4*%
X69443600Y-61874400D02*
X70764400Y-60553600D01*
X80416400Y-60248800D02*
X80111600Y-60553600D01*
X70764400Y-60553600D02*
X80111600Y-60553600D01*
X80416400Y-59080400D02*
X80416400Y-60248800D01*
X69443600Y-61961600D02*
X69443600Y-61874400D01*
X69443600Y-61961600D02*
X55306800Y-61961600D01*
X55306800Y-61961600D02*
X54965600Y-61620400D01*
%TO.N,GND*%
X73964800Y-92100400D02*
X73964800Y-94589600D01*
X70459600Y-91643200D02*
X73507600Y-91643200D01*
X70154800Y-91948000D02*
X70459600Y-91643200D01*
D16*
X57658000Y-74320400D02*
X58775600Y-74320400D01*
D15*
X79756000Y-94996000D02*
X80213200Y-94538800D01*
D16*
X110591600Y-131064000D02*
X110591600Y-128422400D01*
X54965600Y-128371600D02*
X54965600Y-125120400D01*
X100888800Y-117094000D02*
X100939600Y-117043200D01*
X97942400Y-126593600D02*
X97891600Y-126644400D01*
X96520000Y-98653600D02*
X100939600Y-103073200D01*
X71272400Y-128371600D02*
X71272400Y-131064000D01*
X58775600Y-66700400D02*
X62636400Y-66700400D01*
X58775600Y-74320400D02*
X62636400Y-78181200D01*
D15*
X80213200Y-94538800D02*
X80213200Y-93319600D01*
X73507600Y-91643200D02*
X73964800Y-92100400D01*
D16*
X100888800Y-119024400D02*
X100888800Y-117094000D01*
X97891600Y-119024400D02*
X100888800Y-119024400D01*
X124256800Y-108712000D02*
X124256800Y-131064000D01*
X62636400Y-78181200D02*
X62636400Y-81940400D01*
X124206000Y-93903800D02*
X124206000Y-108661200D01*
D15*
X75793600Y-113944400D02*
X79806800Y-113944400D01*
X110591600Y-124099400D02*
X114498200Y-124099400D01*
X67614800Y-93218000D02*
X70154800Y-93218000D01*
D16*
X110591600Y-131064000D02*
X124256800Y-131064000D01*
X100939600Y-131064000D02*
X110591600Y-131064000D01*
X124256800Y-108712000D02*
X124206000Y-108661200D01*
D15*
X70154800Y-93218000D02*
X70154800Y-91948000D01*
D16*
X54965600Y-128371600D02*
X71272400Y-128371600D01*
X91033600Y-98653600D02*
X96520000Y-98653600D01*
X57658000Y-66700400D02*
X57658000Y-74320400D01*
X100888800Y-126593600D02*
X100888800Y-131013200D01*
X57658000Y-74320400D02*
X54965600Y-74320400D01*
D15*
X114498200Y-121569400D02*
X118201600Y-121569400D01*
D16*
X100939600Y-103073200D02*
X100939600Y-117043200D01*
D15*
X74371200Y-94996000D02*
X79756000Y-94996000D01*
D16*
X80213200Y-93319600D02*
X80314800Y-93218000D01*
X100888800Y-126593600D02*
X97942400Y-126593600D01*
X100888800Y-131013200D02*
X100939600Y-131064000D01*
X58775600Y-66700400D02*
X57658000Y-66700400D01*
X100939600Y-131064000D02*
X71272400Y-131064000D01*
X100888800Y-119024400D02*
X100888800Y-126593600D01*
D15*
X114498200Y-124099400D02*
X114498200Y-121569400D01*
D16*
X110591600Y-128422400D02*
X110591600Y-124104400D01*
D15*
X73964800Y-94589600D02*
X74371200Y-94996000D01*
%TO.N,/D4*%
X86207600Y-42926000D02*
X121666000Y-42926000D01*
X85496400Y-41300400D02*
X85496400Y-42214800D01*
X85496400Y-42214800D02*
X86207600Y-42926000D01*
%TO.N,/BD2*%
X80416400Y-65176400D02*
X80416400Y-66700400D01*
X81686400Y-56286400D02*
X81686400Y-62179200D01*
X53238400Y-63093600D02*
X53238400Y-66040000D01*
X84175600Y-85699600D02*
X84175600Y-94589600D01*
X69646800Y-62433200D02*
X56743600Y-62433200D01*
X53898800Y-66700400D02*
X54965600Y-66700400D01*
X53238400Y-66040000D02*
X53898800Y-66700400D01*
X81686400Y-63906400D02*
X80416400Y-65176400D01*
X81686400Y-62179200D02*
X69900800Y-62179200D01*
X56286400Y-62890400D02*
X53441600Y-62890400D01*
X56743600Y-62433200D02*
X56286400Y-62890400D01*
X69900800Y-62179200D02*
X69646800Y-62433200D01*
X81686400Y-62179200D02*
X81686400Y-63906400D01*
X53441600Y-62890400D02*
X53238400Y-63093600D01*
X80416400Y-81940400D02*
X84175600Y-85699600D01*
%TO.N,/D7*%
X95961200Y-44246800D02*
X112776000Y-44246800D01*
X94894400Y-45313600D02*
X95961200Y-44246800D01*
X80416400Y-44856400D02*
X80873600Y-45313600D01*
X80873600Y-45313600D02*
X94894400Y-45313600D01*
X80416400Y-41300400D02*
X80416400Y-44856400D01*
%TO.N,/BD3*%
X57200800Y-62883200D02*
X75888000Y-62883200D01*
X75888000Y-62883200D02*
X77876400Y-64871600D01*
X77876400Y-64871600D02*
X77876400Y-66700400D01*
X54965600Y-64160400D02*
X55923600Y-64160400D01*
X55923600Y-64160400D02*
X57200800Y-62883200D01*
%TO.N,/BD1*%
X70256400Y-78130400D02*
X69690400Y-77564400D01*
X56642000Y-64668400D02*
X56642000Y-68935600D01*
X64813600Y-77564400D02*
X63906400Y-76657200D01*
X63906400Y-76657200D02*
X63906400Y-73406000D01*
X69690400Y-77564400D02*
X64813600Y-77564400D01*
X56642000Y-68935600D02*
X56337200Y-69240400D01*
X64566800Y-72745600D02*
X65786000Y-72745600D01*
X65786000Y-72745600D02*
X70256400Y-68275200D01*
X81405604Y-83566000D02*
X71882000Y-83566000D01*
X57556400Y-63754000D02*
X56642000Y-64668400D01*
X56337200Y-69240400D02*
X54965600Y-69240400D01*
X71882000Y-83566000D02*
X70256400Y-81940400D01*
X63906400Y-73406000D02*
X64566800Y-72745600D01*
X70256400Y-68275200D02*
X70256400Y-66700400D01*
X83159600Y-94589600D02*
X83159600Y-85319996D01*
X74066400Y-63754000D02*
X57556400Y-63754000D01*
X83159600Y-85319996D02*
X81405604Y-83566000D01*
%TO.N,/D5*%
X71628000Y-46228000D02*
X93878400Y-46228000D01*
X95402400Y-47752000D02*
X117805200Y-47752000D01*
X70256400Y-41300400D02*
X70256400Y-44856400D01*
X93878400Y-46228000D02*
X95402400Y-47752000D01*
X70256400Y-44856400D02*
X71628000Y-46228000D01*
%TO.N,/BD0*%
X58775600Y-71780400D02*
X60045600Y-71780400D01*
X64414400Y-78333600D02*
X60045600Y-73964800D01*
X67716400Y-69646800D02*
X67716400Y-66700400D01*
X88798400Y-103632000D02*
X81534000Y-96367600D01*
X89560400Y-106324400D02*
X88798400Y-105562400D01*
X91033600Y-106324400D02*
X89560400Y-106324400D01*
X60045600Y-71780400D02*
X65582800Y-71780400D01*
X60045600Y-73964800D02*
X60045600Y-71780400D01*
X65582800Y-71780400D02*
X67716400Y-69646800D01*
X67716400Y-78333600D02*
X64414400Y-78333600D01*
X88798400Y-105562400D02*
X88798400Y-103632000D01*
X81534000Y-96367600D02*
X66344800Y-96367600D01*
%TO.N,/A0*%
X70916800Y-65024000D02*
X71526400Y-65633600D01*
X105105200Y-69189600D02*
X107492800Y-71577200D01*
X73304400Y-69189600D02*
X105105200Y-69189600D01*
X71526400Y-67411600D02*
X73304400Y-69189600D01*
X107492800Y-71577200D02*
X115316000Y-71577200D01*
X66192400Y-65024000D02*
X70916800Y-65024000D01*
X65176400Y-66040000D02*
X66192400Y-65024000D01*
X65176400Y-66700400D02*
X65176400Y-66040000D01*
X71526400Y-65633600D02*
X71526400Y-67411600D01*
%TO.N,/A1*%
X106324400Y-69697600D02*
X112776000Y-69697600D01*
X74821200Y-68725200D02*
X105352000Y-68725200D01*
X72796400Y-66700400D02*
X74821200Y-68725200D01*
X105352000Y-68725200D02*
X106324400Y-69697600D01*
%TO.N,/A3*%
X75336400Y-66700400D02*
X75336400Y-67513200D01*
X75336400Y-67513200D02*
X76098400Y-68275200D01*
X76098400Y-68275200D02*
X107696000Y-68275200D01*
%TO.N,/A2*%
X83667600Y-65125600D02*
X110236000Y-65125600D01*
X82956400Y-66700400D02*
X82956400Y-65836800D01*
X82956400Y-65836800D02*
X83667600Y-65125600D01*
%TO.N,Net-(IC2-Cp)*%
X69646800Y-70053200D02*
X66446400Y-73253600D01*
X66446400Y-73253600D02*
X66446400Y-76200000D01*
X84226400Y-70053200D02*
X69646800Y-70053200D01*
%TO.N,/A4*%
X82956400Y-59080400D02*
X82956400Y-60502800D01*
X84175600Y-61722000D02*
X105156000Y-61722000D01*
X82956400Y-60502800D02*
X84175600Y-61722000D01*
%TO.N,/A7*%
X95758000Y-54559200D02*
X96266000Y-55067200D01*
X75336400Y-56032400D02*
X76809600Y-54559200D01*
X76809600Y-54559200D02*
X95758000Y-54559200D01*
X96266000Y-55067200D02*
X96266000Y-56489600D01*
X75336400Y-59080400D02*
X75336400Y-56032400D01*
%TO.N,/A6*%
X72796400Y-59080400D02*
X72796400Y-56083200D01*
X72796400Y-56083200D02*
X74777600Y-54102000D01*
X74777600Y-54102000D02*
X98247200Y-54102000D01*
X98806000Y-54660800D02*
X98806000Y-56489600D01*
X98247200Y-54102000D02*
X98806000Y-54660800D01*
%TO.N,/A5*%
X101346000Y-54406800D02*
X101346000Y-56489600D01*
X100584000Y-53644800D02*
X101346000Y-54406800D01*
X67564000Y-53644800D02*
X100584000Y-53644800D01*
X65176400Y-59080400D02*
X65176400Y-56032400D01*
X65176400Y-56032400D02*
X67564000Y-53644800D01*
%TO.N,/A8*%
X89722792Y-85307600D02*
X98232800Y-85307600D01*
X65176400Y-81940400D02*
X65176400Y-80721200D01*
X98806000Y-84734400D02*
X98806000Y-78663800D01*
X88631600Y-81621200D02*
X88631600Y-84216408D01*
X86614000Y-79603600D02*
X88631600Y-81621200D01*
X65176400Y-80721200D02*
X66294000Y-79603600D01*
X66294000Y-79603600D02*
X86614000Y-79603600D01*
X88631600Y-84216408D02*
X89722792Y-85307600D01*
X98232800Y-85307600D02*
X98806000Y-84734400D01*
%TO.N,/A9*%
X72796400Y-81940400D02*
X72796400Y-81127600D01*
X89536396Y-85757600D02*
X100830800Y-85757600D01*
X73856000Y-80068000D02*
X86418000Y-80068000D01*
X72796400Y-81127600D02*
X73856000Y-80068000D01*
X86418000Y-80068000D02*
X88181600Y-81831600D01*
X88181600Y-81831600D02*
X88181600Y-84402804D01*
X101346000Y-85242400D02*
X101346000Y-78663800D01*
X88181600Y-84402804D02*
X89536396Y-85757600D01*
X100830800Y-85757600D02*
X101346000Y-85242400D01*
%TO.N,/A11*%
X89350000Y-86207600D02*
X103124000Y-86207600D01*
X87731600Y-82042000D02*
X87731600Y-84589200D01*
X76403200Y-80518000D02*
X86207600Y-80518000D01*
X103886000Y-85445600D02*
X103886000Y-78663800D01*
X86207600Y-80518000D02*
X87731600Y-82042000D01*
X103124000Y-86207600D02*
X103886000Y-85445600D01*
X75336400Y-81584800D02*
X76403200Y-80518000D01*
X75336400Y-81940400D02*
X75336400Y-81584800D01*
X87731600Y-84589200D02*
X89350000Y-86207600D01*
%TO.N,/A10*%
X108966000Y-84988400D02*
X108966000Y-78663800D01*
X107289600Y-86664800D02*
X108966000Y-84988400D01*
X82956400Y-83058000D02*
X86563200Y-86664800D01*
X82956400Y-81940400D02*
X82956400Y-83058000D01*
X86563200Y-86664800D02*
X107289600Y-86664800D01*
%TO.N,Net-(IC3-Cp)*%
X63906400Y-80314800D02*
X65074800Y-79146400D01*
X84582000Y-79146400D02*
X85496400Y-78232000D01*
X65074800Y-85598000D02*
X65074800Y-84226400D01*
X65074800Y-79146400D02*
X84582000Y-79146400D01*
X63906400Y-83058000D02*
X63906400Y-80314800D01*
X65074800Y-84226400D02*
X63906400Y-83058000D01*
X85496400Y-78232000D02*
X85496400Y-74320400D01*
%TO.N,/A12*%
X83413600Y-71983600D02*
X82956400Y-72440800D01*
X82956400Y-72440800D02*
X82956400Y-74320400D01*
X94996000Y-71983600D02*
X83413600Y-71983600D01*
%TO.N,/A15*%
X92456000Y-71170800D02*
X92093200Y-71533600D01*
X75336400Y-72085200D02*
X75336400Y-74320400D01*
X92093200Y-71533600D02*
X75888000Y-71533600D01*
X75888000Y-71533600D02*
X75336400Y-72085200D01*
%TO.N,/A14*%
X92862400Y-70205600D02*
X91759200Y-70205600D01*
X90881200Y-71083600D02*
X73391600Y-71083600D01*
X73391600Y-71083600D02*
X72796400Y-71678800D01*
X91759200Y-70205600D02*
X90881200Y-71083600D01*
X72796400Y-71678800D02*
X72796400Y-74320400D01*
X93726000Y-71069200D02*
X92862400Y-70205600D01*
%TO.N,/A13*%
X84226400Y-76454000D02*
X84226400Y-73355200D01*
X65176400Y-76911200D02*
X65379600Y-77114400D01*
X84226400Y-73355200D02*
X84937600Y-72644000D01*
X65176400Y-74320400D02*
X65176400Y-76911200D01*
X65379600Y-77114400D02*
X83566000Y-77114400D01*
X91744800Y-72948800D02*
X96266000Y-72948800D01*
X91440000Y-72644000D02*
X91744800Y-72948800D01*
X84937600Y-72644000D02*
X91440000Y-72644000D01*
X83566000Y-77114400D02*
X84226400Y-76454000D01*
%TO.N,Net-(IC4-O4)*%
X117856000Y-64312800D02*
X117805200Y-62636400D01*
X117805200Y-62636400D02*
X116840000Y-61671200D01*
X112776000Y-86360000D02*
X117856000Y-81280000D01*
X106984800Y-61620400D02*
X110998000Y-61620400D01*
X110591600Y-116479400D02*
X112120600Y-116479400D01*
X116840000Y-61671200D02*
X112064800Y-61671200D01*
X106426000Y-61061600D02*
X106984800Y-61620400D01*
X111506000Y-61112400D02*
X111506000Y-59944000D01*
X112064800Y-61671200D02*
X111506000Y-61112400D01*
X117856000Y-81280000D02*
X117856000Y-64312800D01*
X112776000Y-115824000D02*
X112776000Y-86360000D01*
X106426000Y-59944000D02*
X106426000Y-61061600D01*
X110998000Y-61620400D02*
X111506000Y-61112400D01*
X112120600Y-116479400D02*
X112776000Y-115824000D01*
%TO.N,Net-(IC10-~{CE})*%
X111506000Y-78663800D02*
X111506000Y-91694000D01*
X106426000Y-77774800D02*
X107188000Y-77012800D01*
X111506000Y-91694000D02*
X110236000Y-92964000D01*
X110236000Y-104292400D02*
X109143800Y-105384600D01*
X110236000Y-92964000D02*
X110236000Y-104292400D01*
X109143800Y-118287800D02*
X109143800Y-105384600D01*
X107188000Y-77012800D02*
X110947200Y-77012800D01*
X110947200Y-77012800D02*
X111506000Y-77571600D01*
X106426000Y-78663800D02*
X106426000Y-77774800D01*
X109875400Y-119019400D02*
X109143800Y-118287800D01*
X110591600Y-119019400D02*
X109875400Y-119019400D01*
X111506000Y-77571600D02*
X111506000Y-78663800D01*
%TO.N,Net-(IC4-O3)*%
X108153200Y-111404400D02*
X108153200Y-102616000D01*
X108153200Y-102616000D02*
X108813600Y-101955600D01*
%TO.N,Net-(IC6-E2)*%
X107594400Y-120294400D02*
X108864400Y-121564400D01*
X108864400Y-121564400D02*
X110591600Y-121564400D01*
X103632000Y-101346000D02*
X103632000Y-120294400D01*
X98044000Y-95758000D02*
X103632000Y-101346000D01*
X72694800Y-94742000D02*
X73710800Y-95758000D01*
X103632000Y-120294400D02*
X107594400Y-120294400D01*
X72694800Y-93218000D02*
X72694800Y-94742000D01*
X73710800Y-95758000D02*
X98044000Y-95758000D01*
%TO.N,E400*%
X65481200Y-116484400D02*
X75793600Y-116484400D01*
X53086000Y-103530400D02*
X63652400Y-103530400D01*
X63652400Y-103530400D02*
X64719200Y-104597200D01*
X64719200Y-115722400D02*
X65481200Y-116484400D01*
X51816000Y-102260400D02*
X53086000Y-103530400D01*
X64719200Y-104597200D02*
X64719200Y-115722400D01*
X49885600Y-102260400D02*
X51816000Y-102260400D01*
%TO.N,/D6*%
X75996800Y-45778000D02*
X115308800Y-45778000D01*
X75336400Y-45117600D02*
X75996800Y-45778000D01*
X75336400Y-41300400D02*
X75336400Y-45117600D01*
%TO.N,I{slash}O*%
X81635600Y-117754400D02*
X62534800Y-117754400D01*
X62534800Y-117754400D02*
X61010800Y-116230400D01*
%TO.N,R{slash}~{W}*%
X60248800Y-118973600D02*
X59334400Y-118059200D01*
X59334400Y-109677200D02*
X58267600Y-108610400D01*
X59131200Y-79400400D02*
X54965600Y-79400400D01*
X75793600Y-118973600D02*
X60248800Y-118973600D01*
X59994800Y-80264000D02*
X59131200Y-79400400D01*
X59334400Y-118059200D02*
X59334400Y-109677200D01*
X64566800Y-90830400D02*
X61112400Y-90830400D01*
X65074800Y-93218000D02*
X65074800Y-91338400D01*
X65074800Y-91338400D02*
X64566800Y-90830400D01*
X59994800Y-89712800D02*
X59994800Y-80264000D01*
X61112400Y-90830400D02*
X59994800Y-89712800D01*
X58267600Y-108610400D02*
X52324000Y-108610400D01*
%TO.N,E*%
X59715400Y-77952600D02*
X57937400Y-77952600D01*
X60452000Y-89509600D02*
X60452000Y-78689200D01*
X60452000Y-78689200D02*
X59715400Y-77952600D01*
X75234800Y-93218000D02*
X75234800Y-91135200D01*
X74480000Y-90380400D02*
X61322800Y-90380400D01*
X56845200Y-76860400D02*
X54965600Y-76860400D01*
X75234800Y-91135200D02*
X74480000Y-90380400D01*
X61322800Y-90380400D02*
X60452000Y-89509600D01*
X57937400Y-77952600D02*
X56845200Y-76860400D01*
%TO.N,/BA4*%
X93072800Y-119176800D02*
X93530000Y-118719600D01*
X64922400Y-102006400D02*
X65633600Y-102717600D01*
X57658000Y-102006400D02*
X64922400Y-102006400D01*
X95453200Y-108864400D02*
X97891600Y-108864400D01*
X49885600Y-87020400D02*
X52070000Y-87020400D01*
X65938400Y-112623600D02*
X74218800Y-112623600D01*
X56794400Y-88747600D02*
X56794400Y-101142800D01*
X56794400Y-101142800D02*
X57658000Y-102006400D01*
X65633600Y-102717600D02*
X65633600Y-112318800D01*
X56235600Y-88290400D02*
X56794400Y-88747600D01*
X53340000Y-88290400D02*
X56235600Y-88290400D01*
X82448400Y-113944400D02*
X82448400Y-116941600D01*
X74218800Y-112623600D02*
X74269600Y-112674400D01*
X65633600Y-112318800D02*
X65938400Y-112623600D01*
X84480400Y-118973600D02*
X91033600Y-118973600D01*
X81178400Y-112674400D02*
X82448400Y-113944400D01*
X74269600Y-112674400D02*
X81178400Y-112674400D01*
X82448400Y-116941600D02*
X84480400Y-118973600D01*
X93530000Y-110787600D02*
X95453200Y-108864400D01*
X91236800Y-119176800D02*
X93072800Y-119176800D01*
X91033600Y-118973600D02*
X91236800Y-119176800D01*
X93530000Y-118719600D02*
X93530000Y-110787600D01*
X52070000Y-87020400D02*
X53340000Y-88290400D01*
%TO.N,/BA5*%
X93980000Y-120954800D02*
X93980000Y-113182400D01*
X93421200Y-121513600D02*
X93980000Y-120954800D01*
X58267600Y-111150400D02*
X58260400Y-119220400D01*
X59334400Y-120294400D02*
X77419200Y-120294400D01*
X95758000Y-111404400D02*
X97891600Y-111404400D01*
X78638400Y-121513600D02*
X93421200Y-121513600D01*
X58260400Y-119220400D02*
X59334400Y-120294400D01*
X93980000Y-113182400D02*
X95758000Y-111404400D01*
X77419200Y-120294400D02*
X78638400Y-121513600D01*
%TO.N,/BA6*%
X86969600Y-125374400D02*
X88290400Y-124053600D01*
X49885600Y-89560400D02*
X47802800Y-89560400D01*
X56134000Y-118770400D02*
X56438800Y-119075200D01*
X46939200Y-117754400D02*
X47955200Y-118770400D01*
X56438800Y-121361200D02*
X59893200Y-124815600D01*
X94437200Y-115265200D02*
X95758000Y-113944400D01*
X93573600Y-124053600D02*
X94437200Y-123190000D01*
X94437200Y-123190000D02*
X94437200Y-115265200D01*
X47955200Y-118770400D02*
X56134000Y-118770400D01*
X59893200Y-124815600D02*
X73355200Y-124815600D01*
X47802800Y-89560400D02*
X46939200Y-90424000D01*
X88290400Y-124053600D02*
X93573600Y-124053600D01*
X73914000Y-125374400D02*
X86969600Y-125374400D01*
X95758000Y-113944400D02*
X97891600Y-113944400D01*
X73355200Y-124815600D02*
X73914000Y-125374400D01*
X46939200Y-90424000D02*
X46939200Y-117754400D01*
X56438800Y-119075200D02*
X56438800Y-121361200D01*
%TO.N,/BA7*%
X46380400Y-89712800D02*
X47802800Y-88290400D01*
X91033600Y-128320800D02*
X91033600Y-126593600D01*
X47091600Y-123850400D02*
X57150000Y-123850400D01*
X90068400Y-129286000D02*
X91033600Y-128320800D01*
X54965600Y-89560400D02*
X52882800Y-89560400D01*
X94945200Y-124917200D02*
X94945200Y-122478800D01*
X93268800Y-126593600D02*
X94945200Y-124917200D01*
X72288400Y-127254000D02*
X74320400Y-129286000D01*
X95859600Y-121564400D02*
X97891600Y-121564400D01*
X74320400Y-129286000D02*
X90068400Y-129286000D01*
X46380400Y-123139200D02*
X47091600Y-123850400D01*
X91033600Y-126593600D02*
X93268800Y-126593600D01*
X47802800Y-88290400D02*
X51612800Y-88290400D01*
X57150000Y-123850400D02*
X60553600Y-127254000D01*
X94945200Y-122478800D02*
X95859600Y-121564400D01*
X51612800Y-88290400D02*
X52882800Y-89560400D01*
X46380400Y-89712800D02*
X46380400Y-123139200D01*
X60553600Y-127254000D02*
X72288400Y-127254000D01*
%TO.N,/BA11*%
X54914800Y-94589600D02*
X54965600Y-94640400D01*
%TO.N,/BA0*%
X62534800Y-100090400D02*
X63093600Y-100649200D01*
X60902000Y-91280400D02*
X59537600Y-89916000D01*
X92405200Y-112674400D02*
X93065600Y-112014000D01*
X93065600Y-109880400D02*
X91998800Y-108813600D01*
X62534800Y-93218000D02*
X62534800Y-100090400D01*
X62534800Y-91890000D02*
X61925200Y-91280400D01*
X51104800Y-81940400D02*
X49885600Y-81940400D01*
X93065600Y-112014000D02*
X93065600Y-109880400D01*
X68275200Y-101396800D02*
X68275200Y-103987600D01*
X91998800Y-108813600D02*
X91033600Y-108813600D01*
X52374800Y-80670400D02*
X51104800Y-81940400D01*
X63093600Y-100649200D02*
X67527600Y-100649200D01*
X61925200Y-91280400D02*
X60902000Y-91280400D01*
X69342000Y-105054400D02*
X79603600Y-105054400D01*
X67527600Y-100649200D02*
X68275200Y-101396800D01*
X68275200Y-103987600D02*
X69342000Y-105054400D01*
X79603600Y-105054400D02*
X87223600Y-112674400D01*
X59537600Y-89916000D02*
X59537600Y-81381600D01*
X87223600Y-112674400D02*
X92405200Y-112674400D01*
X58826400Y-80670400D02*
X52374800Y-80670400D01*
X62534800Y-93218000D02*
X62534800Y-91890000D01*
X59537600Y-81381600D02*
X58826400Y-80670400D01*
%TO.N,/BA8*%
X75793600Y-124053600D02*
X60147200Y-124053600D01*
X48006000Y-116230400D02*
X47498000Y-115824000D01*
X47498000Y-115824000D02*
X47447200Y-92659200D01*
X57048400Y-116789200D02*
X56489600Y-116230400D01*
X56489600Y-116230400D02*
X48006000Y-116230400D01*
X47447200Y-92659200D02*
X47955200Y-92049600D01*
X57048400Y-120954800D02*
X57048400Y-116789200D01*
X47955200Y-92049600D02*
X49885600Y-92100400D01*
X60147200Y-124053600D02*
X57048400Y-120954800D01*
%TO.N,/BA2*%
X87020400Y-113893600D02*
X91033600Y-113893600D01*
X67513200Y-107391200D02*
X67716400Y-107594400D01*
X58071600Y-101099200D02*
X67012400Y-101099200D01*
X57694400Y-83907200D02*
X57694400Y-100722000D01*
X80721200Y-107594400D02*
X87020400Y-113893600D01*
X67012400Y-101099200D02*
X67513200Y-101600000D01*
X56997600Y-83210400D02*
X57694400Y-83907200D01*
X67513200Y-101600000D02*
X67513200Y-107391200D01*
X67716400Y-107594400D02*
X80721200Y-107594400D01*
X49885600Y-84480400D02*
X52120800Y-84480400D01*
X52120800Y-84480400D02*
X53390800Y-83210400D01*
X53390800Y-83210400D02*
X56997600Y-83210400D01*
X57694400Y-100722000D02*
X58071600Y-101099200D01*
%TO.N,/BA9*%
X57302400Y-113690400D02*
X48514000Y-113690400D01*
X48056800Y-93827600D02*
X48056800Y-113233200D01*
X57810400Y-114198400D02*
X57302400Y-113690400D01*
X59486800Y-121513600D02*
X57810400Y-119837200D01*
X57810400Y-119837200D02*
X57810400Y-114198400D01*
X48514000Y-93370400D02*
X48056800Y-93827600D01*
X75793600Y-121513600D02*
X59486800Y-121513600D01*
X48056800Y-113233200D02*
X48514000Y-113690400D01*
X52628800Y-92100400D02*
X54965600Y-92100400D01*
X51358800Y-93370400D02*
X52628800Y-92100400D01*
X48514000Y-93370400D02*
X51358800Y-93370400D01*
%TO.N,/BA3*%
X66903600Y-110134400D02*
X81026000Y-110134400D01*
X84074000Y-116027200D02*
X84480400Y-116433600D01*
X57861200Y-101549200D02*
X65887600Y-101549200D01*
X66497200Y-102158800D02*
X66497200Y-109728000D01*
X84074000Y-113182400D02*
X84074000Y-116027200D01*
X57244400Y-84879600D02*
X57244400Y-100932400D01*
X81026000Y-110134400D02*
X84074000Y-113182400D01*
X56845200Y-84480400D02*
X57244400Y-84879600D01*
X54965600Y-84480400D02*
X56845200Y-84480400D01*
X65887600Y-101549200D02*
X66497200Y-102158800D01*
X57244400Y-100932400D02*
X57861200Y-101549200D01*
X66497200Y-109728000D02*
X66903600Y-110134400D01*
X84480400Y-116433600D02*
X91033600Y-116433600D01*
%TO.N,/BA1*%
X87477600Y-111353600D02*
X78638400Y-102514400D01*
X78638400Y-102514400D02*
X70408800Y-102514400D01*
X91033600Y-111353600D02*
X87477600Y-111353600D01*
%TD*%
M02*
