%TF.GenerationSoftware,KiCad,Pcbnew,7.0.9*%
%TF.CreationDate,2024-04-21T12:45:51+02:00*%
%TF.ProjectId,C_-836,43c52d38-3336-42e6-9b69-6361645f7063,rev?*%
%TF.SameCoordinates,Original*%
%TF.FileFunction,Soldermask,Top*%
%TF.FilePolarity,Negative*%
%FSLAX46Y46*%
G04 Gerber Fmt 4.6, Leading zero omitted, Abs format (unit mm)*
G04 Created by KiCad (PCBNEW 7.0.9) date 2024-04-21 12:45:51*
%MOMM*%
%LPD*%
G01*
G04 APERTURE LIST*
G04 Aperture macros list*
%AMRoundRect*
0 Rectangle with rounded corners*
0 $1 Rounding radius*
0 $2 $3 $4 $5 $6 $7 $8 $9 X,Y pos of 4 corners*
0 Add a 4 corners polygon primitive as box body*
4,1,4,$2,$3,$4,$5,$6,$7,$8,$9,$2,$3,0*
0 Add four circle primitives for the rounded corners*
1,1,$1+$1,$2,$3*
1,1,$1+$1,$4,$5*
1,1,$1+$1,$6,$7*
1,1,$1+$1,$8,$9*
0 Add four rect primitives between the rounded corners*
20,1,$1+$1,$2,$3,$4,$5,0*
20,1,$1+$1,$4,$5,$6,$7,0*
20,1,$1+$1,$6,$7,$8,$9,0*
20,1,$1+$1,$8,$9,$2,$3,0*%
G04 Aperture macros list end*
%ADD10R,1.600000X1.600000*%
%ADD11O,1.600000X1.600000*%
%ADD12C,2.850000*%
%ADD13RoundRect,0.249999X0.525001X-0.525001X0.525001X0.525001X-0.525001X0.525001X-0.525001X-0.525001X0*%
%ADD14C,1.550000*%
G04 APERTURE END LIST*
D10*
%TO.C,IC8*%
X91186000Y-56489600D03*
D11*
X93726000Y-56489600D03*
X96266000Y-56489600D03*
X98806000Y-56489600D03*
X101346000Y-56489600D03*
X103886000Y-56489600D03*
X106426000Y-56489600D03*
X108966000Y-56489600D03*
X111506000Y-56489600D03*
X114046000Y-56489600D03*
X116586000Y-56489600D03*
X119126000Y-56489600D03*
X121666000Y-56489600D03*
X124206000Y-56489600D03*
X124206000Y-41249600D03*
X121666000Y-41249600D03*
X119126000Y-41249600D03*
X116586000Y-41249600D03*
X114046000Y-41249600D03*
X111506000Y-41249600D03*
X108966000Y-41249600D03*
X106426000Y-41249600D03*
X103886000Y-41249600D03*
X101346000Y-41249600D03*
X98806000Y-41249600D03*
X96266000Y-41249600D03*
X93726000Y-41249600D03*
X91186000Y-41249600D03*
%TD*%
D10*
%TO.C,IC11*%
X91033600Y-126644400D03*
D11*
X91033600Y-124104400D03*
X91033600Y-121564400D03*
X91033600Y-119024400D03*
X91033600Y-116484400D03*
X91033600Y-113944400D03*
X91033600Y-111404400D03*
X91033600Y-108864400D03*
X91033600Y-106324400D03*
X91033600Y-103784400D03*
X91033600Y-101244400D03*
X91033600Y-98704400D03*
X75793600Y-98704400D03*
X75793600Y-101244400D03*
X75793600Y-103784400D03*
X75793600Y-106324400D03*
X75793600Y-108864400D03*
X75793600Y-111404400D03*
X75793600Y-113944400D03*
X75793600Y-116484400D03*
X75793600Y-119024400D03*
X75793600Y-121564400D03*
X75793600Y-124104400D03*
X75793600Y-126644400D03*
%TD*%
D10*
%TO.C,IC1*%
X62636400Y-48920400D03*
D11*
X65176400Y-48920400D03*
X67716400Y-48920400D03*
X70256400Y-48920400D03*
X72796400Y-48920400D03*
X75336400Y-48920400D03*
X77876400Y-48920400D03*
X80416400Y-48920400D03*
X82956400Y-48920400D03*
X85496400Y-48920400D03*
X85496400Y-41300400D03*
X82956400Y-41300400D03*
X80416400Y-41300400D03*
X77876400Y-41300400D03*
X75336400Y-41300400D03*
X72796400Y-41300400D03*
X70256400Y-41300400D03*
X67716400Y-41300400D03*
X65176400Y-41300400D03*
X62636400Y-41300400D03*
%TD*%
D10*
%TO.C,IC2*%
X62636400Y-66700400D03*
D11*
X65176400Y-66700400D03*
X67716400Y-66700400D03*
X70256400Y-66700400D03*
X72796400Y-66700400D03*
X75336400Y-66700400D03*
X77876400Y-66700400D03*
X80416400Y-66700400D03*
X82956400Y-66700400D03*
X85496400Y-66700400D03*
X85496400Y-59080400D03*
X82956400Y-59080400D03*
X80416400Y-59080400D03*
X77876400Y-59080400D03*
X75336400Y-59080400D03*
X72796400Y-59080400D03*
X70256400Y-59080400D03*
X67716400Y-59080400D03*
X65176400Y-59080400D03*
X62636400Y-59080400D03*
%TD*%
D12*
%TO.C,P1*%
X47345600Y-130200400D03*
X47345600Y-41300400D03*
D13*
X49885600Y-125120400D03*
D14*
X49885600Y-122580400D03*
X49885600Y-120040400D03*
X49885600Y-117500400D03*
X49885600Y-114960400D03*
X49885600Y-112420400D03*
X49885600Y-109880400D03*
X49885600Y-107340400D03*
X49885600Y-104800400D03*
X49885600Y-102260400D03*
X49885600Y-99720400D03*
X49885600Y-97180400D03*
X49885600Y-94640400D03*
X49885600Y-92100400D03*
X49885600Y-89560400D03*
X49885600Y-87020400D03*
X49885600Y-84480400D03*
X49885600Y-81940400D03*
X49885600Y-79400400D03*
X49885600Y-76860400D03*
X49885600Y-74320400D03*
X49885600Y-71780400D03*
X49885600Y-69240400D03*
X49885600Y-66700400D03*
X49885600Y-64160400D03*
X49885600Y-61620400D03*
X49885600Y-59080400D03*
X49885600Y-56540400D03*
X49885600Y-54000400D03*
X49885600Y-51460400D03*
X49885600Y-48920400D03*
X49885600Y-46380400D03*
X54965600Y-125120400D03*
X54965600Y-122580400D03*
X54965600Y-120040400D03*
X54965600Y-117500400D03*
X54965600Y-114960400D03*
X54965600Y-112420400D03*
X54965600Y-109880400D03*
X54965600Y-107340400D03*
X54965600Y-104800400D03*
X54965600Y-102260400D03*
X54965600Y-99720400D03*
X54965600Y-97180400D03*
X54965600Y-94640400D03*
X54965600Y-92100400D03*
X54965600Y-89560400D03*
X54965600Y-87020400D03*
X54965600Y-84480400D03*
X54965600Y-81940400D03*
X54965600Y-79400400D03*
X54965600Y-76860400D03*
X54965600Y-74320400D03*
X54965600Y-71780400D03*
X54965600Y-69240400D03*
X54965600Y-66700400D03*
X54965600Y-64160400D03*
X54965600Y-61620400D03*
X54965600Y-59080400D03*
X54965600Y-56540400D03*
X54965600Y-54000400D03*
X54965600Y-51460400D03*
X54965600Y-48920400D03*
X54965600Y-46380400D03*
%TD*%
D10*
%TO.C,IC7*%
X110591600Y-108859400D03*
D11*
X110591600Y-111399400D03*
X110591600Y-113939400D03*
X110591600Y-116479400D03*
X110591600Y-119019400D03*
X110591600Y-121559400D03*
X110591600Y-124099400D03*
X118211600Y-124099400D03*
X118211600Y-121559400D03*
X118211600Y-119019400D03*
X118211600Y-116479400D03*
X118211600Y-113939400D03*
X118211600Y-111399400D03*
X118211600Y-108859400D03*
%TD*%
D10*
%TO.C,IC10*%
X91186000Y-93903800D03*
D11*
X93726000Y-93903800D03*
X96266000Y-93903800D03*
X98806000Y-93903800D03*
X101346000Y-93903800D03*
X103886000Y-93903800D03*
X106426000Y-93903800D03*
X108966000Y-93903800D03*
X111506000Y-93903800D03*
X114046000Y-93903800D03*
X116586000Y-93903800D03*
X119126000Y-93903800D03*
X121666000Y-93903800D03*
X124206000Y-93903800D03*
X124206000Y-78663800D03*
X121666000Y-78663800D03*
X119126000Y-78663800D03*
X116586000Y-78663800D03*
X114046000Y-78663800D03*
X111506000Y-78663800D03*
X108966000Y-78663800D03*
X106426000Y-78663800D03*
X103886000Y-78663800D03*
X101346000Y-78663800D03*
X98806000Y-78663800D03*
X96266000Y-78663800D03*
X93726000Y-78663800D03*
X91186000Y-78663800D03*
%TD*%
D10*
%TO.C,IC3*%
X62636400Y-81940400D03*
D11*
X65176400Y-81940400D03*
X67716400Y-81940400D03*
X70256400Y-81940400D03*
X72796400Y-81940400D03*
X75336400Y-81940400D03*
X77876400Y-81940400D03*
X80416400Y-81940400D03*
X82956400Y-81940400D03*
X85496400Y-81940400D03*
X85496400Y-74320400D03*
X82956400Y-74320400D03*
X80416400Y-74320400D03*
X77876400Y-74320400D03*
X75336400Y-74320400D03*
X72796400Y-74320400D03*
X70256400Y-74320400D03*
X67716400Y-74320400D03*
X65176400Y-74320400D03*
X62636400Y-74320400D03*
%TD*%
D10*
%TO.C,IC9*%
X91186000Y-75184000D03*
D11*
X93726000Y-75184000D03*
X96266000Y-75184000D03*
X98806000Y-75184000D03*
X101346000Y-75184000D03*
X103886000Y-75184000D03*
X106426000Y-75184000D03*
X108966000Y-75184000D03*
X111506000Y-75184000D03*
X114046000Y-75184000D03*
X116586000Y-75184000D03*
X119126000Y-75184000D03*
X121666000Y-75184000D03*
X124206000Y-75184000D03*
X124206000Y-59944000D03*
X121666000Y-59944000D03*
X119126000Y-59944000D03*
X116586000Y-59944000D03*
X114046000Y-59944000D03*
X111506000Y-59944000D03*
X108966000Y-59944000D03*
X106426000Y-59944000D03*
X103886000Y-59944000D03*
X101346000Y-59944000D03*
X98806000Y-59944000D03*
X96266000Y-59944000D03*
X93726000Y-59944000D03*
X91186000Y-59944000D03*
%TD*%
D10*
%TO.C,IC6*%
X62534800Y-93218000D03*
D11*
X65074800Y-93218000D03*
X67614800Y-93218000D03*
X70154800Y-93218000D03*
X72694800Y-93218000D03*
X75234800Y-93218000D03*
X77774800Y-93218000D03*
X80314800Y-93218000D03*
X80314800Y-85598000D03*
X77774800Y-85598000D03*
X75234800Y-85598000D03*
X72694800Y-85598000D03*
X70154800Y-85598000D03*
X67614800Y-85598000D03*
X65074800Y-85598000D03*
X62534800Y-85598000D03*
%TD*%
D10*
%TO.C,IC4*%
X97891600Y-108864400D03*
D11*
X97891600Y-111404400D03*
X97891600Y-113944400D03*
X97891600Y-116484400D03*
X97891600Y-119024400D03*
X97891600Y-121564400D03*
X97891600Y-124104400D03*
X97891600Y-126644400D03*
X105511600Y-126644400D03*
X105511600Y-124104400D03*
X105511600Y-121564400D03*
X105511600Y-119024400D03*
X105511600Y-116484400D03*
X105511600Y-113944400D03*
X105511600Y-111404400D03*
X105511600Y-108864400D03*
%TD*%
M02*
