%TF.GenerationSoftware,KiCad,Pcbnew,7.0.9*%
%TF.CreationDate,2024-04-21T12:45:51+02:00*%
%TF.ProjectId,C_-836,43c52d38-3336-42e6-9b69-6361645f7063,rev?*%
%TF.SameCoordinates,Original*%
%TF.FileFunction,Legend,Top*%
%TF.FilePolarity,Positive*%
%FSLAX46Y46*%
G04 Gerber Fmt 4.6, Leading zero omitted, Abs format (unit mm)*
G04 Created by KiCad (PCBNEW 7.0.9) date 2024-04-21 12:45:51*
%MOMM*%
%LPD*%
G01*
G04 APERTURE LIST*
%ADD10C,0.150000*%
%ADD11C,0.120000*%
G04 APERTURE END LIST*
D10*
X55546836Y-130291990D02*
X55451598Y-130244371D01*
X55451598Y-130244371D02*
X55403979Y-130196752D01*
X55403979Y-130196752D02*
X55356360Y-130101514D01*
X55356360Y-130101514D02*
X55356360Y-130053895D01*
X55356360Y-130053895D02*
X55403979Y-129958657D01*
X55403979Y-129958657D02*
X55451598Y-129911038D01*
X55451598Y-129911038D02*
X55546836Y-129863419D01*
X55546836Y-129863419D02*
X55737312Y-129863419D01*
X55737312Y-129863419D02*
X55832550Y-129911038D01*
X55832550Y-129911038D02*
X55880169Y-129958657D01*
X55880169Y-129958657D02*
X55927788Y-130053895D01*
X55927788Y-130053895D02*
X55927788Y-130101514D01*
X55927788Y-130101514D02*
X55880169Y-130196752D01*
X55880169Y-130196752D02*
X55832550Y-130244371D01*
X55832550Y-130244371D02*
X55737312Y-130291990D01*
X55737312Y-130291990D02*
X55546836Y-130291990D01*
X55546836Y-130291990D02*
X55451598Y-130339609D01*
X55451598Y-130339609D02*
X55403979Y-130387228D01*
X55403979Y-130387228D02*
X55356360Y-130482466D01*
X55356360Y-130482466D02*
X55356360Y-130672942D01*
X55356360Y-130672942D02*
X55403979Y-130768180D01*
X55403979Y-130768180D02*
X55451598Y-130815800D01*
X55451598Y-130815800D02*
X55546836Y-130863419D01*
X55546836Y-130863419D02*
X55737312Y-130863419D01*
X55737312Y-130863419D02*
X55832550Y-130815800D01*
X55832550Y-130815800D02*
X55880169Y-130768180D01*
X55880169Y-130768180D02*
X55927788Y-130672942D01*
X55927788Y-130672942D02*
X55927788Y-130482466D01*
X55927788Y-130482466D02*
X55880169Y-130387228D01*
X55880169Y-130387228D02*
X55832550Y-130339609D01*
X55832550Y-130339609D02*
X55737312Y-130291990D01*
X56261122Y-129863419D02*
X56880169Y-129863419D01*
X56880169Y-129863419D02*
X56546836Y-130244371D01*
X56546836Y-130244371D02*
X56689693Y-130244371D01*
X56689693Y-130244371D02*
X56784931Y-130291990D01*
X56784931Y-130291990D02*
X56832550Y-130339609D01*
X56832550Y-130339609D02*
X56880169Y-130434847D01*
X56880169Y-130434847D02*
X56880169Y-130672942D01*
X56880169Y-130672942D02*
X56832550Y-130768180D01*
X56832550Y-130768180D02*
X56784931Y-130815800D01*
X56784931Y-130815800D02*
X56689693Y-130863419D01*
X56689693Y-130863419D02*
X56403979Y-130863419D01*
X56403979Y-130863419D02*
X56308741Y-130815800D01*
X56308741Y-130815800D02*
X56261122Y-130768180D01*
X57737312Y-129863419D02*
X57546836Y-129863419D01*
X57546836Y-129863419D02*
X57451598Y-129911038D01*
X57451598Y-129911038D02*
X57403979Y-129958657D01*
X57403979Y-129958657D02*
X57308741Y-130101514D01*
X57308741Y-130101514D02*
X57261122Y-130291990D01*
X57261122Y-130291990D02*
X57261122Y-130672942D01*
X57261122Y-130672942D02*
X57308741Y-130768180D01*
X57308741Y-130768180D02*
X57356360Y-130815800D01*
X57356360Y-130815800D02*
X57451598Y-130863419D01*
X57451598Y-130863419D02*
X57642074Y-130863419D01*
X57642074Y-130863419D02*
X57737312Y-130815800D01*
X57737312Y-130815800D02*
X57784931Y-130768180D01*
X57784931Y-130768180D02*
X57832550Y-130672942D01*
X57832550Y-130672942D02*
X57832550Y-130434847D01*
X57832550Y-130434847D02*
X57784931Y-130339609D01*
X57784931Y-130339609D02*
X57737312Y-130291990D01*
X57737312Y-130291990D02*
X57642074Y-130244371D01*
X57642074Y-130244371D02*
X57451598Y-130244371D01*
X57451598Y-130244371D02*
X57356360Y-130291990D01*
X57356360Y-130291990D02*
X57308741Y-130339609D01*
X57308741Y-130339609D02*
X57261122Y-130434847D01*
X59023027Y-130339609D02*
X59356360Y-130339609D01*
X59499217Y-130863419D02*
X59023027Y-130863419D01*
X59023027Y-130863419D02*
X59023027Y-129863419D01*
X59023027Y-129863419D02*
X59499217Y-129863419D01*
X59927789Y-130863419D02*
X59927789Y-129863419D01*
X59927789Y-129863419D02*
X60308741Y-129863419D01*
X60308741Y-129863419D02*
X60403979Y-129911038D01*
X60403979Y-129911038D02*
X60451598Y-129958657D01*
X60451598Y-129958657D02*
X60499217Y-130053895D01*
X60499217Y-130053895D02*
X60499217Y-130196752D01*
X60499217Y-130196752D02*
X60451598Y-130291990D01*
X60451598Y-130291990D02*
X60403979Y-130339609D01*
X60403979Y-130339609D02*
X60308741Y-130387228D01*
X60308741Y-130387228D02*
X59927789Y-130387228D01*
X61499217Y-130863419D02*
X61165884Y-130387228D01*
X60927789Y-130863419D02*
X60927789Y-129863419D01*
X60927789Y-129863419D02*
X61308741Y-129863419D01*
X61308741Y-129863419D02*
X61403979Y-129911038D01*
X61403979Y-129911038D02*
X61451598Y-129958657D01*
X61451598Y-129958657D02*
X61499217Y-130053895D01*
X61499217Y-130053895D02*
X61499217Y-130196752D01*
X61499217Y-130196752D02*
X61451598Y-130291990D01*
X61451598Y-130291990D02*
X61403979Y-130339609D01*
X61403979Y-130339609D02*
X61308741Y-130387228D01*
X61308741Y-130387228D02*
X60927789Y-130387228D01*
X62118265Y-129863419D02*
X62308741Y-129863419D01*
X62308741Y-129863419D02*
X62403979Y-129911038D01*
X62403979Y-129911038D02*
X62499217Y-130006276D01*
X62499217Y-130006276D02*
X62546836Y-130196752D01*
X62546836Y-130196752D02*
X62546836Y-130530085D01*
X62546836Y-130530085D02*
X62499217Y-130720561D01*
X62499217Y-130720561D02*
X62403979Y-130815800D01*
X62403979Y-130815800D02*
X62308741Y-130863419D01*
X62308741Y-130863419D02*
X62118265Y-130863419D01*
X62118265Y-130863419D02*
X62023027Y-130815800D01*
X62023027Y-130815800D02*
X61927789Y-130720561D01*
X61927789Y-130720561D02*
X61880170Y-130530085D01*
X61880170Y-130530085D02*
X61880170Y-130196752D01*
X61880170Y-130196752D02*
X61927789Y-130006276D01*
X61927789Y-130006276D02*
X62023027Y-129911038D01*
X62023027Y-129911038D02*
X62118265Y-129863419D01*
X62975408Y-130863419D02*
X62975408Y-129863419D01*
X62975408Y-129863419D02*
X63308741Y-130577704D01*
X63308741Y-130577704D02*
X63642074Y-129863419D01*
X63642074Y-129863419D02*
X63642074Y-130863419D01*
X64832550Y-129815800D02*
X63975408Y-131101514D01*
X65737312Y-130863419D02*
X65403979Y-130387228D01*
X65165884Y-130863419D02*
X65165884Y-129863419D01*
X65165884Y-129863419D02*
X65546836Y-129863419D01*
X65546836Y-129863419D02*
X65642074Y-129911038D01*
X65642074Y-129911038D02*
X65689693Y-129958657D01*
X65689693Y-129958657D02*
X65737312Y-130053895D01*
X65737312Y-130053895D02*
X65737312Y-130196752D01*
X65737312Y-130196752D02*
X65689693Y-130291990D01*
X65689693Y-130291990D02*
X65642074Y-130339609D01*
X65642074Y-130339609D02*
X65546836Y-130387228D01*
X65546836Y-130387228D02*
X65165884Y-130387228D01*
X66118265Y-130577704D02*
X66594455Y-130577704D01*
X66023027Y-130863419D02*
X66356360Y-129863419D01*
X66356360Y-129863419D02*
X66689693Y-130863419D01*
X67023027Y-130863419D02*
X67023027Y-129863419D01*
X67023027Y-129863419D02*
X67356360Y-130577704D01*
X67356360Y-130577704D02*
X67689693Y-129863419D01*
X67689693Y-129863419D02*
X67689693Y-130863419D01*
X55975407Y-132473419D02*
X55642074Y-131997228D01*
X55403979Y-132473419D02*
X55403979Y-131473419D01*
X55403979Y-131473419D02*
X55784931Y-131473419D01*
X55784931Y-131473419D02*
X55880169Y-131521038D01*
X55880169Y-131521038D02*
X55927788Y-131568657D01*
X55927788Y-131568657D02*
X55975407Y-131663895D01*
X55975407Y-131663895D02*
X55975407Y-131806752D01*
X55975407Y-131806752D02*
X55927788Y-131901990D01*
X55927788Y-131901990D02*
X55880169Y-131949609D01*
X55880169Y-131949609D02*
X55784931Y-131997228D01*
X55784931Y-131997228D02*
X55403979Y-131997228D01*
X56261122Y-131473419D02*
X56832550Y-131473419D01*
X56546836Y-132473419D02*
X56546836Y-131473419D01*
X57165884Y-132092466D02*
X57927789Y-132092466D01*
X58832550Y-132473419D02*
X58832550Y-131473419D01*
X58832550Y-132425800D02*
X58737312Y-132473419D01*
X58737312Y-132473419D02*
X58546836Y-132473419D01*
X58546836Y-132473419D02*
X58451598Y-132425800D01*
X58451598Y-132425800D02*
X58403979Y-132378180D01*
X58403979Y-132378180D02*
X58356360Y-132282942D01*
X58356360Y-132282942D02*
X58356360Y-131997228D01*
X58356360Y-131997228D02*
X58403979Y-131901990D01*
X58403979Y-131901990D02*
X58451598Y-131854371D01*
X58451598Y-131854371D02*
X58546836Y-131806752D01*
X58546836Y-131806752D02*
X58737312Y-131806752D01*
X58737312Y-131806752D02*
X58832550Y-131854371D01*
X59737312Y-132473419D02*
X59737312Y-131949609D01*
X59737312Y-131949609D02*
X59689693Y-131854371D01*
X59689693Y-131854371D02*
X59594455Y-131806752D01*
X59594455Y-131806752D02*
X59403979Y-131806752D01*
X59403979Y-131806752D02*
X59308741Y-131854371D01*
X59737312Y-132425800D02*
X59642074Y-132473419D01*
X59642074Y-132473419D02*
X59403979Y-132473419D01*
X59403979Y-132473419D02*
X59308741Y-132425800D01*
X59308741Y-132425800D02*
X59261122Y-132330561D01*
X59261122Y-132330561D02*
X59261122Y-132235323D01*
X59261122Y-132235323D02*
X59308741Y-132140085D01*
X59308741Y-132140085D02*
X59403979Y-132092466D01*
X59403979Y-132092466D02*
X59642074Y-132092466D01*
X59642074Y-132092466D02*
X59737312Y-132044847D01*
X60070646Y-131806752D02*
X60451598Y-131806752D01*
X60213503Y-131473419D02*
X60213503Y-132330561D01*
X60213503Y-132330561D02*
X60261122Y-132425800D01*
X60261122Y-132425800D02*
X60356360Y-132473419D01*
X60356360Y-132473419D02*
X60451598Y-132473419D01*
X60927789Y-132473419D02*
X60832551Y-132425800D01*
X60832551Y-132425800D02*
X60784932Y-132378180D01*
X60784932Y-132378180D02*
X60737313Y-132282942D01*
X60737313Y-132282942D02*
X60737313Y-131997228D01*
X60737313Y-131997228D02*
X60784932Y-131901990D01*
X60784932Y-131901990D02*
X60832551Y-131854371D01*
X60832551Y-131854371D02*
X60927789Y-131806752D01*
X60927789Y-131806752D02*
X61070646Y-131806752D01*
X61070646Y-131806752D02*
X61165884Y-131854371D01*
X61165884Y-131854371D02*
X61213503Y-131901990D01*
X61213503Y-131901990D02*
X61261122Y-131997228D01*
X61261122Y-131997228D02*
X61261122Y-132282942D01*
X61261122Y-132282942D02*
X61213503Y-132378180D01*
X61213503Y-132378180D02*
X61165884Y-132425800D01*
X61165884Y-132425800D02*
X61070646Y-132473419D01*
X61070646Y-132473419D02*
X60927789Y-132473419D01*
X61689694Y-132473419D02*
X61689694Y-131806752D01*
X61689694Y-131997228D02*
X61737313Y-131901990D01*
X61737313Y-131901990D02*
X61784932Y-131854371D01*
X61784932Y-131854371D02*
X61880170Y-131806752D01*
X61880170Y-131806752D02*
X61975408Y-131806752D01*
X62308742Y-131806752D02*
X62308742Y-132473419D01*
X62308742Y-131901990D02*
X62356361Y-131854371D01*
X62356361Y-131854371D02*
X62451599Y-131806752D01*
X62451599Y-131806752D02*
X62594456Y-131806752D01*
X62594456Y-131806752D02*
X62689694Y-131854371D01*
X62689694Y-131854371D02*
X62737313Y-131949609D01*
X62737313Y-131949609D02*
X62737313Y-132473419D01*
X55403979Y-134083419D02*
X55403979Y-133083419D01*
X55403979Y-133083419D02*
X55737312Y-133797704D01*
X55737312Y-133797704D02*
X56070645Y-133083419D01*
X56070645Y-133083419D02*
X56070645Y-134083419D01*
X56546836Y-134083419D02*
X56546836Y-133416752D01*
X56546836Y-133083419D02*
X56499217Y-133131038D01*
X56499217Y-133131038D02*
X56546836Y-133178657D01*
X56546836Y-133178657D02*
X56594455Y-133131038D01*
X56594455Y-133131038D02*
X56546836Y-133083419D01*
X56546836Y-133083419D02*
X56546836Y-133178657D01*
X57023026Y-134083419D02*
X57023026Y-133083419D01*
X57118264Y-133702466D02*
X57403978Y-134083419D01*
X57403978Y-133416752D02*
X57023026Y-133797704D01*
X58261121Y-134083419D02*
X58261121Y-133559609D01*
X58261121Y-133559609D02*
X58213502Y-133464371D01*
X58213502Y-133464371D02*
X58118264Y-133416752D01*
X58118264Y-133416752D02*
X57927788Y-133416752D01*
X57927788Y-133416752D02*
X57832550Y-133464371D01*
X58261121Y-134035800D02*
X58165883Y-134083419D01*
X58165883Y-134083419D02*
X57927788Y-134083419D01*
X57927788Y-134083419D02*
X57832550Y-134035800D01*
X57832550Y-134035800D02*
X57784931Y-133940561D01*
X57784931Y-133940561D02*
X57784931Y-133845323D01*
X57784931Y-133845323D02*
X57832550Y-133750085D01*
X57832550Y-133750085D02*
X57927788Y-133702466D01*
X57927788Y-133702466D02*
X58165883Y-133702466D01*
X58165883Y-133702466D02*
X58261121Y-133654847D01*
X59118264Y-134035800D02*
X59023026Y-134083419D01*
X59023026Y-134083419D02*
X58832550Y-134083419D01*
X58832550Y-134083419D02*
X58737312Y-134035800D01*
X58737312Y-134035800D02*
X58689693Y-133940561D01*
X58689693Y-133940561D02*
X58689693Y-133559609D01*
X58689693Y-133559609D02*
X58737312Y-133464371D01*
X58737312Y-133464371D02*
X58832550Y-133416752D01*
X58832550Y-133416752D02*
X59023026Y-133416752D01*
X59023026Y-133416752D02*
X59118264Y-133464371D01*
X59118264Y-133464371D02*
X59165883Y-133559609D01*
X59165883Y-133559609D02*
X59165883Y-133654847D01*
X59165883Y-133654847D02*
X58689693Y-133750085D01*
X59737312Y-134083419D02*
X59642074Y-134035800D01*
X59642074Y-134035800D02*
X59594455Y-133940561D01*
X59594455Y-133940561D02*
X59594455Y-133083419D01*
X60880170Y-134083419D02*
X60880170Y-133083419D01*
X61451598Y-134083419D02*
X61023027Y-133511990D01*
X61451598Y-133083419D02*
X60880170Y-133654847D01*
X62308741Y-134083419D02*
X62308741Y-133559609D01*
X62308741Y-133559609D02*
X62261122Y-133464371D01*
X62261122Y-133464371D02*
X62165884Y-133416752D01*
X62165884Y-133416752D02*
X61975408Y-133416752D01*
X61975408Y-133416752D02*
X61880170Y-133464371D01*
X62308741Y-134035800D02*
X62213503Y-134083419D01*
X62213503Y-134083419D02*
X61975408Y-134083419D01*
X61975408Y-134083419D02*
X61880170Y-134035800D01*
X61880170Y-134035800D02*
X61832551Y-133940561D01*
X61832551Y-133940561D02*
X61832551Y-133845323D01*
X61832551Y-133845323D02*
X61880170Y-133750085D01*
X61880170Y-133750085D02*
X61975408Y-133702466D01*
X61975408Y-133702466D02*
X62213503Y-133702466D01*
X62213503Y-133702466D02*
X62308741Y-133654847D01*
X62784932Y-134083419D02*
X62784932Y-133416752D01*
X62784932Y-133607228D02*
X62832551Y-133511990D01*
X62832551Y-133511990D02*
X62880170Y-133464371D01*
X62880170Y-133464371D02*
X62975408Y-133416752D01*
X62975408Y-133416752D02*
X63070646Y-133416752D01*
X63546837Y-134083419D02*
X63451599Y-134035800D01*
X63451599Y-134035800D02*
X63403980Y-133940561D01*
X63403980Y-133940561D02*
X63403980Y-133083419D01*
X63880171Y-134035800D02*
X63975409Y-134083419D01*
X63975409Y-134083419D02*
X64165885Y-134083419D01*
X64165885Y-134083419D02*
X64261123Y-134035800D01*
X64261123Y-134035800D02*
X64308742Y-133940561D01*
X64308742Y-133940561D02*
X64308742Y-133892942D01*
X64308742Y-133892942D02*
X64261123Y-133797704D01*
X64261123Y-133797704D02*
X64165885Y-133750085D01*
X64165885Y-133750085D02*
X64023028Y-133750085D01*
X64023028Y-133750085D02*
X63927790Y-133702466D01*
X63927790Y-133702466D02*
X63880171Y-133607228D01*
X63880171Y-133607228D02*
X63880171Y-133559609D01*
X63880171Y-133559609D02*
X63927790Y-133464371D01*
X63927790Y-133464371D02*
X64023028Y-133416752D01*
X64023028Y-133416752D02*
X64165885Y-133416752D01*
X64165885Y-133416752D02*
X64261123Y-133464371D01*
X64689695Y-134035800D02*
X64784933Y-134083419D01*
X64784933Y-134083419D02*
X64975409Y-134083419D01*
X64975409Y-134083419D02*
X65070647Y-134035800D01*
X65070647Y-134035800D02*
X65118266Y-133940561D01*
X65118266Y-133940561D02*
X65118266Y-133892942D01*
X65118266Y-133892942D02*
X65070647Y-133797704D01*
X65070647Y-133797704D02*
X64975409Y-133750085D01*
X64975409Y-133750085D02*
X64832552Y-133750085D01*
X64832552Y-133750085D02*
X64737314Y-133702466D01*
X64737314Y-133702466D02*
X64689695Y-133607228D01*
X64689695Y-133607228D02*
X64689695Y-133559609D01*
X64689695Y-133559609D02*
X64737314Y-133464371D01*
X64737314Y-133464371D02*
X64832552Y-133416752D01*
X64832552Y-133416752D02*
X64975409Y-133416752D01*
X64975409Y-133416752D02*
X65070647Y-133464371D01*
X65689695Y-134083419D02*
X65594457Y-134035800D01*
X65594457Y-134035800D02*
X65546838Y-133988180D01*
X65546838Y-133988180D02*
X65499219Y-133892942D01*
X65499219Y-133892942D02*
X65499219Y-133607228D01*
X65499219Y-133607228D02*
X65546838Y-133511990D01*
X65546838Y-133511990D02*
X65594457Y-133464371D01*
X65594457Y-133464371D02*
X65689695Y-133416752D01*
X65689695Y-133416752D02*
X65832552Y-133416752D01*
X65832552Y-133416752D02*
X65927790Y-133464371D01*
X65927790Y-133464371D02*
X65975409Y-133511990D01*
X65975409Y-133511990D02*
X66023028Y-133607228D01*
X66023028Y-133607228D02*
X66023028Y-133892942D01*
X66023028Y-133892942D02*
X65975409Y-133988180D01*
X65975409Y-133988180D02*
X65927790Y-134035800D01*
X65927790Y-134035800D02*
X65832552Y-134083419D01*
X65832552Y-134083419D02*
X65689695Y-134083419D01*
X66451600Y-133416752D02*
X66451600Y-134083419D01*
X66451600Y-133511990D02*
X66499219Y-133464371D01*
X66499219Y-133464371D02*
X66594457Y-133416752D01*
X66594457Y-133416752D02*
X66737314Y-133416752D01*
X66737314Y-133416752D02*
X66832552Y-133464371D01*
X66832552Y-133464371D02*
X66880171Y-133559609D01*
X66880171Y-133559609D02*
X66880171Y-134083419D01*
X68118267Y-133702466D02*
X68880172Y-133702466D01*
X70070648Y-133178657D02*
X70118267Y-133131038D01*
X70118267Y-133131038D02*
X70213505Y-133083419D01*
X70213505Y-133083419D02*
X70451600Y-133083419D01*
X70451600Y-133083419D02*
X70546838Y-133131038D01*
X70546838Y-133131038D02*
X70594457Y-133178657D01*
X70594457Y-133178657D02*
X70642076Y-133273895D01*
X70642076Y-133273895D02*
X70642076Y-133369133D01*
X70642076Y-133369133D02*
X70594457Y-133511990D01*
X70594457Y-133511990D02*
X70023029Y-134083419D01*
X70023029Y-134083419D02*
X70642076Y-134083419D01*
X71261124Y-133083419D02*
X71356362Y-133083419D01*
X71356362Y-133083419D02*
X71451600Y-133131038D01*
X71451600Y-133131038D02*
X71499219Y-133178657D01*
X71499219Y-133178657D02*
X71546838Y-133273895D01*
X71546838Y-133273895D02*
X71594457Y-133464371D01*
X71594457Y-133464371D02*
X71594457Y-133702466D01*
X71594457Y-133702466D02*
X71546838Y-133892942D01*
X71546838Y-133892942D02*
X71499219Y-133988180D01*
X71499219Y-133988180D02*
X71451600Y-134035800D01*
X71451600Y-134035800D02*
X71356362Y-134083419D01*
X71356362Y-134083419D02*
X71261124Y-134083419D01*
X71261124Y-134083419D02*
X71165886Y-134035800D01*
X71165886Y-134035800D02*
X71118267Y-133988180D01*
X71118267Y-133988180D02*
X71070648Y-133892942D01*
X71070648Y-133892942D02*
X71023029Y-133702466D01*
X71023029Y-133702466D02*
X71023029Y-133464371D01*
X71023029Y-133464371D02*
X71070648Y-133273895D01*
X71070648Y-133273895D02*
X71118267Y-133178657D01*
X71118267Y-133178657D02*
X71165886Y-133131038D01*
X71165886Y-133131038D02*
X71261124Y-133083419D01*
X71975410Y-133178657D02*
X72023029Y-133131038D01*
X72023029Y-133131038D02*
X72118267Y-133083419D01*
X72118267Y-133083419D02*
X72356362Y-133083419D01*
X72356362Y-133083419D02*
X72451600Y-133131038D01*
X72451600Y-133131038D02*
X72499219Y-133178657D01*
X72499219Y-133178657D02*
X72546838Y-133273895D01*
X72546838Y-133273895D02*
X72546838Y-133369133D01*
X72546838Y-133369133D02*
X72499219Y-133511990D01*
X72499219Y-133511990D02*
X71927791Y-134083419D01*
X71927791Y-134083419D02*
X72546838Y-134083419D01*
X73403981Y-133416752D02*
X73403981Y-134083419D01*
X73165886Y-133035800D02*
X72927791Y-133750085D01*
X72927791Y-133750085D02*
X73546838Y-133750085D01*
X89456419Y-49794989D02*
X88456419Y-49794989D01*
X89361180Y-48747371D02*
X89408800Y-48794990D01*
X89408800Y-48794990D02*
X89456419Y-48937847D01*
X89456419Y-48937847D02*
X89456419Y-49033085D01*
X89456419Y-49033085D02*
X89408800Y-49175942D01*
X89408800Y-49175942D02*
X89313561Y-49271180D01*
X89313561Y-49271180D02*
X89218323Y-49318799D01*
X89218323Y-49318799D02*
X89027847Y-49366418D01*
X89027847Y-49366418D02*
X88884990Y-49366418D01*
X88884990Y-49366418D02*
X88694514Y-49318799D01*
X88694514Y-49318799D02*
X88599276Y-49271180D01*
X88599276Y-49271180D02*
X88504038Y-49175942D01*
X88504038Y-49175942D02*
X88456419Y-49033085D01*
X88456419Y-49033085D02*
X88456419Y-48937847D01*
X88456419Y-48937847D02*
X88504038Y-48794990D01*
X88504038Y-48794990D02*
X88551657Y-48747371D01*
X88884990Y-48175942D02*
X88837371Y-48271180D01*
X88837371Y-48271180D02*
X88789752Y-48318799D01*
X88789752Y-48318799D02*
X88694514Y-48366418D01*
X88694514Y-48366418D02*
X88646895Y-48366418D01*
X88646895Y-48366418D02*
X88551657Y-48318799D01*
X88551657Y-48318799D02*
X88504038Y-48271180D01*
X88504038Y-48271180D02*
X88456419Y-48175942D01*
X88456419Y-48175942D02*
X88456419Y-47985466D01*
X88456419Y-47985466D02*
X88504038Y-47890228D01*
X88504038Y-47890228D02*
X88551657Y-47842609D01*
X88551657Y-47842609D02*
X88646895Y-47794990D01*
X88646895Y-47794990D02*
X88694514Y-47794990D01*
X88694514Y-47794990D02*
X88789752Y-47842609D01*
X88789752Y-47842609D02*
X88837371Y-47890228D01*
X88837371Y-47890228D02*
X88884990Y-47985466D01*
X88884990Y-47985466D02*
X88884990Y-48175942D01*
X88884990Y-48175942D02*
X88932609Y-48271180D01*
X88932609Y-48271180D02*
X88980228Y-48318799D01*
X88980228Y-48318799D02*
X89075466Y-48366418D01*
X89075466Y-48366418D02*
X89265942Y-48366418D01*
X89265942Y-48366418D02*
X89361180Y-48318799D01*
X89361180Y-48318799D02*
X89408800Y-48271180D01*
X89408800Y-48271180D02*
X89456419Y-48175942D01*
X89456419Y-48175942D02*
X89456419Y-47985466D01*
X89456419Y-47985466D02*
X89408800Y-47890228D01*
X89408800Y-47890228D02*
X89361180Y-47842609D01*
X89361180Y-47842609D02*
X89265942Y-47794990D01*
X89265942Y-47794990D02*
X89075466Y-47794990D01*
X89075466Y-47794990D02*
X88980228Y-47842609D01*
X88980228Y-47842609D02*
X88932609Y-47890228D01*
X88932609Y-47890228D02*
X88884990Y-47985466D01*
X82418419Y-130604419D02*
X82418419Y-129604419D01*
X83466037Y-130509180D02*
X83418418Y-130556800D01*
X83418418Y-130556800D02*
X83275561Y-130604419D01*
X83275561Y-130604419D02*
X83180323Y-130604419D01*
X83180323Y-130604419D02*
X83037466Y-130556800D01*
X83037466Y-130556800D02*
X82942228Y-130461561D01*
X82942228Y-130461561D02*
X82894609Y-130366323D01*
X82894609Y-130366323D02*
X82846990Y-130175847D01*
X82846990Y-130175847D02*
X82846990Y-130032990D01*
X82846990Y-130032990D02*
X82894609Y-129842514D01*
X82894609Y-129842514D02*
X82942228Y-129747276D01*
X82942228Y-129747276D02*
X83037466Y-129652038D01*
X83037466Y-129652038D02*
X83180323Y-129604419D01*
X83180323Y-129604419D02*
X83275561Y-129604419D01*
X83275561Y-129604419D02*
X83418418Y-129652038D01*
X83418418Y-129652038D02*
X83466037Y-129699657D01*
X84418418Y-130604419D02*
X83846990Y-130604419D01*
X84132704Y-130604419D02*
X84132704Y-129604419D01*
X84132704Y-129604419D02*
X84037466Y-129747276D01*
X84037466Y-129747276D02*
X83942228Y-129842514D01*
X83942228Y-129842514D02*
X83846990Y-129890133D01*
X85370799Y-130604419D02*
X84799371Y-130604419D01*
X85085085Y-130604419D02*
X85085085Y-129604419D01*
X85085085Y-129604419D02*
X84989847Y-129747276D01*
X84989847Y-129747276D02*
X84894609Y-129842514D01*
X84894609Y-129842514D02*
X84799371Y-129890133D01*
X63142019Y-53300189D02*
X62142019Y-53300189D01*
X63046780Y-52252571D02*
X63094400Y-52300190D01*
X63094400Y-52300190D02*
X63142019Y-52443047D01*
X63142019Y-52443047D02*
X63142019Y-52538285D01*
X63142019Y-52538285D02*
X63094400Y-52681142D01*
X63094400Y-52681142D02*
X62999161Y-52776380D01*
X62999161Y-52776380D02*
X62903923Y-52823999D01*
X62903923Y-52823999D02*
X62713447Y-52871618D01*
X62713447Y-52871618D02*
X62570590Y-52871618D01*
X62570590Y-52871618D02*
X62380114Y-52823999D01*
X62380114Y-52823999D02*
X62284876Y-52776380D01*
X62284876Y-52776380D02*
X62189638Y-52681142D01*
X62189638Y-52681142D02*
X62142019Y-52538285D01*
X62142019Y-52538285D02*
X62142019Y-52443047D01*
X62142019Y-52443047D02*
X62189638Y-52300190D01*
X62189638Y-52300190D02*
X62237257Y-52252571D01*
X63142019Y-51300190D02*
X63142019Y-51871618D01*
X63142019Y-51585904D02*
X62142019Y-51585904D01*
X62142019Y-51585904D02*
X62284876Y-51681142D01*
X62284876Y-51681142D02*
X62380114Y-51776380D01*
X62380114Y-51776380D02*
X62427733Y-51871618D01*
X63040419Y-71080189D02*
X62040419Y-71080189D01*
X62945180Y-70032571D02*
X62992800Y-70080190D01*
X62992800Y-70080190D02*
X63040419Y-70223047D01*
X63040419Y-70223047D02*
X63040419Y-70318285D01*
X63040419Y-70318285D02*
X62992800Y-70461142D01*
X62992800Y-70461142D02*
X62897561Y-70556380D01*
X62897561Y-70556380D02*
X62802323Y-70603999D01*
X62802323Y-70603999D02*
X62611847Y-70651618D01*
X62611847Y-70651618D02*
X62468990Y-70651618D01*
X62468990Y-70651618D02*
X62278514Y-70603999D01*
X62278514Y-70603999D02*
X62183276Y-70556380D01*
X62183276Y-70556380D02*
X62088038Y-70461142D01*
X62088038Y-70461142D02*
X62040419Y-70318285D01*
X62040419Y-70318285D02*
X62040419Y-70223047D01*
X62040419Y-70223047D02*
X62088038Y-70080190D01*
X62088038Y-70080190D02*
X62135657Y-70032571D01*
X62135657Y-69651618D02*
X62088038Y-69603999D01*
X62088038Y-69603999D02*
X62040419Y-69508761D01*
X62040419Y-69508761D02*
X62040419Y-69270666D01*
X62040419Y-69270666D02*
X62088038Y-69175428D01*
X62088038Y-69175428D02*
X62135657Y-69127809D01*
X62135657Y-69127809D02*
X62230895Y-69080190D01*
X62230895Y-69080190D02*
X62326133Y-69080190D01*
X62326133Y-69080190D02*
X62468990Y-69127809D01*
X62468990Y-69127809D02*
X63040419Y-69699237D01*
X63040419Y-69699237D02*
X63040419Y-69080190D01*
X51340419Y-130938494D02*
X50340419Y-130938494D01*
X50340419Y-130938494D02*
X50340419Y-130557542D01*
X50340419Y-130557542D02*
X50388038Y-130462304D01*
X50388038Y-130462304D02*
X50435657Y-130414685D01*
X50435657Y-130414685D02*
X50530895Y-130367066D01*
X50530895Y-130367066D02*
X50673752Y-130367066D01*
X50673752Y-130367066D02*
X50768990Y-130414685D01*
X50768990Y-130414685D02*
X50816609Y-130462304D01*
X50816609Y-130462304D02*
X50864228Y-130557542D01*
X50864228Y-130557542D02*
X50864228Y-130938494D01*
X51340419Y-129414685D02*
X51340419Y-129986113D01*
X51340419Y-129700399D02*
X50340419Y-129700399D01*
X50340419Y-129700399D02*
X50483276Y-129795637D01*
X50483276Y-129795637D02*
X50578514Y-129890875D01*
X50578514Y-129890875D02*
X50626133Y-129986113D01*
X113425410Y-106984219D02*
X113425410Y-105984219D01*
X114473028Y-106888980D02*
X114425409Y-106936600D01*
X114425409Y-106936600D02*
X114282552Y-106984219D01*
X114282552Y-106984219D02*
X114187314Y-106984219D01*
X114187314Y-106984219D02*
X114044457Y-106936600D01*
X114044457Y-106936600D02*
X113949219Y-106841361D01*
X113949219Y-106841361D02*
X113901600Y-106746123D01*
X113901600Y-106746123D02*
X113853981Y-106555647D01*
X113853981Y-106555647D02*
X113853981Y-106412790D01*
X113853981Y-106412790D02*
X113901600Y-106222314D01*
X113901600Y-106222314D02*
X113949219Y-106127076D01*
X113949219Y-106127076D02*
X114044457Y-106031838D01*
X114044457Y-106031838D02*
X114187314Y-105984219D01*
X114187314Y-105984219D02*
X114282552Y-105984219D01*
X114282552Y-105984219D02*
X114425409Y-106031838D01*
X114425409Y-106031838D02*
X114473028Y-106079457D01*
X114806362Y-105984219D02*
X115473028Y-105984219D01*
X115473028Y-105984219D02*
X115044457Y-106984219D01*
X89304019Y-94924380D02*
X88304019Y-94924380D01*
X89208780Y-93876762D02*
X89256400Y-93924381D01*
X89256400Y-93924381D02*
X89304019Y-94067238D01*
X89304019Y-94067238D02*
X89304019Y-94162476D01*
X89304019Y-94162476D02*
X89256400Y-94305333D01*
X89256400Y-94305333D02*
X89161161Y-94400571D01*
X89161161Y-94400571D02*
X89065923Y-94448190D01*
X89065923Y-94448190D02*
X88875447Y-94495809D01*
X88875447Y-94495809D02*
X88732590Y-94495809D01*
X88732590Y-94495809D02*
X88542114Y-94448190D01*
X88542114Y-94448190D02*
X88446876Y-94400571D01*
X88446876Y-94400571D02*
X88351638Y-94305333D01*
X88351638Y-94305333D02*
X88304019Y-94162476D01*
X88304019Y-94162476D02*
X88304019Y-94067238D01*
X88304019Y-94067238D02*
X88351638Y-93924381D01*
X88351638Y-93924381D02*
X88399257Y-93876762D01*
X89304019Y-92924381D02*
X89304019Y-93495809D01*
X89304019Y-93210095D02*
X88304019Y-93210095D01*
X88304019Y-93210095D02*
X88446876Y-93305333D01*
X88446876Y-93305333D02*
X88542114Y-93400571D01*
X88542114Y-93400571D02*
X88589733Y-93495809D01*
X88304019Y-92305333D02*
X88304019Y-92210095D01*
X88304019Y-92210095D02*
X88351638Y-92114857D01*
X88351638Y-92114857D02*
X88399257Y-92067238D01*
X88399257Y-92067238D02*
X88494495Y-92019619D01*
X88494495Y-92019619D02*
X88684971Y-91972000D01*
X88684971Y-91972000D02*
X88923066Y-91972000D01*
X88923066Y-91972000D02*
X89113542Y-92019619D01*
X89113542Y-92019619D02*
X89208780Y-92067238D01*
X89208780Y-92067238D02*
X89256400Y-92114857D01*
X89256400Y-92114857D02*
X89304019Y-92210095D01*
X89304019Y-92210095D02*
X89304019Y-92305333D01*
X89304019Y-92305333D02*
X89256400Y-92400571D01*
X89256400Y-92400571D02*
X89208780Y-92448190D01*
X89208780Y-92448190D02*
X89113542Y-92495809D01*
X89113542Y-92495809D02*
X88923066Y-92543428D01*
X88923066Y-92543428D02*
X88684971Y-92543428D01*
X88684971Y-92543428D02*
X88494495Y-92495809D01*
X88494495Y-92495809D02*
X88399257Y-92448190D01*
X88399257Y-92448190D02*
X88351638Y-92400571D01*
X88351638Y-92400571D02*
X88304019Y-92305333D01*
X59179619Y-83424589D02*
X58179619Y-83424589D01*
X59084380Y-82376971D02*
X59132000Y-82424590D01*
X59132000Y-82424590D02*
X59179619Y-82567447D01*
X59179619Y-82567447D02*
X59179619Y-82662685D01*
X59179619Y-82662685D02*
X59132000Y-82805542D01*
X59132000Y-82805542D02*
X59036761Y-82900780D01*
X59036761Y-82900780D02*
X58941523Y-82948399D01*
X58941523Y-82948399D02*
X58751047Y-82996018D01*
X58751047Y-82996018D02*
X58608190Y-82996018D01*
X58608190Y-82996018D02*
X58417714Y-82948399D01*
X58417714Y-82948399D02*
X58322476Y-82900780D01*
X58322476Y-82900780D02*
X58227238Y-82805542D01*
X58227238Y-82805542D02*
X58179619Y-82662685D01*
X58179619Y-82662685D02*
X58179619Y-82567447D01*
X58179619Y-82567447D02*
X58227238Y-82424590D01*
X58227238Y-82424590D02*
X58274857Y-82376971D01*
X58179619Y-82043637D02*
X58179619Y-81424590D01*
X58179619Y-81424590D02*
X58560571Y-81757923D01*
X58560571Y-81757923D02*
X58560571Y-81615066D01*
X58560571Y-81615066D02*
X58608190Y-81519828D01*
X58608190Y-81519828D02*
X58655809Y-81472209D01*
X58655809Y-81472209D02*
X58751047Y-81424590D01*
X58751047Y-81424590D02*
X58989142Y-81424590D01*
X58989142Y-81424590D02*
X59084380Y-81472209D01*
X59084380Y-81472209D02*
X59132000Y-81519828D01*
X59132000Y-81519828D02*
X59179619Y-81615066D01*
X59179619Y-81615066D02*
X59179619Y-81900780D01*
X59179619Y-81900780D02*
X59132000Y-81996018D01*
X59132000Y-81996018D02*
X59084380Y-82043637D01*
X89405619Y-67676589D02*
X88405619Y-67676589D01*
X89310380Y-66628971D02*
X89358000Y-66676590D01*
X89358000Y-66676590D02*
X89405619Y-66819447D01*
X89405619Y-66819447D02*
X89405619Y-66914685D01*
X89405619Y-66914685D02*
X89358000Y-67057542D01*
X89358000Y-67057542D02*
X89262761Y-67152780D01*
X89262761Y-67152780D02*
X89167523Y-67200399D01*
X89167523Y-67200399D02*
X88977047Y-67248018D01*
X88977047Y-67248018D02*
X88834190Y-67248018D01*
X88834190Y-67248018D02*
X88643714Y-67200399D01*
X88643714Y-67200399D02*
X88548476Y-67152780D01*
X88548476Y-67152780D02*
X88453238Y-67057542D01*
X88453238Y-67057542D02*
X88405619Y-66914685D01*
X88405619Y-66914685D02*
X88405619Y-66819447D01*
X88405619Y-66819447D02*
X88453238Y-66676590D01*
X88453238Y-66676590D02*
X88500857Y-66628971D01*
X89405619Y-66152780D02*
X89405619Y-65962304D01*
X89405619Y-65962304D02*
X89358000Y-65867066D01*
X89358000Y-65867066D02*
X89310380Y-65819447D01*
X89310380Y-65819447D02*
X89167523Y-65724209D01*
X89167523Y-65724209D02*
X88977047Y-65676590D01*
X88977047Y-65676590D02*
X88596095Y-65676590D01*
X88596095Y-65676590D02*
X88500857Y-65724209D01*
X88500857Y-65724209D02*
X88453238Y-65771828D01*
X88453238Y-65771828D02*
X88405619Y-65867066D01*
X88405619Y-65867066D02*
X88405619Y-66057542D01*
X88405619Y-66057542D02*
X88453238Y-66152780D01*
X88453238Y-66152780D02*
X88500857Y-66200399D01*
X88500857Y-66200399D02*
X88596095Y-66248018D01*
X88596095Y-66248018D02*
X88834190Y-66248018D01*
X88834190Y-66248018D02*
X88929428Y-66200399D01*
X88929428Y-66200399D02*
X88977047Y-66152780D01*
X88977047Y-66152780D02*
X89024666Y-66057542D01*
X89024666Y-66057542D02*
X89024666Y-65867066D01*
X89024666Y-65867066D02*
X88977047Y-65771828D01*
X88977047Y-65771828D02*
X88929428Y-65724209D01*
X88929428Y-65724209D02*
X88834190Y-65676590D01*
X62024419Y-97292989D02*
X61024419Y-97292989D01*
X61929180Y-96245371D02*
X61976800Y-96292990D01*
X61976800Y-96292990D02*
X62024419Y-96435847D01*
X62024419Y-96435847D02*
X62024419Y-96531085D01*
X62024419Y-96531085D02*
X61976800Y-96673942D01*
X61976800Y-96673942D02*
X61881561Y-96769180D01*
X61881561Y-96769180D02*
X61786323Y-96816799D01*
X61786323Y-96816799D02*
X61595847Y-96864418D01*
X61595847Y-96864418D02*
X61452990Y-96864418D01*
X61452990Y-96864418D02*
X61262514Y-96816799D01*
X61262514Y-96816799D02*
X61167276Y-96769180D01*
X61167276Y-96769180D02*
X61072038Y-96673942D01*
X61072038Y-96673942D02*
X61024419Y-96531085D01*
X61024419Y-96531085D02*
X61024419Y-96435847D01*
X61024419Y-96435847D02*
X61072038Y-96292990D01*
X61072038Y-96292990D02*
X61119657Y-96245371D01*
X61024419Y-95388228D02*
X61024419Y-95578704D01*
X61024419Y-95578704D02*
X61072038Y-95673942D01*
X61072038Y-95673942D02*
X61119657Y-95721561D01*
X61119657Y-95721561D02*
X61262514Y-95816799D01*
X61262514Y-95816799D02*
X61452990Y-95864418D01*
X61452990Y-95864418D02*
X61833942Y-95864418D01*
X61833942Y-95864418D02*
X61929180Y-95816799D01*
X61929180Y-95816799D02*
X61976800Y-95769180D01*
X61976800Y-95769180D02*
X62024419Y-95673942D01*
X62024419Y-95673942D02*
X62024419Y-95483466D01*
X62024419Y-95483466D02*
X61976800Y-95388228D01*
X61976800Y-95388228D02*
X61929180Y-95340609D01*
X61929180Y-95340609D02*
X61833942Y-95292990D01*
X61833942Y-95292990D02*
X61595847Y-95292990D01*
X61595847Y-95292990D02*
X61500609Y-95340609D01*
X61500609Y-95340609D02*
X61452990Y-95388228D01*
X61452990Y-95388228D02*
X61405371Y-95483466D01*
X61405371Y-95483466D02*
X61405371Y-95673942D01*
X61405371Y-95673942D02*
X61452990Y-95769180D01*
X61452990Y-95769180D02*
X61500609Y-95816799D01*
X61500609Y-95816799D02*
X61595847Y-95864418D01*
X96356610Y-106525219D02*
X96356610Y-105525219D01*
X97404228Y-106429980D02*
X97356609Y-106477600D01*
X97356609Y-106477600D02*
X97213752Y-106525219D01*
X97213752Y-106525219D02*
X97118514Y-106525219D01*
X97118514Y-106525219D02*
X96975657Y-106477600D01*
X96975657Y-106477600D02*
X96880419Y-106382361D01*
X96880419Y-106382361D02*
X96832800Y-106287123D01*
X96832800Y-106287123D02*
X96785181Y-106096647D01*
X96785181Y-106096647D02*
X96785181Y-105953790D01*
X96785181Y-105953790D02*
X96832800Y-105763314D01*
X96832800Y-105763314D02*
X96880419Y-105668076D01*
X96880419Y-105668076D02*
X96975657Y-105572838D01*
X96975657Y-105572838D02*
X97118514Y-105525219D01*
X97118514Y-105525219D02*
X97213752Y-105525219D01*
X97213752Y-105525219D02*
X97356609Y-105572838D01*
X97356609Y-105572838D02*
X97404228Y-105620457D01*
X98261371Y-105858552D02*
X98261371Y-106525219D01*
X98023276Y-105477600D02*
X97785181Y-106191885D01*
X97785181Y-106191885D02*
X98404228Y-106191885D01*
D11*
%TO.C,IC8*%
X89856000Y-55329600D02*
X125536000Y-55329600D01*
X125536000Y-55329600D02*
X125536000Y-42409600D01*
X89856000Y-49869600D02*
X89856000Y-55329600D01*
X89856000Y-42409600D02*
X89856000Y-47869600D01*
X125536000Y-42409600D02*
X89856000Y-42409600D01*
X89856000Y-49869600D02*
G75*
G03*
X89856000Y-47869600I0J1000000D01*
G01*
%TO.C,IC11*%
X92363600Y-128034400D02*
X92363600Y-97314400D01*
X92363600Y-97314400D02*
X74463600Y-97314400D01*
X89873600Y-127974400D02*
X89873600Y-97374400D01*
X89873600Y-97374400D02*
X76953600Y-97374400D01*
X84413600Y-127974400D02*
X89873600Y-127974400D01*
X76953600Y-127974400D02*
X82413600Y-127974400D01*
X76953600Y-97374400D02*
X76953600Y-127974400D01*
X74463600Y-128034400D02*
X92363600Y-128034400D01*
X74463600Y-97314400D02*
X74463600Y-128034400D01*
X84413600Y-127974400D02*
G75*
G03*
X82413600Y-127974400I-1000000J0D01*
G01*
%TO.C,IC1*%
X61246400Y-50250400D02*
X86886400Y-50250400D01*
X86886400Y-50250400D02*
X86886400Y-39970400D01*
X61306400Y-47760400D02*
X86826400Y-47760400D01*
X86826400Y-47760400D02*
X86826400Y-42460400D01*
X61306400Y-46110400D02*
X61306400Y-47760400D01*
X61306400Y-42460400D02*
X61306400Y-44110400D01*
X86826400Y-42460400D02*
X61306400Y-42460400D01*
X61246400Y-39970400D02*
X61246400Y-50250400D01*
X86886400Y-39970400D02*
X61246400Y-39970400D01*
X61306400Y-46110400D02*
G75*
G03*
X61306400Y-44110400I0J1000000D01*
G01*
%TO.C,IC2*%
X61246400Y-68030400D02*
X86886400Y-68030400D01*
X86886400Y-68030400D02*
X86886400Y-57750400D01*
X61306400Y-65540400D02*
X86826400Y-65540400D01*
X86826400Y-65540400D02*
X86826400Y-60240400D01*
X61306400Y-63890400D02*
X61306400Y-65540400D01*
X61306400Y-60240400D02*
X61306400Y-61890400D01*
X86826400Y-60240400D02*
X61306400Y-60240400D01*
X61246400Y-57750400D02*
X61246400Y-68030400D01*
X86886400Y-57750400D02*
X61246400Y-57750400D01*
X61306400Y-63890400D02*
G75*
G03*
X61306400Y-61890400I0J1000000D01*
G01*
%TO.C,P1*%
X45145600Y-133010400D02*
X50145600Y-133010400D01*
X50145600Y-133010400D02*
X50145600Y-127490400D01*
X49145600Y-127491400D02*
X49145600Y-126215400D01*
X50145600Y-127490400D02*
X49145600Y-127490400D01*
X49585600Y-126815400D02*
X50185600Y-126815400D01*
X50185600Y-126815400D02*
X49885600Y-126215400D01*
X49885600Y-126215400D02*
X49585600Y-126815400D01*
X49145600Y-124025400D02*
X49145600Y-123449400D01*
X49145600Y-121710400D02*
X49145600Y-120909400D01*
X49145600Y-119170400D02*
X49145600Y-118369400D01*
X49145600Y-116630400D02*
X49145600Y-115829400D01*
X49145600Y-114090400D02*
X49145600Y-113289400D01*
X49145600Y-111550400D02*
X49145600Y-110749400D01*
X49145600Y-109010400D02*
X49145600Y-108209400D01*
X49145600Y-106470400D02*
X49145600Y-105669400D01*
X49145600Y-103930400D02*
X49145600Y-103129400D01*
X49145600Y-101390400D02*
X49145600Y-100589400D01*
X49145600Y-98850400D02*
X49145600Y-98049400D01*
X49145600Y-96310400D02*
X49145600Y-95509400D01*
X49145600Y-93770400D02*
X49145600Y-92969400D01*
X49145600Y-91230400D02*
X49145600Y-90429400D01*
X49145600Y-88690400D02*
X49145600Y-87889400D01*
X49145600Y-86150400D02*
X49145600Y-85349400D01*
X49145600Y-83610400D02*
X49145600Y-82809400D01*
X49145600Y-81070400D02*
X49145600Y-80269400D01*
X49145600Y-78530400D02*
X49145600Y-77729400D01*
X49145600Y-75990400D02*
X49145600Y-75189400D01*
X49145600Y-73450400D02*
X49145600Y-72649400D01*
X49145600Y-70910400D02*
X49145600Y-70109400D01*
X49145600Y-68370400D02*
X49145600Y-67569400D01*
X49145600Y-65830400D02*
X49145600Y-65029400D01*
X49145600Y-63290400D02*
X49145600Y-62489400D01*
X49145600Y-60750400D02*
X49145600Y-59949400D01*
X49145600Y-58210400D02*
X49145600Y-57409400D01*
X49145600Y-55670400D02*
X49145600Y-54869400D01*
X49145600Y-53130400D02*
X49145600Y-52329400D01*
X49145600Y-50590400D02*
X49145600Y-49789400D01*
X49145600Y-48050400D02*
X49145600Y-47249400D01*
X49145600Y-45510400D02*
X49145600Y-44010400D01*
X50145600Y-44010400D02*
X49145600Y-44010400D01*
X45145600Y-38490400D02*
X50145600Y-38490400D01*
X50145600Y-38490400D02*
X50145600Y-44010400D01*
%TO.C,IC7*%
X109261600Y-107469400D02*
X109261600Y-125489400D01*
X109261600Y-125489400D02*
X119541600Y-125489400D01*
X111751600Y-107529400D02*
X111751600Y-125429400D01*
X111751600Y-125429400D02*
X117051600Y-125429400D01*
X113401600Y-107529400D02*
X111751600Y-107529400D01*
X117051600Y-107529400D02*
X115401600Y-107529400D01*
X117051600Y-125429400D02*
X117051600Y-107529400D01*
X119541600Y-107469400D02*
X109261600Y-107469400D01*
X119541600Y-125489400D02*
X119541600Y-107469400D01*
X113401600Y-107529400D02*
G75*
G03*
X115401600Y-107529400I1000000J0D01*
G01*
%TO.C,IC10*%
X89856000Y-92743800D02*
X125536000Y-92743800D01*
X125536000Y-92743800D02*
X125536000Y-79823800D01*
X89856000Y-87283800D02*
X89856000Y-92743800D01*
X89856000Y-79823800D02*
X89856000Y-85283800D01*
X125536000Y-79823800D02*
X89856000Y-79823800D01*
X89856000Y-87283800D02*
G75*
G03*
X89856000Y-85283800I0J1000000D01*
G01*
%TO.C,IC3*%
X61246400Y-83270400D02*
X86886400Y-83270400D01*
X86886400Y-83270400D02*
X86886400Y-72990400D01*
X61306400Y-80780400D02*
X86826400Y-80780400D01*
X86826400Y-80780400D02*
X86826400Y-75480400D01*
X61306400Y-79130400D02*
X61306400Y-80780400D01*
X61306400Y-75480400D02*
X61306400Y-77130400D01*
X86826400Y-75480400D02*
X61306400Y-75480400D01*
X61246400Y-72990400D02*
X61246400Y-83270400D01*
X86886400Y-72990400D02*
X61246400Y-72990400D01*
X61306400Y-79130400D02*
G75*
G03*
X61306400Y-77130400I0J1000000D01*
G01*
%TO.C,IC9*%
X89856000Y-74024000D02*
X125536000Y-74024000D01*
X125536000Y-74024000D02*
X125536000Y-61104000D01*
X89856000Y-68564000D02*
X89856000Y-74024000D01*
X89856000Y-61104000D02*
X89856000Y-66564000D01*
X125536000Y-61104000D02*
X89856000Y-61104000D01*
X89856000Y-68564000D02*
G75*
G03*
X89856000Y-66564000I0J1000000D01*
G01*
%TO.C,IC6*%
X61144800Y-94548000D02*
X81704800Y-94548000D01*
X81704800Y-94548000D02*
X81704800Y-84268000D01*
X61204800Y-92058000D02*
X81644800Y-92058000D01*
X81644800Y-92058000D02*
X81644800Y-86758000D01*
X61204800Y-90408000D02*
X61204800Y-92058000D01*
X61204800Y-86758000D02*
X61204800Y-88408000D01*
X81644800Y-86758000D02*
X61204800Y-86758000D01*
X61144800Y-84268000D02*
X61144800Y-94548000D01*
X81704800Y-84268000D02*
X61144800Y-84268000D01*
X61204800Y-90408000D02*
G75*
G03*
X61204800Y-88408000I0J1000000D01*
G01*
%TO.C,IC4*%
X96561600Y-107474400D02*
X96561600Y-128034400D01*
X96561600Y-128034400D02*
X106841600Y-128034400D01*
X99051600Y-107534400D02*
X99051600Y-127974400D01*
X99051600Y-127974400D02*
X104351600Y-127974400D01*
X100701600Y-107534400D02*
X99051600Y-107534400D01*
X104351600Y-107534400D02*
X102701600Y-107534400D01*
X104351600Y-127974400D02*
X104351600Y-107534400D01*
X106841600Y-107474400D02*
X96561600Y-107474400D01*
X106841600Y-128034400D02*
X106841600Y-107474400D01*
X100701600Y-107534400D02*
G75*
G03*
X102701600Y-107534400I1000000J0D01*
G01*
%TD*%
M02*
