%TF.GenerationSoftware,KiCad,Pcbnew,7.0.9*%
%TF.CreationDate,2024-04-21T12:45:51+02:00*%
%TF.ProjectId,C_-836,43c52d38-3336-42e6-9b69-6361645f7063,rev?*%
%TF.SameCoordinates,Original*%
%TF.FileFunction,Copper,L2,Bot*%
%TF.FilePolarity,Positive*%
%FSLAX46Y46*%
G04 Gerber Fmt 4.6, Leading zero omitted, Abs format (unit mm)*
G04 Created by KiCad (PCBNEW 7.0.9) date 2024-04-21 12:45:51*
%MOMM*%
%LPD*%
G01*
G04 APERTURE LIST*
G04 Aperture macros list*
%AMRoundRect*
0 Rectangle with rounded corners*
0 $1 Rounding radius*
0 $2 $3 $4 $5 $6 $7 $8 $9 X,Y pos of 4 corners*
0 Add a 4 corners polygon primitive as box body*
4,1,4,$2,$3,$4,$5,$6,$7,$8,$9,$2,$3,0*
0 Add four circle primitives for the rounded corners*
1,1,$1+$1,$2,$3*
1,1,$1+$1,$4,$5*
1,1,$1+$1,$6,$7*
1,1,$1+$1,$8,$9*
0 Add four rect primitives between the rounded corners*
20,1,$1+$1,$2,$3,$4,$5,0*
20,1,$1+$1,$4,$5,$6,$7,0*
20,1,$1+$1,$6,$7,$8,$9,0*
20,1,$1+$1,$8,$9,$2,$3,0*%
G04 Aperture macros list end*
%TA.AperFunction,ComponentPad*%
%ADD10R,1.600000X1.600000*%
%TD*%
%TA.AperFunction,ComponentPad*%
%ADD11O,1.600000X1.600000*%
%TD*%
%TA.AperFunction,ComponentPad*%
%ADD12RoundRect,0.249999X0.525001X-0.525001X0.525001X0.525001X-0.525001X0.525001X-0.525001X-0.525001X0*%
%TD*%
%TA.AperFunction,ComponentPad*%
%ADD13C,1.550000*%
%TD*%
%TA.AperFunction,ViaPad*%
%ADD14C,0.800000*%
%TD*%
%TA.AperFunction,Conductor*%
%ADD15C,0.250000*%
%TD*%
%TA.AperFunction,Conductor*%
%ADD16C,1.000000*%
%TD*%
G04 APERTURE END LIST*
D10*
%TO.P,IC8,1,A15*%
%TO.N,/A15*%
X91186000Y-56489600D03*
D11*
%TO.P,IC8,2,A12*%
%TO.N,/A12*%
X93726000Y-56489600D03*
%TO.P,IC8,3,A7*%
%TO.N,/A7*%
X96266000Y-56489600D03*
%TO.P,IC8,4,A6*%
%TO.N,/A6*%
X98806000Y-56489600D03*
%TO.P,IC8,5,A5*%
%TO.N,/A5*%
X101346000Y-56489600D03*
%TO.P,IC8,6,A4*%
%TO.N,/A4*%
X103886000Y-56489600D03*
%TO.P,IC8,7,A3*%
%TO.N,/A3*%
X106426000Y-56489600D03*
%TO.P,IC8,8,A2*%
%TO.N,/A2*%
X108966000Y-56489600D03*
%TO.P,IC8,9,A1*%
%TO.N,/A1*%
X111506000Y-56489600D03*
%TO.P,IC8,10,A0*%
%TO.N,/A0*%
X114046000Y-56489600D03*
%TO.P,IC8,11,D0*%
%TO.N,/D0*%
X116586000Y-56489600D03*
%TO.P,IC8,12,D1*%
%TO.N,/D1*%
X119126000Y-56489600D03*
%TO.P,IC8,13,D2*%
%TO.N,/D2*%
X121666000Y-56489600D03*
%TO.P,IC8,14,GND*%
%TO.N,GND*%
X124206000Y-56489600D03*
%TO.P,IC8,15,D3*%
%TO.N,/D3*%
X124206000Y-41249600D03*
%TO.P,IC8,16,D4*%
%TO.N,/D4*%
X121666000Y-41249600D03*
%TO.P,IC8,17,D5*%
%TO.N,/D5*%
X119126000Y-41249600D03*
%TO.P,IC8,18,D6*%
%TO.N,/D6*%
X116586000Y-41249600D03*
%TO.P,IC8,19,D7*%
%TO.N,/D7*%
X114046000Y-41249600D03*
%TO.P,IC8,20,~{CE}*%
%TO.N,Net-(IC4-O3)*%
X111506000Y-41249600D03*
%TO.P,IC8,21,A10*%
%TO.N,/A10*%
X108966000Y-41249600D03*
%TO.P,IC8,22,~{OE}*%
%TO.N,Net-(IC4-O3)*%
X106426000Y-41249600D03*
%TO.P,IC8,23,A11*%
%TO.N,/A11*%
X103886000Y-41249600D03*
%TO.P,IC8,24,A9*%
%TO.N,/A9*%
X101346000Y-41249600D03*
%TO.P,IC8,25,A8*%
%TO.N,/A8*%
X98806000Y-41249600D03*
%TO.P,IC8,26,A13*%
%TO.N,/A13*%
X96266000Y-41249600D03*
%TO.P,IC8,27,A14*%
%TO.N,/A14*%
X93726000Y-41249600D03*
%TO.P,IC8,28,VCC*%
%TO.N,+5V*%
X91186000Y-41249600D03*
%TD*%
D10*
%TO.P,IC11,1,A7*%
%TO.N,/BA7*%
X91033600Y-126644400D03*
D11*
%TO.P,IC11,2,A6*%
%TO.N,/BA6*%
X91033600Y-124104400D03*
%TO.P,IC11,3,A5*%
%TO.N,/BA5*%
X91033600Y-121564400D03*
%TO.P,IC11,4,A4*%
%TO.N,/BA4*%
X91033600Y-119024400D03*
%TO.P,IC11,5,A3*%
%TO.N,/BA3*%
X91033600Y-116484400D03*
%TO.P,IC11,6,A2*%
%TO.N,/BA2*%
X91033600Y-113944400D03*
%TO.P,IC11,7,A1*%
%TO.N,/BA1*%
X91033600Y-111404400D03*
%TO.P,IC11,8,A0*%
%TO.N,/BA0*%
X91033600Y-108864400D03*
%TO.P,IC11,9,Q0*%
%TO.N,/BD0*%
X91033600Y-106324400D03*
%TO.P,IC11,10,Q1*%
%TO.N,/BD1*%
X91033600Y-103784400D03*
%TO.P,IC11,11,Q2*%
%TO.N,/BD2*%
X91033600Y-101244400D03*
%TO.P,IC11,12,GND*%
%TO.N,GND*%
X91033600Y-98704400D03*
%TO.P,IC11,13,Q3*%
%TO.N,/BD3*%
X75793600Y-98704400D03*
%TO.P,IC11,14,Q4*%
%TO.N,/BD4*%
X75793600Y-101244400D03*
%TO.P,IC11,15,Q5*%
%TO.N,/BD5*%
X75793600Y-103784400D03*
%TO.P,IC11,16,Q6*%
%TO.N,/BD6*%
X75793600Y-106324400D03*
%TO.P,IC11,17,Q7*%
%TO.N,/BD7*%
X75793600Y-108864400D03*
%TO.P,IC11,18,~{CS}*%
%TO.N,E400*%
X75793600Y-111404400D03*
%TO.P,IC11,19,A10*%
%TO.N,GND*%
X75793600Y-113944400D03*
%TO.P,IC11,20,~{OE}*%
%TO.N,E400*%
X75793600Y-116484400D03*
%TO.P,IC11,21,~{WR}*%
%TO.N,R{slash}~{W}*%
X75793600Y-119024400D03*
%TO.P,IC11,22,A9*%
%TO.N,/BA9*%
X75793600Y-121564400D03*
%TO.P,IC11,23,A8*%
%TO.N,/BA8*%
X75793600Y-124104400D03*
%TO.P,IC11,24,Vcc*%
%TO.N,+5V*%
X75793600Y-126644400D03*
%TD*%
D10*
%TO.P,IC1,1,OEa*%
%TO.N,Net-(IC1-OEa)*%
X62636400Y-48920400D03*
D11*
%TO.P,IC1,2,I0a*%
%TO.N,/D0*%
X65176400Y-48920400D03*
%TO.P,IC1,3,O3b*%
%TO.N,/BD5*%
X67716400Y-48920400D03*
%TO.P,IC1,4,I1a*%
%TO.N,/D1*%
X70256400Y-48920400D03*
%TO.P,IC1,5,O2b*%
%TO.N,/BD6*%
X72796400Y-48920400D03*
%TO.P,IC1,6,I2a*%
%TO.N,/D3*%
X75336400Y-48920400D03*
%TO.P,IC1,7,O1b*%
%TO.N,/BD7*%
X77876400Y-48920400D03*
%TO.P,IC1,8,I3a*%
%TO.N,/D2*%
X80416400Y-48920400D03*
%TO.P,IC1,9,O0b*%
%TO.N,/BD4*%
X82956400Y-48920400D03*
%TO.P,IC1,10,GND*%
%TO.N,GND*%
X85496400Y-48920400D03*
%TO.P,IC1,11,I0b*%
%TO.N,/D4*%
X85496400Y-41300400D03*
%TO.P,IC1,12,O3a*%
%TO.N,/BD2*%
X82956400Y-41300400D03*
%TO.P,IC1,13,I1b*%
%TO.N,/D7*%
X80416400Y-41300400D03*
%TO.P,IC1,14,O2a*%
%TO.N,/BD3*%
X77876400Y-41300400D03*
%TO.P,IC1,15,I2b*%
%TO.N,/D6*%
X75336400Y-41300400D03*
%TO.P,IC1,16,O1a*%
%TO.N,/BD1*%
X72796400Y-41300400D03*
%TO.P,IC1,17,I3b*%
%TO.N,/D5*%
X70256400Y-41300400D03*
%TO.P,IC1,18,O0a*%
%TO.N,/BD0*%
X67716400Y-41300400D03*
%TO.P,IC1,19,OEb*%
%TO.N,Net-(IC1-OEa)*%
X65176400Y-41300400D03*
%TO.P,IC1,20,VCC*%
%TO.N,+5V*%
X62636400Y-41300400D03*
%TD*%
D10*
%TO.P,IC2,1,OE*%
%TO.N,GND*%
X62636400Y-66700400D03*
D11*
%TO.P,IC2,2,O0*%
%TO.N,/A0*%
X65176400Y-66700400D03*
%TO.P,IC2,3,D0*%
%TO.N,/BD0*%
X67716400Y-66700400D03*
%TO.P,IC2,4,D1*%
%TO.N,/BD1*%
X70256400Y-66700400D03*
%TO.P,IC2,5,O1*%
%TO.N,/A1*%
X72796400Y-66700400D03*
%TO.P,IC2,6,O2*%
%TO.N,/A3*%
X75336400Y-66700400D03*
%TO.P,IC2,7,D2*%
%TO.N,/BD3*%
X77876400Y-66700400D03*
%TO.P,IC2,8,D3*%
%TO.N,/BD2*%
X80416400Y-66700400D03*
%TO.P,IC2,9,O3*%
%TO.N,/A2*%
X82956400Y-66700400D03*
%TO.P,IC2,10,GND*%
%TO.N,GND*%
X85496400Y-66700400D03*
%TO.P,IC2,11,Cp*%
%TO.N,Net-(IC2-Cp)*%
X85496400Y-59080400D03*
%TO.P,IC2,12,O4*%
%TO.N,/A4*%
X82956400Y-59080400D03*
%TO.P,IC2,13,D4*%
%TO.N,/BD4*%
X80416400Y-59080400D03*
%TO.P,IC2,14,D5*%
%TO.N,/BD7*%
X77876400Y-59080400D03*
%TO.P,IC2,15,O5*%
%TO.N,/A7*%
X75336400Y-59080400D03*
%TO.P,IC2,16,O6*%
%TO.N,/A6*%
X72796400Y-59080400D03*
%TO.P,IC2,17,D6*%
%TO.N,/BD6*%
X70256400Y-59080400D03*
%TO.P,IC2,18,D7*%
%TO.N,/BD5*%
X67716400Y-59080400D03*
%TO.P,IC2,19,O7*%
%TO.N,/A5*%
X65176400Y-59080400D03*
%TO.P,IC2,20,VCC*%
%TO.N,+5V*%
X62636400Y-59080400D03*
%TD*%
D12*
%TO.P,P1,a1,GND*%
%TO.N,GND*%
X49885600Y-125120400D03*
D13*
%TO.P,P1,a2,GND*%
X49885600Y-122580400D03*
%TO.P,P1,a3,GND*%
X49885600Y-120040400D03*
%TO.P,P1,a4,-12V*%
%TO.N,unconnected-(P1--12V-Pada4)*%
X49885600Y-117500400D03*
%TO.P,P1,a5,+12V*%
%TO.N,unconnected-(P1-+12V-Pada5)*%
X49885600Y-114960400D03*
%TO.P,P1,a6,---*%
%TO.N,unconnected-(P1-----Pada6)*%
X49885600Y-112420400D03*
%TO.P,P1,a7,----*%
%TO.N,unconnected-(P1------Pada7)*%
X49885600Y-109880400D03*
%TO.P,P1,a8,BA*%
%TO.N,unconnected-(P1-BA-Pada8)*%
X49885600Y-107340400D03*
%TO.P,P1,a9,----*%
%TO.N,unconnected-(P1------Pada9)*%
X49885600Y-104800400D03*
%TO.P,P1,a10,E400*%
%TO.N,E400*%
X49885600Y-102260400D03*
%TO.P,P1,a11,A14*%
%TO.N,/BA14*%
X49885600Y-99720400D03*
%TO.P,P1,a12,A12*%
%TO.N,/BA12*%
X49885600Y-97180400D03*
%TO.P,P1,a13,A10*%
%TO.N,/BA10*%
X49885600Y-94640400D03*
%TO.P,P1,a14,A8*%
%TO.N,/BA8*%
X49885600Y-92100400D03*
%TO.P,P1,a15,A6*%
%TO.N,/BA6*%
X49885600Y-89560400D03*
%TO.P,P1,a16,A4*%
%TO.N,/BA4*%
X49885600Y-87020400D03*
%TO.P,P1,a17,A2*%
%TO.N,/BA2*%
X49885600Y-84480400D03*
%TO.P,P1,a18,A0*%
%TO.N,/BA0*%
X49885600Y-81940400D03*
%TO.P,P1,a19,I/O-Select*%
%TO.N,I{slash}O*%
X49885600Y-79400400D03*
%TO.P,P1,a20,RESET*%
%TO.N,unconnected-(P1-RESET-Pada20)*%
X49885600Y-76860400D03*
%TO.P,P1,a21,IRQ*%
%TO.N,unconnected-(P1-IRQ-Pada21)*%
X49885600Y-74320400D03*
%TO.P,P1,a22,GND*%
%TO.N,GND*%
X49885600Y-71780400D03*
%TO.P,P1,a23,GND*%
X49885600Y-69240400D03*
%TO.P,P1,a24,GND*%
X49885600Y-66700400D03*
%TO.P,P1,a25,GND*%
X49885600Y-64160400D03*
%TO.P,P1,a26,GND*%
X49885600Y-61620400D03*
%TO.P,P1,a27,GND*%
X49885600Y-59080400D03*
%TO.P,P1,a28,GND*%
X49885600Y-56540400D03*
%TO.P,P1,a29,GND*%
X49885600Y-54000400D03*
%TO.P,P1,a30,+5V*%
%TO.N,+5V*%
X49885600Y-51460400D03*
%TO.P,P1,a31,+5V*%
X49885600Y-48920400D03*
%TO.P,P1,a32,+5V*%
X49885600Y-46380400D03*
%TO.P,P1,c1,GNC*%
%TO.N,GND*%
X54965600Y-125120400D03*
%TO.P,P1,c2,GND*%
X54965600Y-122580400D03*
%TO.P,P1,c3,GND*%
X54965600Y-120040400D03*
%TO.P,P1,c4,-12V*%
%TO.N,unconnected-(P1--12V-Padc4)*%
X54965600Y-117500400D03*
%TO.P,P1,c5,+12V*%
%TO.N,unconnected-(P1-+12V-Padc5)*%
X54965600Y-114960400D03*
%TO.P,P1,c6,EXT-RESET*%
%TO.N,unconnected-(P1-EXT-RESET-Padc6)*%
X54965600Y-112420400D03*
%TO.P,P1,c7,----*%
%TO.N,unconnected-(P1------Padc7)*%
X54965600Y-109880400D03*
%TO.P,P1,c8,HALT*%
%TO.N,unconnected-(P1-HALT-Padc8)*%
X54965600Y-107340400D03*
%TO.P,P1,c9,----*%
%TO.N,unconnected-(P1------Padc9)*%
X54965600Y-104800400D03*
%TO.P,P1,c10,E800*%
%TO.N,unconnected-(P1-E800-Padc10)*%
X54965600Y-102260400D03*
%TO.P,P1,c11,A15*%
%TO.N,/BA15*%
X54965600Y-99720400D03*
%TO.P,P1,c12,A13*%
%TO.N,/BA13*%
X54965600Y-97180400D03*
%TO.P,P1,c13,A11*%
%TO.N,/BA11*%
X54965600Y-94640400D03*
%TO.P,P1,c14,A9*%
%TO.N,/BA9*%
X54965600Y-92100400D03*
%TO.P,P1,c15,A7*%
%TO.N,/BA7*%
X54965600Y-89560400D03*
%TO.P,P1,c16,A5*%
%TO.N,/BA5*%
X54965600Y-87020400D03*
%TO.P,P1,c17,A3*%
%TO.N,/BA3*%
X54965600Y-84480400D03*
%TO.P,P1,c18,A1*%
%TO.N,/BA1*%
X54965600Y-81940400D03*
%TO.P,P1,c19,R/W*%
%TO.N,R{slash}~{W}*%
X54965600Y-79400400D03*
%TO.P,P1,c20,E*%
%TO.N,E*%
X54965600Y-76860400D03*
%TO.P,P1,c21,GND*%
%TO.N,GND*%
X54965600Y-74320400D03*
%TO.P,P1,c22,D0*%
%TO.N,/BD0*%
X54965600Y-71780400D03*
%TO.P,P1,c23,D1*%
%TO.N,/BD1*%
X54965600Y-69240400D03*
%TO.P,P1,c24,D2*%
%TO.N,/BD2*%
X54965600Y-66700400D03*
%TO.P,P1,c25,D3*%
%TO.N,/BD3*%
X54965600Y-64160400D03*
%TO.P,P1,c26,D4*%
%TO.N,/BD4*%
X54965600Y-61620400D03*
%TO.P,P1,c27,D5*%
%TO.N,/BD5*%
X54965600Y-59080400D03*
%TO.P,P1,c28,D6*%
%TO.N,/BD6*%
X54965600Y-56540400D03*
%TO.P,P1,c29,D7*%
%TO.N,/BD7*%
X54965600Y-54000400D03*
%TO.P,P1,c30,+5V*%
%TO.N,+5V*%
X54965600Y-51460400D03*
%TO.P,P1,c31,+5V*%
X54965600Y-48920400D03*
%TO.P,P1,c32,+5V*%
X54965600Y-46380400D03*
%TD*%
D10*
%TO.P,IC7,1*%
%TO.N,+5V*%
X110591600Y-108859400D03*
D11*
%TO.P,IC7,2*%
%TO.N,Net-(IC4-O3)*%
X110591600Y-111399400D03*
%TO.P,IC7,3*%
%TO.N,N/C*%
X110591600Y-113939400D03*
%TO.P,IC7,4*%
%TO.N,Net-(IC4-O4)*%
X110591600Y-116479400D03*
%TO.P,IC7,5*%
%TO.N,Net-(IC10-~{CE})*%
X110591600Y-119019400D03*
%TO.P,IC7,6*%
%TO.N,Net-(IC6-E2)*%
X110591600Y-121559400D03*
%TO.P,IC7,7,GND*%
%TO.N,GND*%
X110591600Y-124099400D03*
%TO.P,IC7,8*%
%TO.N,unconnected-(IC7-Pad8)*%
X118211600Y-124099400D03*
%TO.P,IC7,9*%
%TO.N,GND*%
X118211600Y-121559400D03*
%TO.P,IC7,10*%
X118211600Y-119019400D03*
%TO.P,IC7,11*%
%TO.N,N/C*%
X118211600Y-116479400D03*
%TO.P,IC7,12*%
%TO.N,GND*%
X118211600Y-113939400D03*
%TO.P,IC7,13*%
X118211600Y-111399400D03*
%TO.P,IC7,14,VCC*%
%TO.N,+5V*%
X118211600Y-108859400D03*
%TD*%
D10*
%TO.P,IC10,1,A15*%
%TO.N,/A15*%
X91186000Y-93903800D03*
D11*
%TO.P,IC10,2,A12*%
%TO.N,/A12*%
X93726000Y-93903800D03*
%TO.P,IC10,3,A7*%
%TO.N,/A7*%
X96266000Y-93903800D03*
%TO.P,IC10,4,A6*%
%TO.N,/A6*%
X98806000Y-93903800D03*
%TO.P,IC10,5,A5*%
%TO.N,/A5*%
X101346000Y-93903800D03*
%TO.P,IC10,6,A4*%
%TO.N,/A4*%
X103886000Y-93903800D03*
%TO.P,IC10,7,A3*%
%TO.N,/A3*%
X106426000Y-93903800D03*
%TO.P,IC10,8,A2*%
%TO.N,/A2*%
X108966000Y-93903800D03*
%TO.P,IC10,9,A1*%
%TO.N,/A1*%
X111506000Y-93903800D03*
%TO.P,IC10,10,A0*%
%TO.N,/A0*%
X114046000Y-93903800D03*
%TO.P,IC10,11,D0*%
%TO.N,/D0*%
X116586000Y-93903800D03*
%TO.P,IC10,12,D1*%
%TO.N,/D1*%
X119126000Y-93903800D03*
%TO.P,IC10,13,D2*%
%TO.N,/D2*%
X121666000Y-93903800D03*
%TO.P,IC10,14,GND*%
%TO.N,GND*%
X124206000Y-93903800D03*
%TO.P,IC10,15,D3*%
%TO.N,/D3*%
X124206000Y-78663800D03*
%TO.P,IC10,16,D4*%
%TO.N,/D4*%
X121666000Y-78663800D03*
%TO.P,IC10,17,D5*%
%TO.N,/D5*%
X119126000Y-78663800D03*
%TO.P,IC10,18,D6*%
%TO.N,/D6*%
X116586000Y-78663800D03*
%TO.P,IC10,19,D7*%
%TO.N,/D7*%
X114046000Y-78663800D03*
%TO.P,IC10,20,~{CE}*%
%TO.N,Net-(IC10-~{CE})*%
X111506000Y-78663800D03*
%TO.P,IC10,21,A10*%
%TO.N,/A10*%
X108966000Y-78663800D03*
%TO.P,IC10,22,~{OE}*%
%TO.N,Net-(IC10-~{CE})*%
X106426000Y-78663800D03*
%TO.P,IC10,23,A11*%
%TO.N,/A11*%
X103886000Y-78663800D03*
%TO.P,IC10,24,A9*%
%TO.N,/A9*%
X101346000Y-78663800D03*
%TO.P,IC10,25,A8*%
%TO.N,/A8*%
X98806000Y-78663800D03*
%TO.P,IC10,26,A13*%
%TO.N,/A13*%
X96266000Y-78663800D03*
%TO.P,IC10,27,A14*%
%TO.N,/A14*%
X93726000Y-78663800D03*
%TO.P,IC10,28,VCC*%
%TO.N,+5V*%
X91186000Y-78663800D03*
%TD*%
D10*
%TO.P,IC3,1,OE*%
%TO.N,GND*%
X62636400Y-81940400D03*
D11*
%TO.P,IC3,2,O0*%
%TO.N,/A8*%
X65176400Y-81940400D03*
%TO.P,IC3,3,D0*%
%TO.N,/BD0*%
X67716400Y-81940400D03*
%TO.P,IC3,4,D1*%
%TO.N,/BD1*%
X70256400Y-81940400D03*
%TO.P,IC3,5,O1*%
%TO.N,/A9*%
X72796400Y-81940400D03*
%TO.P,IC3,6,O2*%
%TO.N,/A11*%
X75336400Y-81940400D03*
%TO.P,IC3,7,D2*%
%TO.N,/BD3*%
X77876400Y-81940400D03*
%TO.P,IC3,8,D3*%
%TO.N,/BD2*%
X80416400Y-81940400D03*
%TO.P,IC3,9,O3*%
%TO.N,/A10*%
X82956400Y-81940400D03*
%TO.P,IC3,10,GND*%
%TO.N,GND*%
X85496400Y-81940400D03*
%TO.P,IC3,11,Cp*%
%TO.N,Net-(IC3-Cp)*%
X85496400Y-74320400D03*
%TO.P,IC3,12,O4*%
%TO.N,/A12*%
X82956400Y-74320400D03*
%TO.P,IC3,13,D4*%
%TO.N,/BD4*%
X80416400Y-74320400D03*
%TO.P,IC3,14,D5*%
%TO.N,/BD7*%
X77876400Y-74320400D03*
%TO.P,IC3,15,O5*%
%TO.N,/A15*%
X75336400Y-74320400D03*
%TO.P,IC3,16,O6*%
%TO.N,/A14*%
X72796400Y-74320400D03*
%TO.P,IC3,17,D6*%
%TO.N,/BD6*%
X70256400Y-74320400D03*
%TO.P,IC3,18,D7*%
%TO.N,/BD5*%
X67716400Y-74320400D03*
%TO.P,IC3,19,O7*%
%TO.N,/A13*%
X65176400Y-74320400D03*
%TO.P,IC3,20,VCC*%
%TO.N,+5V*%
X62636400Y-74320400D03*
%TD*%
D10*
%TO.P,IC9,1,A15*%
%TO.N,/A15*%
X91186000Y-75184000D03*
D11*
%TO.P,IC9,2,A12*%
%TO.N,/A12*%
X93726000Y-75184000D03*
%TO.P,IC9,3,A7*%
%TO.N,/A7*%
X96266000Y-75184000D03*
%TO.P,IC9,4,A6*%
%TO.N,/A6*%
X98806000Y-75184000D03*
%TO.P,IC9,5,A5*%
%TO.N,/A5*%
X101346000Y-75184000D03*
%TO.P,IC9,6,A4*%
%TO.N,/A4*%
X103886000Y-75184000D03*
%TO.P,IC9,7,A3*%
%TO.N,/A3*%
X106426000Y-75184000D03*
%TO.P,IC9,8,A2*%
%TO.N,/A2*%
X108966000Y-75184000D03*
%TO.P,IC9,9,A1*%
%TO.N,/A1*%
X111506000Y-75184000D03*
%TO.P,IC9,10,A0*%
%TO.N,/A0*%
X114046000Y-75184000D03*
%TO.P,IC9,11,D0*%
%TO.N,/D0*%
X116586000Y-75184000D03*
%TO.P,IC9,12,D1*%
%TO.N,/D1*%
X119126000Y-75184000D03*
%TO.P,IC9,13,D2*%
%TO.N,/D2*%
X121666000Y-75184000D03*
%TO.P,IC9,14,GND*%
%TO.N,GND*%
X124206000Y-75184000D03*
%TO.P,IC9,15,D3*%
%TO.N,/D3*%
X124206000Y-59944000D03*
%TO.P,IC9,16,D4*%
%TO.N,/D4*%
X121666000Y-59944000D03*
%TO.P,IC9,17,D5*%
%TO.N,/D5*%
X119126000Y-59944000D03*
%TO.P,IC9,18,D6*%
%TO.N,/D6*%
X116586000Y-59944000D03*
%TO.P,IC9,19,D7*%
%TO.N,/D7*%
X114046000Y-59944000D03*
%TO.P,IC9,20,~{CE}*%
%TO.N,Net-(IC4-O4)*%
X111506000Y-59944000D03*
%TO.P,IC9,21,A10*%
%TO.N,/A10*%
X108966000Y-59944000D03*
%TO.P,IC9,22,~{OE}*%
%TO.N,Net-(IC4-O4)*%
X106426000Y-59944000D03*
%TO.P,IC9,23,A11*%
%TO.N,/A11*%
X103886000Y-59944000D03*
%TO.P,IC9,24,A9*%
%TO.N,/A9*%
X101346000Y-59944000D03*
%TO.P,IC9,25,A8*%
%TO.N,/A8*%
X98806000Y-59944000D03*
%TO.P,IC9,26,A13*%
%TO.N,/A13*%
X96266000Y-59944000D03*
%TO.P,IC9,27,A14*%
%TO.N,/A14*%
X93726000Y-59944000D03*
%TO.P,IC9,28,VCC*%
%TO.N,+5V*%
X91186000Y-59944000D03*
%TD*%
D10*
%TO.P,IC6,1,A0*%
%TO.N,/BA0*%
X62534800Y-93218000D03*
D11*
%TO.P,IC6,2,A1*%
%TO.N,R{slash}~{W}*%
X65074800Y-93218000D03*
%TO.P,IC6,3,A2*%
%TO.N,GND*%
X67614800Y-93218000D03*
%TO.P,IC6,4,E1*%
X70154800Y-93218000D03*
%TO.P,IC6,5,E2*%
%TO.N,Net-(IC6-E2)*%
X72694800Y-93218000D03*
%TO.P,IC6,6,E3*%
%TO.N,E*%
X75234800Y-93218000D03*
%TO.P,IC6,7,O7*%
%TO.N,unconnected-(IC6-O7-Pad7)*%
X77774800Y-93218000D03*
%TO.P,IC6,8,GND*%
%TO.N,GND*%
X80314800Y-93218000D03*
%TO.P,IC6,9,O6*%
%TO.N,unconnected-(IC6-O6-Pad9)*%
X80314800Y-85598000D03*
%TO.P,IC6,10,O5*%
%TO.N,unconnected-(IC6-O5-Pad10)*%
X77774800Y-85598000D03*
%TO.P,IC6,11,O4*%
%TO.N,unconnected-(IC6-O4-Pad11)*%
X75234800Y-85598000D03*
%TO.P,IC6,12,O3*%
%TO.N,unconnected-(IC6-O3-Pad12)*%
X72694800Y-85598000D03*
%TO.P,IC6,13,O2*%
%TO.N,Net-(IC1-OEa)*%
X70154800Y-85598000D03*
%TO.P,IC6,14,O1*%
%TO.N,Net-(IC2-Cp)*%
X67614800Y-85598000D03*
%TO.P,IC6,15,O0*%
%TO.N,Net-(IC3-Cp)*%
X65074800Y-85598000D03*
%TO.P,IC6,16,VCC*%
%TO.N,+5V*%
X62534800Y-85598000D03*
%TD*%
D10*
%TO.P,IC4,1,A0*%
%TO.N,/BA4*%
X97891600Y-108864400D03*
D11*
%TO.P,IC4,2,A1*%
%TO.N,/BA5*%
X97891600Y-111404400D03*
%TO.P,IC4,3,A2*%
%TO.N,/BA6*%
X97891600Y-113944400D03*
%TO.P,IC4,4,E1*%
%TO.N,I{slash}O*%
X97891600Y-116484400D03*
%TO.P,IC4,5,E2*%
%TO.N,GND*%
X97891600Y-119024400D03*
%TO.P,IC4,6,E3*%
%TO.N,/BA7*%
X97891600Y-121564400D03*
%TO.P,IC4,7,O7*%
%TO.N,unconnected-(IC4-O7-Pad7)*%
X97891600Y-124104400D03*
%TO.P,IC4,8,GND*%
%TO.N,GND*%
X97891600Y-126644400D03*
%TO.P,IC4,9,O6*%
%TO.N,unconnected-(IC4-O6-Pad9)*%
X105511600Y-126644400D03*
%TO.P,IC4,10,O5*%
%TO.N,Net-(IC10-~{CE})*%
X105511600Y-124104400D03*
%TO.P,IC4,11,O4*%
%TO.N,Net-(IC4-O4)*%
X105511600Y-121564400D03*
%TO.P,IC4,12,O3*%
%TO.N,Net-(IC4-O3)*%
X105511600Y-119024400D03*
%TO.P,IC4,13,O2*%
%TO.N,unconnected-(IC4-O2-Pad13)*%
X105511600Y-116484400D03*
%TO.P,IC4,14,O1*%
%TO.N,unconnected-(IC4-O1-Pad14)*%
X105511600Y-113944400D03*
%TO.P,IC4,15,O0*%
%TO.N,unconnected-(IC4-O0-Pad15)*%
X105511600Y-111404400D03*
%TO.P,IC4,16,VCC*%
%TO.N,+5V*%
X105511600Y-108864400D03*
%TD*%
D14*
%TO.N,Net-(IC1-OEa)*%
X57454800Y-52730400D03*
X56794400Y-75438000D03*
%TO.N,/BD5*%
X73964800Y-76301600D03*
X67716400Y-76301600D03*
%TO.N,/D3*%
X122936000Y-50139600D03*
%TO.N,/BD7*%
X81330800Y-98501200D03*
X77825600Y-98501200D03*
X77876400Y-52476400D03*
%TO.N,GND*%
X79806800Y-113944400D03*
%TO.N,/D4*%
X121666000Y-42926000D03*
%TO.N,/BD2*%
X84175600Y-94589600D03*
X81686400Y-56286400D03*
%TO.N,/D7*%
X112776000Y-44246800D03*
%TO.N,/BD1*%
X74066400Y-63754000D03*
X83159600Y-94589600D03*
X70256400Y-78130400D03*
%TO.N,/D5*%
X117856000Y-47752000D03*
%TO.N,/BD0*%
X66344800Y-96367600D03*
X58775600Y-71780400D03*
X67716400Y-78333600D03*
%TO.N,/A0*%
X115316000Y-71577200D03*
%TO.N,/A1*%
X112776000Y-69697600D03*
%TO.N,/A3*%
X107696000Y-68275200D03*
%TO.N,/A2*%
X110236000Y-65125600D03*
%TO.N,Net-(IC2-Cp)*%
X66446400Y-76250800D03*
X84226400Y-70053200D03*
%TO.N,/A4*%
X105156000Y-61722000D03*
%TO.N,/A12*%
X94996000Y-71983600D03*
%TO.N,/A15*%
X92456000Y-71170800D03*
%TO.N,/A14*%
X93726000Y-71018400D03*
%TO.N,/A13*%
X96266000Y-72948800D03*
%TO.N,Net-(IC4-O3)*%
X108153200Y-111404400D03*
X108762800Y-101955600D03*
%TO.N,/D6*%
X115316000Y-45720000D03*
%TO.N,I{slash}O*%
X61010800Y-116230400D03*
X81635600Y-117754400D03*
%TO.N,R{slash}~{W}*%
X52324000Y-108610400D03*
%TO.N,/BA5*%
X58267600Y-111150400D03*
%TO.N,/BA1*%
X70408800Y-102514400D03*
%TD*%
D15*
%TO.N,Net-(IC1-OEa)*%
X52679600Y-52730400D02*
X51663600Y-53746400D01*
X54356000Y-73050400D02*
X55930800Y-73050400D01*
X51663600Y-70358000D02*
X54356000Y-73050400D01*
X57454800Y-52730400D02*
X57505600Y-52730400D01*
X57454800Y-52730400D02*
X52679600Y-52730400D01*
X55930800Y-73050400D02*
X56787200Y-73906800D01*
X56787200Y-75430800D02*
X56794400Y-75438000D01*
X51663600Y-53746400D02*
X51663600Y-70358000D01*
X56787200Y-73906800D02*
X56787200Y-75430800D01*
%TO.N,/D0*%
X116586000Y-93840300D02*
X116586000Y-92900500D01*
X116586000Y-74256900D02*
X117856000Y-72986900D01*
X117856000Y-72986900D02*
X117856000Y-58508900D01*
X116586000Y-57238900D02*
X117856000Y-58508900D01*
X117856000Y-91630500D02*
X117856000Y-77152500D01*
X116586000Y-75196700D02*
X116586000Y-74256900D01*
X116586000Y-92900500D02*
X117856000Y-91630500D01*
X116586000Y-75120500D02*
X116586000Y-75882500D01*
X116586000Y-75882500D02*
X117856000Y-77152500D01*
X116586000Y-56476900D02*
X116586000Y-57238900D01*
%TO.N,/BD5*%
X73964800Y-102362000D02*
X75387200Y-103784400D01*
X73964800Y-86817200D02*
X71424800Y-89357200D01*
X67716400Y-74320400D02*
X67716400Y-73253600D01*
X67716400Y-73253600D02*
X66446400Y-71983600D01*
X71424800Y-89357200D02*
X71424800Y-93827600D01*
X75387200Y-103784400D02*
X75793600Y-103784400D01*
X71424800Y-93827600D02*
X73964800Y-96367600D01*
X73964800Y-76352400D02*
X73964800Y-86817200D01*
X67716400Y-60756800D02*
X67716400Y-59080400D01*
X66446400Y-62026800D02*
X67716400Y-60756800D01*
X66446400Y-71983600D02*
X66446400Y-62026800D01*
X67716400Y-74320400D02*
X67716400Y-76301600D01*
X73964800Y-96367600D02*
X73964800Y-102362000D01*
%TO.N,/D1*%
X119176800Y-75120500D02*
X119176800Y-75882500D01*
X119126000Y-74206100D02*
X120396000Y-72936100D01*
X119126000Y-75145900D02*
X119126000Y-74206100D01*
X119126000Y-56426100D02*
X119126000Y-57188100D01*
X119176800Y-75882500D02*
X120446800Y-77152500D01*
X119126000Y-57188100D02*
X120396000Y-58458100D01*
X119176800Y-92900500D02*
X120446800Y-91630500D01*
X119176800Y-93840300D02*
X119176800Y-92900500D01*
X120396000Y-72936100D02*
X120396000Y-58458100D01*
X120446800Y-91630500D02*
X120446800Y-77152500D01*
%TO.N,/BD6*%
X73456800Y-103987600D02*
X73456800Y-96672400D01*
X70256400Y-61061600D02*
X70256400Y-59080400D01*
X71424800Y-86817200D02*
X71424800Y-77419200D01*
X70256400Y-74320400D02*
X68986400Y-73050400D01*
X70256400Y-55321200D02*
X70256400Y-59080400D01*
X68986400Y-66141600D02*
X69646800Y-65481200D01*
X72796400Y-48920400D02*
X72796400Y-52781200D01*
X68986400Y-73050400D02*
X68986400Y-66141600D01*
X68884800Y-94284800D02*
X69723000Y-95123000D01*
X71424800Y-77419200D02*
X70307200Y-76301600D01*
X73456800Y-96672400D02*
X71907400Y-95123000D01*
X69723000Y-95123000D02*
X71907400Y-95123000D01*
X68884800Y-89357200D02*
X68884800Y-94284800D01*
X69646800Y-65481200D02*
X69646800Y-61671200D01*
X75793600Y-106324400D02*
X73456800Y-103987600D01*
X70307200Y-74371200D02*
X70256400Y-74320400D01*
X72796400Y-52781200D02*
X70256400Y-55321200D01*
X69646800Y-61671200D02*
X70256400Y-61061600D01*
X71424800Y-86817200D02*
X68884800Y-89357200D01*
X70307200Y-76301600D02*
X70307200Y-74371200D01*
%TO.N,/D3*%
X122936000Y-44246800D02*
X124206000Y-42976800D01*
X122936000Y-76047600D02*
X122936000Y-74269600D01*
X122936000Y-74269600D02*
X124206000Y-72999600D01*
X122936000Y-57099200D02*
X122936000Y-49123600D01*
X124206000Y-59944000D02*
X124206000Y-58369200D01*
X124206000Y-41186100D02*
X124206000Y-41948100D01*
X124206000Y-42976800D02*
X124206000Y-41249600D01*
X124206000Y-78663800D02*
X124206000Y-77317600D01*
X124206000Y-77317600D02*
X122936000Y-76047600D01*
X124206000Y-72999600D02*
X124206000Y-59944000D01*
X124206000Y-58369200D02*
X122936000Y-57099200D01*
X122936000Y-49123600D02*
X122936000Y-44246800D01*
%TO.N,/BD7*%
X76504800Y-95097600D02*
X77825600Y-96418400D01*
X79146400Y-87071200D02*
X76504800Y-89712800D01*
X76504800Y-89712800D02*
X76504800Y-95097600D01*
X81330800Y-107797600D02*
X81330800Y-98501200D01*
X77876400Y-71221600D02*
X79146400Y-69951600D01*
X77825600Y-96418400D02*
X77825600Y-98501200D01*
X77876400Y-76250800D02*
X79146400Y-77520800D01*
X79146400Y-69951600D02*
X79146400Y-60350400D01*
X77876400Y-74320400D02*
X77876400Y-71221600D01*
X80264000Y-108864400D02*
X81330800Y-107797600D01*
X77876400Y-52476400D02*
X77876400Y-59080400D01*
X79146400Y-77520800D02*
X79146400Y-87071200D01*
X79146400Y-60350400D02*
X77876400Y-59080400D01*
X77876400Y-74320400D02*
X77876400Y-76250800D01*
X77876400Y-48920400D02*
X77876400Y-52476400D01*
X75793600Y-108864400D02*
X80264000Y-108864400D01*
%TO.N,/D2*%
X121666000Y-57188100D02*
X122936000Y-58458100D01*
X121666000Y-75946000D02*
X122936000Y-77216000D01*
X121666000Y-75145900D02*
X121666000Y-74206100D01*
X122936000Y-91694000D02*
X122936000Y-77216000D01*
X121666000Y-92964000D02*
X122936000Y-91694000D01*
X121666000Y-93903800D02*
X121666000Y-92964000D01*
X121666000Y-56426100D02*
X121666000Y-57188100D01*
X121666000Y-74206100D02*
X122936000Y-72936100D01*
X121666000Y-75184000D02*
X121666000Y-75946000D01*
X122936000Y-72936100D02*
X122936000Y-58458100D01*
%TO.N,/BD4*%
X82956400Y-48920400D02*
X82956400Y-53238400D01*
X81686400Y-76657200D02*
X80416400Y-75387200D01*
X75793600Y-101244400D02*
X78638400Y-101244400D01*
X81686400Y-62534800D02*
X80416400Y-61264800D01*
X75793600Y-101244400D02*
X75234800Y-101244400D01*
X80416400Y-71729600D02*
X81686400Y-70459600D01*
X82956400Y-53238400D02*
X80416400Y-55778400D01*
X80416400Y-55778400D02*
X80416400Y-59080400D01*
X81686400Y-88696800D02*
X81686400Y-76657200D01*
X79044800Y-91338400D02*
X81686400Y-88696800D01*
X78638400Y-101244400D02*
X79044800Y-100838000D01*
X80416400Y-74320400D02*
X80416400Y-71729600D01*
X81686400Y-70459600D02*
X81686400Y-62534800D01*
X80416400Y-61264800D02*
X80416400Y-59080400D01*
X80416400Y-75387200D02*
X80416400Y-74320400D01*
X79044800Y-100838000D02*
X79044800Y-91338400D01*
D16*
%TO.N,GND*%
X54965600Y-122580400D02*
X49885600Y-122580400D01*
X45821600Y-118872000D02*
X45821600Y-73507600D01*
X80365600Y-93167200D02*
X80314800Y-93218000D01*
D15*
X118211600Y-113939400D02*
X118221600Y-113949400D01*
D16*
X85496400Y-48920400D02*
X85496400Y-55727600D01*
X126085600Y-93929200D02*
X126085600Y-75184000D01*
X124206000Y-56489600D02*
X124409200Y-56489600D01*
X87325200Y-80111600D02*
X87325200Y-68224400D01*
X91033600Y-98653600D02*
X88493600Y-98653600D01*
X88493600Y-98653600D02*
X85496400Y-95656400D01*
X85496400Y-81940400D02*
X87325200Y-80111600D01*
D15*
X118211600Y-111399400D02*
X118211600Y-113939400D01*
D16*
X51003200Y-71780400D02*
X53543200Y-74320400D01*
X49885600Y-122580400D02*
X49885600Y-125120400D01*
X49885600Y-120040400D02*
X49885600Y-122580400D01*
X49885600Y-71780400D02*
X47548800Y-71780400D01*
X85496400Y-64262000D02*
X85496400Y-66700400D01*
D15*
X119684800Y-119019400D02*
X118211600Y-119019400D01*
D16*
X85496400Y-95656400D02*
X85496400Y-93167200D01*
D15*
X95808800Y-119024400D02*
X97891600Y-119024400D01*
D16*
X85801200Y-66700400D02*
X85496400Y-66700400D01*
D15*
X118211600Y-121559400D02*
X118211600Y-119019400D01*
D16*
X85496400Y-81940400D02*
X85496400Y-90932000D01*
X124206000Y-93903800D02*
X124231400Y-93929200D01*
X54965600Y-120040400D02*
X54965600Y-122580400D01*
X49885600Y-71780400D02*
X51003200Y-71780400D01*
X49885600Y-125120400D02*
X54965600Y-125120400D01*
X85496400Y-55727600D02*
X86309200Y-55727600D01*
X54965600Y-125120400D02*
X54965600Y-122580400D01*
D15*
X81381600Y-120294400D02*
X94538800Y-120294400D01*
D16*
X87477600Y-62280800D02*
X85496400Y-64262000D01*
X118201600Y-121569400D02*
X118211600Y-121559400D01*
D15*
X119735600Y-113949400D02*
X120695800Y-114909600D01*
D16*
X46990000Y-120040400D02*
X49885600Y-120040400D01*
X49885600Y-71780400D02*
X49885600Y-54000400D01*
X46990000Y-120040400D02*
X45821600Y-118872000D01*
X87477600Y-56896000D02*
X87477600Y-62280800D01*
X85496400Y-93167200D02*
X80365600Y-93167200D01*
D15*
X118221600Y-113949400D02*
X119735600Y-113949400D01*
D16*
X49885600Y-120040400D02*
X54965600Y-120040400D01*
X126085600Y-56489600D02*
X124206000Y-56489600D01*
D15*
X79806800Y-118719600D02*
X81381600Y-120294400D01*
D16*
X85496400Y-90932000D02*
X85496400Y-93167200D01*
X86309200Y-55727600D02*
X87477600Y-56896000D01*
X126085600Y-75184000D02*
X126085600Y-56489600D01*
D15*
X120695800Y-118008400D02*
X119684800Y-119019400D01*
D16*
X124231400Y-93929200D02*
X126085600Y-93929200D01*
D15*
X94538800Y-120294400D02*
X95808800Y-119024400D01*
D16*
X45821600Y-73507600D02*
X47548800Y-71780400D01*
D15*
X79806800Y-113944400D02*
X79806800Y-118719600D01*
D16*
X53543200Y-74320400D02*
X54965600Y-74320400D01*
X87325200Y-68224400D02*
X85801200Y-66700400D01*
X126085600Y-75184000D02*
X124206000Y-75184000D01*
D15*
X120695800Y-114909600D02*
X120695800Y-118008400D01*
%TO.N,/D4*%
X120396000Y-74218800D02*
X121666000Y-72948800D01*
X121666000Y-59944000D02*
X121666000Y-58369200D01*
X121666000Y-77266800D02*
X120396000Y-75996800D01*
X121666000Y-42976800D02*
X121666000Y-41249600D01*
X121666000Y-58369200D02*
X120396000Y-57099200D01*
X120396000Y-57099200D02*
X120396000Y-44246800D01*
X120396000Y-75996800D02*
X120396000Y-74218800D01*
X121666000Y-78613000D02*
X121666000Y-77266800D01*
X120396000Y-44246800D02*
X121666000Y-42976800D01*
X121666000Y-72948800D02*
X121666000Y-59893200D01*
%TO.N,/BD2*%
X88747600Y-101193600D02*
X84175600Y-96621600D01*
X82956400Y-41300400D02*
X82956400Y-45212000D01*
X79146400Y-71221600D02*
X80416400Y-69951600D01*
X84226400Y-55422800D02*
X83362800Y-56286400D01*
X82956400Y-45212000D02*
X84226400Y-46482000D01*
X80416400Y-77419200D02*
X79146400Y-76149200D01*
X79146400Y-76149200D02*
X79146400Y-71221600D01*
X83362800Y-56286400D02*
X81686400Y-56286400D01*
X80416400Y-69951600D02*
X80416400Y-66700400D01*
X80416400Y-81940400D02*
X80416400Y-77419200D01*
X84226400Y-46482000D02*
X84226400Y-55422800D01*
X84175600Y-96621600D02*
X84175600Y-94589600D01*
X88747600Y-101193600D02*
X91033600Y-101193600D01*
%TO.N,/D7*%
X114046000Y-42926000D02*
X114046000Y-41198800D01*
X114046000Y-72999600D02*
X114046000Y-59944000D01*
X112776000Y-76047600D02*
X112776000Y-74269600D01*
X114046000Y-77317600D02*
X112776000Y-76047600D01*
X112776000Y-57048400D02*
X112776000Y-44196000D01*
X112776000Y-74269600D02*
X114046000Y-72999600D01*
X114046000Y-59893200D02*
X114046000Y-58318400D01*
X112776000Y-44196000D02*
X114046000Y-42926000D01*
X114046000Y-58318400D02*
X112776000Y-57048400D01*
X114046000Y-78663800D02*
X114046000Y-77317600D01*
%TO.N,/BD3*%
X77876400Y-41300400D02*
X77876400Y-42875200D01*
X74015600Y-89560400D02*
X74015600Y-94640400D01*
X77876400Y-77520800D02*
X76606400Y-76250800D01*
X74015600Y-94640400D02*
X75793600Y-96418400D01*
X76606400Y-62839600D02*
X77876400Y-64109600D01*
X77876400Y-69799200D02*
X77876400Y-66700400D01*
X77876400Y-64109600D02*
X77876400Y-66700400D01*
X76504800Y-83312000D02*
X76504800Y-87071200D01*
X76606400Y-44145200D02*
X76606400Y-62839600D01*
X76606400Y-76250800D02*
X76606400Y-71069200D01*
X77876400Y-81940400D02*
X76504800Y-83312000D01*
X77876400Y-81940400D02*
X77876400Y-77520800D01*
X77876400Y-42875200D02*
X76606400Y-44145200D01*
X76606400Y-71069200D02*
X77876400Y-69799200D01*
X75793600Y-96418400D02*
X75793600Y-98704400D01*
X76504800Y-87071200D02*
X74015600Y-89560400D01*
%TO.N,/BD1*%
X74066400Y-63855600D02*
X73304400Y-64617600D01*
X91033600Y-103733600D02*
X90119200Y-103733600D01*
X83159600Y-96774000D02*
X83159600Y-94589600D01*
X73304400Y-64617600D02*
X70866000Y-64617600D01*
X70866000Y-64617600D02*
X70256400Y-65227200D01*
X90119200Y-103733600D02*
X83159600Y-96774000D01*
X70256400Y-65227200D02*
X70256400Y-66700400D01*
X74066400Y-63754000D02*
X74066400Y-63855600D01*
X74066400Y-42570400D02*
X74066400Y-63754000D01*
X72796400Y-41300400D02*
X74066400Y-42570400D01*
X70256400Y-81940400D02*
X70256400Y-78130400D01*
%TO.N,/D5*%
X119126000Y-78663800D02*
X119126000Y-77317600D01*
X117856000Y-44297600D02*
X119126000Y-43027600D01*
X119126000Y-58420000D02*
X117856000Y-57150000D01*
X119126000Y-72999600D02*
X119126000Y-59944000D01*
X117856000Y-76047600D02*
X117856000Y-74269600D01*
X117856000Y-57150000D02*
X117856000Y-47752000D01*
X117856000Y-47752000D02*
X117856000Y-44297600D01*
X117856000Y-74269600D02*
X119126000Y-72999600D01*
X119126000Y-77317600D02*
X117856000Y-76047600D01*
X119126000Y-43027600D02*
X119126000Y-41300400D01*
X119126000Y-59994800D02*
X119126000Y-58420000D01*
%TO.N,/BD0*%
X67716400Y-41300400D02*
X68986400Y-42570400D01*
X67716400Y-81940400D02*
X68884800Y-83108800D01*
X54965600Y-71780400D02*
X58775600Y-71780400D01*
X66344800Y-89255600D02*
X66344800Y-96367600D01*
X68884800Y-86715600D02*
X66344800Y-89255600D01*
X68986400Y-65430400D02*
X67716400Y-66700400D01*
X68986400Y-42570400D02*
X68986400Y-65430400D01*
X67716400Y-81940400D02*
X67716400Y-78333600D01*
X68884800Y-83108800D02*
X68884800Y-86715600D01*
D16*
%TO.N,+5V*%
X49885600Y-46380400D02*
X54965600Y-46380400D01*
X60147200Y-59080400D02*
X60045600Y-59182000D01*
X89458800Y-96215200D02*
X88747600Y-95504000D01*
X105511600Y-108864400D02*
X110591600Y-108864400D01*
X54965600Y-46380400D02*
X54965600Y-42062400D01*
X54965600Y-51460400D02*
X59893200Y-51460400D01*
X89103200Y-71526400D02*
X89103200Y-77825600D01*
X91186000Y-51562000D02*
X91186000Y-41249600D01*
X88747600Y-79806800D02*
X89916000Y-78638400D01*
X80010000Y-131064000D02*
X75793600Y-131064000D01*
X110591600Y-108864400D02*
X114554000Y-108864400D01*
X89204800Y-38201600D02*
X63500000Y-38201600D01*
X63500000Y-38201600D02*
X62636400Y-39065200D01*
X60045600Y-74320400D02*
X59029600Y-74320400D01*
X62636400Y-59080400D02*
X60147200Y-59080400D01*
X60045600Y-51612800D02*
X59893200Y-51460400D01*
X89306400Y-53340000D02*
X91186000Y-51562000D01*
X91186000Y-69443600D02*
X89103200Y-71526400D01*
X75793600Y-131064000D02*
X75793600Y-126593600D01*
X105511600Y-108864400D02*
X105511600Y-99263200D01*
X60045600Y-74320400D02*
X60045600Y-59182000D01*
X60045600Y-59182000D02*
X60045600Y-51612800D01*
X89103200Y-77825600D02*
X89916000Y-78638400D01*
X89560400Y-59944000D02*
X89306400Y-59690000D01*
X91186000Y-41249600D02*
X91186000Y-40182800D01*
X54965600Y-46380400D02*
X54965600Y-51460400D01*
X59029600Y-85598000D02*
X62534800Y-85598000D01*
X102463600Y-96215200D02*
X89458800Y-96215200D01*
X49885600Y-48920400D02*
X54965600Y-48920400D01*
X91186000Y-59944000D02*
X89560400Y-59944000D01*
X88747600Y-95504000D02*
X88747600Y-79806800D01*
X54965600Y-42062400D02*
X55727600Y-41300400D01*
X114554000Y-108864400D02*
X118211600Y-108864400D01*
X62636400Y-74320400D02*
X60045600Y-74320400D01*
X91186000Y-40182800D02*
X89204800Y-38201600D01*
X54965600Y-51460400D02*
X49885600Y-51460400D01*
X105511600Y-99263200D02*
X102463600Y-96215200D01*
X89941400Y-78663800D02*
X91186000Y-78663800D01*
X89916000Y-78638400D02*
X89941400Y-78663800D01*
X55727600Y-41300400D02*
X62636400Y-41300400D01*
X91186000Y-59944000D02*
X91186000Y-69443600D01*
X114554000Y-108864400D02*
X114554000Y-131064000D01*
X59029600Y-74320400D02*
X59029600Y-85598000D01*
X49885600Y-51460400D02*
X49885600Y-46380400D01*
X62636400Y-39065200D02*
X62636400Y-41300400D01*
X75742800Y-126593600D02*
X75793600Y-126644400D01*
X114554000Y-131064000D02*
X80010000Y-131064000D01*
X89306400Y-59690000D02*
X89306400Y-53340000D01*
D15*
%TO.N,/A0*%
X114046000Y-93840300D02*
X114046000Y-92900500D01*
X114046000Y-75882500D02*
X115316000Y-77152500D01*
X115316000Y-72936100D02*
X115316000Y-58458100D01*
X115316000Y-91630500D02*
X115316000Y-77152500D01*
X114046000Y-56426100D02*
X114046000Y-57188100D01*
X114046000Y-92900500D02*
X115316000Y-91630500D01*
X114046000Y-74206100D02*
X115316000Y-72936100D01*
X114046000Y-57188100D02*
X115316000Y-58458100D01*
X114046000Y-75120500D02*
X114046000Y-75882500D01*
X114046000Y-75145900D02*
X114046000Y-74206100D01*
%TO.N,/A1*%
X111506000Y-93002100D02*
X112776000Y-91732100D01*
X111506000Y-75196700D02*
X111506000Y-74256900D01*
X112776000Y-72986900D02*
X112776000Y-58508900D01*
X111506000Y-75984100D02*
X112776000Y-77254100D01*
X111506000Y-93941900D02*
X111506000Y-93002100D01*
X111506000Y-74256900D02*
X112776000Y-72986900D01*
X112776000Y-91732100D02*
X112776000Y-77254100D01*
X111506000Y-56476900D02*
X111506000Y-57238900D01*
X111506000Y-75222100D02*
X111506000Y-75984100D01*
X111506000Y-57238900D02*
X112776000Y-58508900D01*
%TO.N,/A3*%
X107696000Y-91681300D02*
X107696000Y-77203300D01*
X106426000Y-75196700D02*
X106426000Y-74256900D01*
X106426000Y-93891100D02*
X106426000Y-92951300D01*
X106426000Y-75933300D02*
X107696000Y-77203300D01*
X106426000Y-92951300D02*
X107696000Y-91681300D01*
X107696000Y-72986900D02*
X107696000Y-58508900D01*
X106426000Y-74256900D02*
X107696000Y-72986900D01*
X106426000Y-57238900D02*
X107696000Y-58508900D01*
X106426000Y-75171300D02*
X106426000Y-75933300D01*
X106426000Y-56476900D02*
X106426000Y-57238900D01*
%TO.N,/A2*%
X108966000Y-74206100D02*
X110236000Y-72936100D01*
X110236000Y-91681300D02*
X110236000Y-77203300D01*
X108966000Y-75933300D02*
X110236000Y-77203300D01*
X108966000Y-93891100D02*
X108966000Y-92951300D01*
X110236000Y-72936100D02*
X110236000Y-58458100D01*
X108966000Y-75145900D02*
X108966000Y-74206100D01*
X108966000Y-92951300D02*
X110236000Y-91681300D01*
X108966000Y-75171300D02*
X108966000Y-75933300D01*
X108966000Y-57188100D02*
X110236000Y-58458100D01*
X108966000Y-56426100D02*
X108966000Y-57188100D01*
%TO.N,Net-(IC2-Cp)*%
X85496400Y-59080400D02*
X85496400Y-61061600D01*
X67614800Y-84378800D02*
X67614800Y-85598000D01*
X85496400Y-61061600D02*
X84226400Y-62331600D01*
X66446400Y-76250800D02*
X66446400Y-83210400D01*
X84226400Y-70053200D02*
X84226400Y-70002400D01*
X84226400Y-62331600D02*
X84226400Y-70053200D01*
X66446400Y-83210400D02*
X67614800Y-84378800D01*
%TO.N,/A4*%
X105156000Y-72936100D02*
X105156000Y-58458100D01*
X103886000Y-75145900D02*
X103886000Y-74206100D01*
X103835200Y-75171300D02*
X103835200Y-75933300D01*
X103835200Y-93891100D02*
X103835200Y-92951300D01*
X103835200Y-92951300D02*
X105105200Y-91681300D01*
X103886000Y-57188100D02*
X105156000Y-58458100D01*
X105105200Y-91681300D02*
X105105200Y-77203300D01*
X103886000Y-74206100D02*
X105156000Y-72936100D01*
X103835200Y-75933300D02*
X105105200Y-77203300D01*
X103886000Y-56426100D02*
X103886000Y-57188100D01*
%TO.N,/A7*%
X97536000Y-72936100D02*
X97536000Y-58458100D01*
X96266000Y-75171300D02*
X96266000Y-75933300D01*
X96266000Y-93891100D02*
X96266000Y-92951300D01*
X96266000Y-57188100D02*
X97536000Y-58458100D01*
X96266000Y-75933300D02*
X97536000Y-77203300D01*
X96266000Y-92951300D02*
X97536000Y-91681300D01*
X96266000Y-56426100D02*
X96266000Y-57188100D01*
X96266000Y-75145900D02*
X96266000Y-74206100D01*
X96266000Y-74206100D02*
X97536000Y-72936100D01*
X97536000Y-91681300D02*
X97536000Y-77203300D01*
%TO.N,/A6*%
X100076000Y-91681300D02*
X100076000Y-77203300D01*
X98806000Y-93891100D02*
X98806000Y-92951300D01*
X98806000Y-57188100D02*
X100076000Y-58458100D01*
X100076000Y-72936100D02*
X100076000Y-58458100D01*
X98806000Y-56426100D02*
X98806000Y-57188100D01*
X98806000Y-75145900D02*
X98806000Y-74206100D01*
X98806000Y-92951300D02*
X100076000Y-91681300D01*
X98806000Y-74206100D02*
X100076000Y-72936100D01*
X98806000Y-75171300D02*
X98806000Y-75933300D01*
X98806000Y-75933300D02*
X100076000Y-77203300D01*
%TO.N,/A5*%
X102616000Y-91630500D02*
X102616000Y-77152500D01*
X101346000Y-75120500D02*
X101346000Y-75882500D01*
X101346000Y-56476900D02*
X101346000Y-57238900D01*
X101346000Y-75882500D02*
X102616000Y-77152500D01*
X101346000Y-57238900D02*
X102616000Y-58508900D01*
X101346000Y-93840300D02*
X101346000Y-92900500D01*
X102616000Y-72986900D02*
X102616000Y-58508900D01*
X101346000Y-92900500D02*
X102616000Y-91630500D01*
X101346000Y-75196700D02*
X101346000Y-74256900D01*
X101346000Y-74256900D02*
X102616000Y-72986900D01*
%TO.N,/A8*%
X98806000Y-72999600D02*
X98806000Y-59944000D01*
X98806000Y-58369200D02*
X97536000Y-57099200D01*
X97536000Y-44246800D02*
X98806000Y-42976800D01*
X98806000Y-78663800D02*
X98806000Y-77317600D01*
X97536000Y-57099200D02*
X97536000Y-44246800D01*
X97536000Y-76047600D02*
X97536000Y-74269600D01*
X98806000Y-42976800D02*
X98806000Y-41249600D01*
X97536000Y-74269600D02*
X98806000Y-72999600D01*
X98806000Y-59944000D02*
X98806000Y-58369200D01*
X98806000Y-77317600D02*
X97536000Y-76047600D01*
%TO.N,/A9*%
X100076000Y-44246800D02*
X101346000Y-42976800D01*
X101346000Y-59944000D02*
X101346000Y-58369200D01*
X101346000Y-42976800D02*
X101346000Y-41249600D01*
X100076000Y-76047600D02*
X100076000Y-74269600D01*
X100076000Y-57099200D02*
X100076000Y-44246800D01*
X101346000Y-58369200D02*
X100076000Y-57099200D01*
X101346000Y-78663800D02*
X101346000Y-77317600D01*
X100076000Y-74269600D02*
X101346000Y-72999600D01*
X101346000Y-72999600D02*
X101346000Y-59944000D01*
X101346000Y-77317600D02*
X100076000Y-76047600D01*
%TO.N,/A11*%
X102616000Y-57150000D02*
X102616000Y-44297600D01*
X103886000Y-43027600D02*
X103886000Y-41300400D01*
X102616000Y-44297600D02*
X103886000Y-43027600D01*
X102616000Y-74269600D02*
X103886000Y-72999600D01*
X103886000Y-78663800D02*
X103886000Y-77317600D01*
X103886000Y-58420000D02*
X102616000Y-57150000D01*
X103886000Y-77317600D02*
X102616000Y-76047600D01*
X103886000Y-59994800D02*
X103886000Y-58420000D01*
X102616000Y-76047600D02*
X102616000Y-74269600D01*
X103886000Y-72999600D02*
X103886000Y-59944000D01*
%TO.N,/A10*%
X107696000Y-74345800D02*
X108966000Y-73075800D01*
X107696000Y-76123800D02*
X107696000Y-74345800D01*
X107746800Y-57099200D02*
X107746800Y-44246800D01*
X107746800Y-44246800D02*
X109016800Y-42976800D01*
X109016800Y-42976800D02*
X109016800Y-41249600D01*
X109016800Y-58369200D02*
X107746800Y-57099200D01*
X108966000Y-77393800D02*
X107696000Y-76123800D01*
X109016800Y-59944000D02*
X109016800Y-58369200D01*
X108966000Y-78740000D02*
X108966000Y-77393800D01*
X108966000Y-73075800D02*
X108966000Y-60020200D01*
%TO.N,/A12*%
X93726000Y-75145900D02*
X93726000Y-74206100D01*
X93726000Y-56426100D02*
X93726000Y-57188100D01*
X94996000Y-91681300D02*
X94996000Y-77203300D01*
X93726000Y-57188100D02*
X94996000Y-58458100D01*
X93726000Y-74206100D02*
X94996000Y-72936100D01*
X93726000Y-92951300D02*
X94996000Y-91681300D01*
X93726000Y-75933300D02*
X94996000Y-77203300D01*
X93726000Y-75171300D02*
X93726000Y-75933300D01*
X93726000Y-93891100D02*
X93726000Y-92951300D01*
X94996000Y-71983600D02*
X94996000Y-58458100D01*
X94996000Y-72936100D02*
X94996000Y-71983600D01*
%TO.N,/A15*%
X92456000Y-72936100D02*
X92456000Y-71170800D01*
X91186000Y-56426100D02*
X91186000Y-57188100D01*
X91186000Y-93891100D02*
X91186000Y-92951300D01*
X91186000Y-75171300D02*
X91186000Y-75933300D01*
X92456000Y-91681300D02*
X92456000Y-77203300D01*
X91186000Y-75933300D02*
X92456000Y-77203300D01*
X91186000Y-75145900D02*
X91186000Y-74206100D01*
X91186000Y-74206100D02*
X92456000Y-72936100D01*
X92456000Y-71170800D02*
X92456000Y-58458100D01*
X91186000Y-92951300D02*
X92456000Y-91681300D01*
X91186000Y-57188100D02*
X92456000Y-58458100D01*
%TO.N,/A14*%
X93726000Y-71018400D02*
X93726000Y-59944000D01*
X93726000Y-58318400D02*
X92456000Y-57048400D01*
X92456000Y-57048400D02*
X92456000Y-44196000D01*
X92456000Y-44196000D02*
X93726000Y-42926000D01*
X93726000Y-72999600D02*
X93726000Y-71018400D01*
X93726000Y-78663800D02*
X93726000Y-77317600D01*
X93726000Y-59893200D02*
X93726000Y-58318400D01*
X93726000Y-77317600D02*
X92456000Y-76047600D01*
X92456000Y-74269600D02*
X93726000Y-72999600D01*
X92456000Y-76047600D02*
X92456000Y-74269600D01*
X93726000Y-42926000D02*
X93726000Y-41198800D01*
%TO.N,/A13*%
X96266000Y-77317600D02*
X94996000Y-76047600D01*
X94996000Y-74269600D02*
X96266000Y-72999600D01*
X96266000Y-59944000D02*
X96266000Y-58369200D01*
X94996000Y-76047600D02*
X94996000Y-74269600D01*
X94996000Y-57099200D02*
X94996000Y-44246800D01*
X96266000Y-72999600D02*
X96266000Y-72948800D01*
X96266000Y-78663800D02*
X96266000Y-77317600D01*
X96266000Y-72948800D02*
X96266000Y-59944000D01*
X94996000Y-44246800D02*
X96266000Y-42976800D01*
X96266000Y-58369200D02*
X94996000Y-57099200D01*
X96266000Y-42976800D02*
X96266000Y-41249600D01*
%TO.N,Net-(IC4-O4)*%
X107746800Y-120954800D02*
X107746800Y-117703600D01*
X108966000Y-116484400D02*
X110591600Y-116484400D01*
X107746800Y-117703600D02*
X108966000Y-116484400D01*
X105511600Y-121564400D02*
X107137200Y-121564400D01*
X107137200Y-121564400D02*
X107746800Y-120954800D01*
%TO.N,Net-(IC10-~{CE})*%
X109118400Y-119024400D02*
X110591600Y-119024400D01*
X107442000Y-124104400D02*
X108254800Y-123291600D01*
X108254800Y-123291600D02*
X108254800Y-119888000D01*
X108254800Y-119888000D02*
X109118400Y-119024400D01*
X105511600Y-124104400D02*
X107442000Y-124104400D01*
%TO.N,Net-(IC4-O3)*%
X111201200Y-39471600D02*
X111506000Y-39776400D01*
X127304800Y-40284400D02*
X127304800Y-101244400D01*
X107137200Y-112369600D02*
X108102400Y-111404400D01*
X105511600Y-119024400D02*
X106730800Y-119024400D01*
X111506000Y-39776400D02*
X111506000Y-41249600D01*
X106730800Y-39471600D02*
X111201200Y-39471600D01*
X106426000Y-39776400D02*
X106730800Y-39471600D01*
X108153200Y-111404400D02*
X110591600Y-111404400D01*
X108102400Y-111404400D02*
X108153200Y-111404400D01*
X126492000Y-39471600D02*
X127304800Y-40284400D01*
X126593600Y-101955600D02*
X108762800Y-101955600D01*
X111810800Y-39471600D02*
X126492000Y-39471600D01*
X106426000Y-41249600D02*
X106426000Y-39776400D01*
X127304800Y-101244400D02*
X126593600Y-101955600D01*
X108762800Y-101955600D02*
X108712000Y-101955600D01*
X107137200Y-118618000D02*
X107137200Y-112369600D01*
X106730800Y-119024400D02*
X107137200Y-118618000D01*
X111506000Y-39776400D02*
X111810800Y-39471600D01*
%TO.N,E400*%
X77876400Y-115824000D02*
X77266800Y-116433600D01*
X75793600Y-111353600D02*
X77368400Y-111353600D01*
X77266800Y-116433600D02*
X75793600Y-116433600D01*
X77368400Y-111353600D02*
X77876400Y-111861600D01*
X77876400Y-111861600D02*
X77876400Y-115824000D01*
%TO.N,/D6*%
X115316000Y-45720000D02*
X115316000Y-44246800D01*
X116586000Y-58369200D02*
X115316000Y-57099200D01*
X115316000Y-76047600D02*
X115316000Y-74269600D01*
X115316000Y-74269600D02*
X116586000Y-72999600D01*
X116586000Y-78663800D02*
X116586000Y-77317600D01*
X116586000Y-77317600D02*
X115316000Y-76047600D01*
X116586000Y-42976800D02*
X116586000Y-41249600D01*
X115316000Y-57099200D02*
X115316000Y-45720000D01*
X115316000Y-44246800D02*
X116586000Y-42976800D01*
X116586000Y-72999600D02*
X116586000Y-59944000D01*
X116586000Y-59944000D02*
X116586000Y-58369200D01*
%TO.N,I{slash}O*%
X81635600Y-117703600D02*
X81686400Y-117703600D01*
X96418400Y-116484400D02*
X95148400Y-117754400D01*
X95148400Y-117754400D02*
X81635600Y-117754400D01*
X51358800Y-115976400D02*
X51358800Y-79959200D01*
X51612800Y-116230400D02*
X51358800Y-115976400D01*
X50800000Y-79400400D02*
X49885600Y-79400400D01*
X61010800Y-116230400D02*
X51612800Y-116230400D01*
X97891600Y-116484400D02*
X96418400Y-116484400D01*
X51358800Y-79959200D02*
X50800000Y-79400400D01*
%TO.N,R{slash}~{W}*%
X54965600Y-79400400D02*
X53746400Y-79400400D01*
X52324000Y-80822800D02*
X52324000Y-108610400D01*
X53746400Y-79400400D02*
X52324000Y-80822800D01*
%TO.N,/BA5*%
X53543200Y-88087200D02*
X53543200Y-110540800D01*
X54152800Y-111150400D02*
X58267600Y-111150400D01*
X53543200Y-110540800D02*
X54152800Y-111150400D01*
X54965600Y-87020400D02*
X54610000Y-87020400D01*
X54610000Y-87020400D02*
X53543200Y-88087200D01*
%TO.N,/BA1*%
X56337200Y-83312000D02*
X54965600Y-81940400D01*
X56337200Y-101650800D02*
X56337200Y-83312000D01*
X57251600Y-102514400D02*
X56337200Y-101650800D01*
X70408800Y-102514400D02*
X57251600Y-102514400D01*
%TD*%
M02*
