M48
METRIC,TZ
T1C0.400
T2C0.800
T3C1.000
T4C2.850
%
G90
G05
T1
X52324Y-108610
X56794Y-75438
X57455Y-52730
X58268Y-111150
X58776Y-71780
X61011Y-116230
X66345Y-96368
X66446Y-76251
X67716Y-76302
X67716Y-78334
X70256Y-78130
X70409Y-102514
X73965Y-76302
X74066Y-63754
X77826Y-98501
X77876Y-52476
X79807Y-113944
X81331Y-98501
X81636Y-117754
X81686Y-56286
X83160Y-94590
X84176Y-94590
X84226Y-70053
X92456Y-71171
X93726Y-71018
X94996Y-71984
X96266Y-72949
X105156Y-61722
X107696Y-68275
X108153Y-111404
X108763Y-101956
X110236Y-65126
X112776Y-44247
X112776Y-69698
X115316Y-45720
X115316Y-71577
X117856Y-47752
X121666Y-42926
X122936Y-50140
T2
X62535Y-85598
X62535Y-93218
X62636Y-41300
X62636Y-48920
X62636Y-59080
X62636Y-66700
X62636Y-74320
X62636Y-81940
X65075Y-85598
X65075Y-93218
X65176Y-41300
X65176Y-48920
X65176Y-59080
X65176Y-66700
X65176Y-74320
X65176Y-81940
X67615Y-85598
X67615Y-93218
X67716Y-41300
X67716Y-48920
X67716Y-59080
X67716Y-66700
X67716Y-74320
X67716Y-81940
X70155Y-85598
X70155Y-93218
X70256Y-41300
X70256Y-48920
X70256Y-59080
X70256Y-66700
X70256Y-74320
X70256Y-81940
X72695Y-85598
X72695Y-93218
X72796Y-41300
X72796Y-48920
X72796Y-59080
X72796Y-66700
X72796Y-74320
X72796Y-81940
X75235Y-85598
X75235Y-93218
X75336Y-41300
X75336Y-48920
X75336Y-59080
X75336Y-66700
X75336Y-74320
X75336Y-81940
X75794Y-98704
X75794Y-101244
X75794Y-103784
X75794Y-106324
X75794Y-108864
X75794Y-111404
X75794Y-113944
X75794Y-116484
X75794Y-119024
X75794Y-121564
X75794Y-124104
X75794Y-126644
X77775Y-85598
X77775Y-93218
X77876Y-41300
X77876Y-48920
X77876Y-59080
X77876Y-66700
X77876Y-74320
X77876Y-81940
X80315Y-85598
X80315Y-93218
X80416Y-41300
X80416Y-48920
X80416Y-59080
X80416Y-66700
X80416Y-74320
X80416Y-81940
X82956Y-41300
X82956Y-48920
X82956Y-59080
X82956Y-66700
X82956Y-74320
X82956Y-81940
X85496Y-41300
X85496Y-48920
X85496Y-59080
X85496Y-66700
X85496Y-74320
X85496Y-81940
X91034Y-98704
X91034Y-101244
X91034Y-103784
X91034Y-106324
X91034Y-108864
X91034Y-111404
X91034Y-113944
X91034Y-116484
X91034Y-119024
X91034Y-121564
X91034Y-124104
X91034Y-126644
X91186Y-41250
X91186Y-56490
X91186Y-59944
X91186Y-75184
X91186Y-78664
X91186Y-93904
X93726Y-41250
X93726Y-56490
X93726Y-59944
X93726Y-75184
X93726Y-78664
X93726Y-93904
X96266Y-41250
X96266Y-56490
X96266Y-59944
X96266Y-75184
X96266Y-78664
X96266Y-93904
X97892Y-108864
X97892Y-111404
X97892Y-113944
X97892Y-116484
X97892Y-119024
X97892Y-121564
X97892Y-124104
X97892Y-126644
X98806Y-41250
X98806Y-56490
X98806Y-59944
X98806Y-75184
X98806Y-78664
X98806Y-93904
X101346Y-41250
X101346Y-56490
X101346Y-59944
X101346Y-75184
X101346Y-78664
X101346Y-93904
X103886Y-41250
X103886Y-56490
X103886Y-59944
X103886Y-75184
X103886Y-78664
X103886Y-93904
X105512Y-108864
X105512Y-111404
X105512Y-113944
X105512Y-116484
X105512Y-119024
X105512Y-121564
X105512Y-124104
X105512Y-126644
X106426Y-41250
X106426Y-56490
X106426Y-59944
X106426Y-75184
X106426Y-78664
X106426Y-93904
X108966Y-41250
X108966Y-56490
X108966Y-59944
X108966Y-75184
X108966Y-78664
X108966Y-93904
X110592Y-108859
X110592Y-111399
X110592Y-113939
X110592Y-116479
X110592Y-119019
X110592Y-121559
X110592Y-124099
X111506Y-41250
X111506Y-56490
X111506Y-59944
X111506Y-75184
X111506Y-78664
X111506Y-93904
X114046Y-41250
X114046Y-56490
X114046Y-59944
X114046Y-75184
X114046Y-78664
X114046Y-93904
X116586Y-41250
X116586Y-56490
X116586Y-59944
X116586Y-75184
X116586Y-78664
X116586Y-93904
X118212Y-108859
X118212Y-111399
X118212Y-113939
X118212Y-116479
X118212Y-119019
X118212Y-121559
X118212Y-124099
X119126Y-41250
X119126Y-56490
X119126Y-59944
X119126Y-75184
X119126Y-78664
X119126Y-93904
X121666Y-41250
X121666Y-56490
X121666Y-59944
X121666Y-75184
X121666Y-78664
X121666Y-93904
X124206Y-41250
X124206Y-56490
X124206Y-59944
X124206Y-75184
X124206Y-78664
X124206Y-93904
T3
X49886Y-46380
X49886Y-48920
X49886Y-51460
X49886Y-54000
X49886Y-56540
X49886Y-59080
X49886Y-61620
X49886Y-64160
X49886Y-66700
X49886Y-69240
X49886Y-71780
X49886Y-74320
X49886Y-76860
X49886Y-79400
X49886Y-81940
X49886Y-84480
X49886Y-87020
X49886Y-89560
X49886Y-92100
X49886Y-94640
X49886Y-97180
X49886Y-99720
X49886Y-102260
X49886Y-104800
X49886Y-107340
X49886Y-109880
X49886Y-112420
X49886Y-114960
X49886Y-117500
X49886Y-120040
X49886Y-122580
X49886Y-125120
X54966Y-46380
X54966Y-48920
X54966Y-51460
X54966Y-54000
X54966Y-56540
X54966Y-59080
X54966Y-61620
X54966Y-64160
X54966Y-66700
X54966Y-69240
X54966Y-71780
X54966Y-74320
X54966Y-76860
X54966Y-79400
X54966Y-81940
X54966Y-84480
X54966Y-87020
X54966Y-89560
X54966Y-92100
X54966Y-94640
X54966Y-97180
X54966Y-99720
X54966Y-102260
X54966Y-104800
X54966Y-107340
X54966Y-109880
X54966Y-112420
X54966Y-114960
X54966Y-117500
X54966Y-120040
X54966Y-122580
X54966Y-125120
T4
X47346Y-41300
X47346Y-130200
T0
M30
